G75*
G70*
%OFA0B0*%
%FSLAX24Y24*%
%IPPOS*%
%LPD*%
%AMOC8*
5,1,8,0,0,1.08239X$1,22.5*
%
%ADD10C,0.0000*%
%ADD11C,0.0670*%
%ADD12C,0.0631*%
%ADD13C,0.0700*%
%ADD14R,0.0946X0.0414*%
%ADD15R,0.0946X0.1320*%
%ADD16C,0.0780*%
%ADD17R,0.0434X0.0552*%
%ADD18R,0.0512X0.0512*%
%ADD19R,0.0749X0.0827*%
%ADD20R,0.0650X0.0138*%
%ADD21C,0.0476*%
%ADD22C,0.0050*%
%ADD23R,0.0670X0.0631*%
%ADD24R,0.0249X0.0827*%
%ADD25C,0.0516*%
D10*
X002348Y003185D02*
X021596Y003185D01*
X021596Y003184D02*
X021625Y003181D01*
X021654Y003182D01*
X021683Y003186D01*
X021711Y003193D01*
X021739Y003204D01*
X021764Y003218D01*
X021788Y003235D01*
X021810Y003255D01*
X021829Y003278D01*
X021845Y003302D01*
X021858Y003328D01*
X021868Y003356D01*
X021875Y003385D01*
X021874Y003385D02*
X021872Y022751D01*
X021872Y022752D02*
X021754Y022870D01*
X002306Y022870D01*
X002305Y022870D02*
X002187Y022752D01*
X002187Y022751D02*
X002187Y003394D01*
X002188Y003394D02*
X002186Y003370D01*
X002187Y003345D01*
X002192Y003321D01*
X002199Y003298D01*
X002210Y003276D01*
X002224Y003255D01*
X002240Y003237D01*
X002258Y003221D01*
X002279Y003207D01*
X002301Y003197D01*
X002324Y003189D01*
X002348Y003185D01*
X020652Y019366D02*
X020654Y019401D01*
X020660Y019436D01*
X020670Y019470D01*
X020683Y019503D01*
X020700Y019534D01*
X020721Y019562D01*
X020744Y019589D01*
X020771Y019612D01*
X020799Y019633D01*
X020830Y019650D01*
X020863Y019663D01*
X020897Y019673D01*
X020932Y019679D01*
X020967Y019681D01*
X021002Y019679D01*
X021037Y019673D01*
X021071Y019663D01*
X021104Y019650D01*
X021135Y019633D01*
X021163Y019612D01*
X021190Y019589D01*
X021213Y019562D01*
X021234Y019534D01*
X021251Y019503D01*
X021264Y019470D01*
X021274Y019436D01*
X021280Y019401D01*
X021282Y019366D01*
X021280Y019331D01*
X021274Y019296D01*
X021264Y019262D01*
X021251Y019229D01*
X021234Y019198D01*
X021213Y019170D01*
X021190Y019143D01*
X021163Y019120D01*
X021135Y019099D01*
X021104Y019082D01*
X021071Y019069D01*
X021037Y019059D01*
X021002Y019053D01*
X020967Y019051D01*
X020932Y019053D01*
X020897Y019059D01*
X020863Y019069D01*
X020830Y019082D01*
X020799Y019099D01*
X020771Y019120D01*
X020744Y019143D01*
X020721Y019170D01*
X020700Y019198D01*
X020683Y019229D01*
X020670Y019262D01*
X020660Y019296D01*
X020654Y019331D01*
X020652Y019366D01*
X020730Y016413D02*
X020732Y016448D01*
X020738Y016483D01*
X020748Y016517D01*
X020761Y016550D01*
X020778Y016581D01*
X020799Y016609D01*
X020822Y016636D01*
X020849Y016659D01*
X020877Y016680D01*
X020908Y016697D01*
X020941Y016710D01*
X020975Y016720D01*
X021010Y016726D01*
X021045Y016728D01*
X021080Y016726D01*
X021115Y016720D01*
X021149Y016710D01*
X021182Y016697D01*
X021213Y016680D01*
X021241Y016659D01*
X021268Y016636D01*
X021291Y016609D01*
X021312Y016581D01*
X021329Y016550D01*
X021342Y016517D01*
X021352Y016483D01*
X021358Y016448D01*
X021360Y016413D01*
X021358Y016378D01*
X021352Y016343D01*
X021342Y016309D01*
X021329Y016276D01*
X021312Y016245D01*
X021291Y016217D01*
X021268Y016190D01*
X021241Y016167D01*
X021213Y016146D01*
X021182Y016129D01*
X021149Y016116D01*
X021115Y016106D01*
X021080Y016100D01*
X021045Y016098D01*
X021010Y016100D01*
X020975Y016106D01*
X020941Y016116D01*
X020908Y016129D01*
X020877Y016146D01*
X020849Y016167D01*
X020822Y016190D01*
X020799Y016217D01*
X020778Y016245D01*
X020761Y016276D01*
X020748Y016309D01*
X020738Y016343D01*
X020732Y016378D01*
X020730Y016413D01*
D11*
X021045Y016413D03*
X020967Y019366D03*
D12*
X020145Y012381D03*
X019145Y012381D03*
X018145Y012381D03*
X017145Y012381D03*
X016145Y012381D03*
X015145Y012381D03*
X014145Y012381D03*
X013145Y012381D03*
X012145Y012381D03*
X011145Y012381D03*
X010145Y012381D03*
X009145Y012381D03*
X008145Y012381D03*
X007145Y012381D03*
X007145Y009381D03*
X008145Y009381D03*
X009145Y009381D03*
X010145Y009381D03*
X011145Y009381D03*
X012145Y009381D03*
X013145Y009381D03*
X014145Y009381D03*
X015145Y009381D03*
X016145Y009381D03*
X017145Y009381D03*
X018145Y009381D03*
X019145Y009381D03*
X020145Y009381D03*
D13*
X005087Y011299D03*
X005087Y013220D03*
D14*
X005090Y009545D03*
X005090Y008639D03*
X005090Y007734D03*
D15*
X002767Y008639D03*
D16*
X005177Y006239D03*
X004399Y005602D03*
X003763Y004825D03*
X002985Y004188D03*
X005644Y004265D03*
X006422Y004901D03*
X007058Y005679D03*
X007836Y006315D03*
X009145Y007831D03*
X008145Y007931D03*
X010145Y007931D03*
X011145Y007831D03*
X012145Y007931D03*
X013145Y007831D03*
X014145Y007931D03*
X015145Y007831D03*
X016145Y007931D03*
X017145Y007831D03*
X018145Y007931D03*
X019145Y007831D03*
X018672Y006329D03*
X017895Y005693D03*
X017258Y004915D03*
X016480Y004278D03*
X018872Y004232D03*
X019650Y004869D03*
X020287Y005646D03*
X021064Y006283D03*
X021258Y008381D03*
X021358Y009381D03*
X021258Y010381D03*
X021358Y011381D03*
X021258Y012381D03*
X021358Y013381D03*
X019145Y013831D03*
X018145Y013931D03*
X017145Y013831D03*
X016145Y013931D03*
X015145Y013831D03*
X014145Y013931D03*
X013145Y013831D03*
X012145Y013931D03*
X011145Y013831D03*
X010145Y013931D03*
X009145Y013831D03*
X008145Y013931D03*
X008086Y020855D03*
X009086Y020955D03*
X009089Y021959D03*
X008089Y021859D03*
X007089Y021959D03*
X007086Y020955D03*
X006086Y020855D03*
X005086Y020955D03*
X004086Y020855D03*
X003086Y020955D03*
X003089Y021959D03*
X004089Y021859D03*
X005089Y021959D03*
X006089Y021859D03*
X010089Y021859D03*
X010086Y020855D03*
X013930Y020957D03*
X013935Y021959D03*
X014935Y021859D03*
X015935Y021959D03*
X016935Y021859D03*
X017935Y021959D03*
X017930Y020957D03*
X016930Y020857D03*
X015930Y020957D03*
X014930Y020857D03*
X018140Y018342D03*
X019141Y018342D03*
X019041Y017342D03*
X018040Y017342D03*
X018140Y016342D03*
X019141Y016342D03*
X019041Y015342D03*
X018040Y015342D03*
X020495Y017289D03*
X020495Y018429D03*
X020930Y020857D03*
X019930Y020957D03*
X019935Y021959D03*
X020935Y021859D03*
X018935Y021859D03*
X018930Y020857D03*
D17*
X003640Y013520D03*
X003640Y012771D03*
X003640Y011512D03*
X003640Y010764D03*
D18*
X008014Y015035D03*
X008801Y015035D03*
X007345Y016228D03*
X006557Y016228D03*
X006528Y017210D03*
X007315Y017210D03*
X006439Y018146D03*
X005652Y018146D03*
X011356Y010923D03*
X012144Y010923D03*
X014782Y010977D03*
X015569Y010977D03*
X018246Y010980D03*
X019034Y010980D03*
X015219Y006374D03*
X014431Y006374D03*
X014392Y004327D03*
X015179Y004327D03*
D19*
X006238Y007908D03*
X006238Y009168D03*
X002733Y013921D03*
X002733Y015181D03*
D20*
X010937Y016403D03*
X010937Y016659D03*
X010937Y016915D03*
X010937Y017171D03*
X010937Y017427D03*
X010937Y017683D03*
X010937Y017939D03*
X010937Y018195D03*
X010937Y018451D03*
X010937Y018707D03*
X010937Y018962D03*
X010937Y019218D03*
X010937Y019474D03*
X010937Y019730D03*
X013122Y019730D03*
X013122Y019474D03*
X013122Y019218D03*
X013122Y018962D03*
X013122Y018707D03*
X013122Y018451D03*
X013122Y018195D03*
X013122Y017939D03*
X013122Y017683D03*
X013122Y017427D03*
X013122Y017171D03*
X013122Y016915D03*
X013122Y016659D03*
X013122Y016403D03*
D21*
X012266Y016964D03*
X011793Y016610D03*
X011793Y017358D03*
X012266Y017752D03*
X011793Y018224D03*
X012266Y018618D03*
X011793Y019051D03*
X012266Y019484D03*
D22*
X012541Y019495D02*
X011518Y019495D01*
X011518Y019447D02*
X012541Y019447D01*
X012541Y019398D02*
X011518Y019398D01*
X011518Y019350D02*
X012541Y019350D01*
X012541Y019301D02*
X011518Y019301D01*
X011518Y019253D02*
X012541Y019253D01*
X012541Y019204D02*
X011518Y019204D01*
X011518Y019156D02*
X012541Y019156D01*
X012541Y019107D02*
X011518Y019107D01*
X011518Y019059D02*
X012541Y019059D01*
X012541Y019010D02*
X011518Y019010D01*
X011518Y018961D02*
X012541Y018961D01*
X012541Y018913D02*
X011518Y018913D01*
X011518Y018864D02*
X012541Y018864D01*
X012541Y018816D02*
X011518Y018816D01*
X011518Y018767D02*
X012541Y018767D01*
X012541Y018719D02*
X011518Y018719D01*
X011518Y018670D02*
X012541Y018670D01*
X012541Y018622D02*
X011518Y018622D01*
X011518Y018573D02*
X012541Y018573D01*
X012541Y018525D02*
X011518Y018525D01*
X011518Y018476D02*
X012541Y018476D01*
X012541Y018427D02*
X011518Y018427D01*
X011518Y018379D02*
X012541Y018379D01*
X012541Y018330D02*
X011518Y018330D01*
X011518Y018282D02*
X012541Y018282D01*
X012541Y018233D02*
X011518Y018233D01*
X011518Y018185D02*
X012541Y018185D01*
X012541Y018136D02*
X011518Y018136D01*
X011518Y018088D02*
X012541Y018088D01*
X012541Y018039D02*
X011518Y018039D01*
X011518Y017991D02*
X012541Y017991D01*
X012541Y017942D02*
X011518Y017942D01*
X011518Y017894D02*
X012541Y017894D01*
X012541Y017845D02*
X011518Y017845D01*
X011518Y017796D02*
X012541Y017796D01*
X012541Y017748D02*
X011518Y017748D01*
X011518Y017699D02*
X012541Y017699D01*
X012541Y017651D02*
X011518Y017651D01*
X011518Y017602D02*
X012541Y017602D01*
X012541Y017554D02*
X011518Y017554D01*
X011518Y017505D02*
X012541Y017505D01*
X012541Y017457D02*
X011518Y017457D01*
X011518Y017408D02*
X012541Y017408D01*
X012541Y017360D02*
X011518Y017360D01*
X011518Y017311D02*
X012541Y017311D01*
X012541Y017262D02*
X011518Y017262D01*
X011518Y017214D02*
X012541Y017214D01*
X012541Y017165D02*
X011518Y017165D01*
X011518Y017117D02*
X012541Y017117D01*
X012541Y017068D02*
X011518Y017068D01*
X011518Y017020D02*
X012541Y017020D01*
X012541Y016971D02*
X011518Y016971D01*
X011518Y016923D02*
X012541Y016923D01*
X012541Y016874D02*
X011518Y016874D01*
X011518Y016826D02*
X012541Y016826D01*
X012541Y016777D02*
X011518Y016777D01*
X011518Y016728D02*
X012541Y016728D01*
X012541Y016680D02*
X011518Y016680D01*
X011518Y016631D02*
X012541Y016631D01*
X012541Y016583D02*
X011518Y016583D01*
X011518Y016534D02*
X012541Y016534D01*
X012541Y016486D02*
X011518Y016486D01*
X011518Y016437D02*
X012541Y016437D01*
X012541Y016389D02*
X011518Y016389D01*
X011518Y016340D02*
X012541Y016340D01*
X012541Y016334D02*
X012541Y019799D01*
X011518Y019799D01*
X011518Y016334D01*
X012541Y016334D01*
X012541Y019544D02*
X011518Y019544D01*
X011518Y019593D02*
X012541Y019593D01*
X012541Y019641D02*
X011518Y019641D01*
X011518Y019690D02*
X012541Y019690D01*
X012541Y019738D02*
X011518Y019738D01*
X011518Y019787D02*
X012541Y019787D01*
D23*
X008447Y016334D03*
D24*
X010691Y006374D03*
X011187Y006374D03*
X011687Y006374D03*
X012187Y006374D03*
X012687Y006374D03*
X013187Y006374D03*
X013687Y006374D03*
X013683Y004405D03*
X013187Y004405D03*
X012687Y004405D03*
X012187Y004405D03*
X011687Y004405D03*
X011187Y004405D03*
X010687Y004405D03*
D25*
X004195Y018106D03*
X003408Y018106D03*
M02*
