<?xml version="1.0" encoding="UTF-8" standalone="no"?>
<!-- Created with Inkscape (http://www.inkscape.org/) -->

<svg
   xmlns:dc="http://purl.org/dc/elements/1.1/"
   xmlns:cc="http://creativecommons.org/ns#"
   xmlns:rdf="http://www.w3.org/1999/02/22-rdf-syntax-ns#"
   xmlns:svg="http://www.w3.org/2000/svg"
   xmlns="http://www.w3.org/2000/svg"
   xmlns:sodipodi="http://sodipodi.sourceforge.net/DTD/sodipodi-0.dtd"
   xmlns:inkscape="http://www.inkscape.org/namespaces/inkscape"
   id="svg5215"
   version="1.1"
   inkscape:version="0.48.0 r9654"
   width="242.5"
   height="216.25"
   xml:space="preserve"
   sodipodi:docname="TLCduino_cream.svg"><metadata
     id="metadata5221"><rdf:RDF><cc:Work
         rdf:about=""><dc:format>image/svg+xml</dc:format><dc:type
           rdf:resource="http://purl.org/dc/dcmitype/StillImage" /><dc:title /></cc:Work></rdf:RDF></metadata><defs
     id="defs5219" /><sodipodi:namedview
     pagecolor="#ffffff"
     bordercolor="#666666"
     borderopacity="1"
     objecttolerance="10"
     gridtolerance="10"
     guidetolerance="10"
     inkscape:pageopacity="0"
     inkscape:pageshadow="2"
     inkscape:window-width="1165"
     inkscape:window-height="693"
     id="namedview5217"
     showgrid="false"
     inkscape:zoom="2.1919075"
     inkscape:cx="121.25"
     inkscape:cy="108.125"
     inkscape:window-x="0"
     inkscape:window-y="0"
     inkscape:window-maximized="0"
     inkscape:current-layer="g5223" /><g
     id="g5223"
     inkscape:groupmode="layer"
     inkscape:label="TLCduino_cream"
     transform="matrix(1.25,0,0,-1.25,0,216.25)"><path
       inkscape:connector-curvature="0"
       id="path5227"
       style="fill:#000000;fill-opacity:1;fill-rule:nonzero;stroke:none"
       d="m 34.15344,61.157001 4.89024,0 0,2.020086 -4.89024,0 0,-2.020086 z" /><path
       inkscape:connector-curvature="0"
       id="path5229"
       style="fill:#000000;fill-opacity:1;fill-rule:nonzero;stroke:none"
       d="m 34.15344,54.637641 4.89024,0 0,2.020086 -4.89024,0 0,-2.020086 z" /><path
       inkscape:connector-curvature="0"
       id="path5231"
       style="fill:#000000;fill-opacity:1;fill-rule:nonzero;stroke:none"
       d="m 34.15344,67.677204 4.89024,0 0,2.019384 -4.89024,0 0,-2.019384 z" /><path
       inkscape:connector-curvature="0"
       id="path5233"
       style="fill:#000000;fill-opacity:1;fill-rule:nonzero;stroke:none"
       d="m 17.429307,58.712241 4.889538,0 0,6.909606 -4.889538,0 0,-6.909606 z" /><path
       inkscape:connector-curvature="0"
       id="path5235"
       style="fill:#000000;fill-opacity:1;fill-rule:nonzero;stroke:none"
       d="m 25.092978,90.537465 2.125548,0 0,2.76399 -2.125548,0 0,-2.76399 z" /><path
       inkscape:connector-curvature="0"
       id="path5237"
       style="fill:#000000;fill-opacity:1;fill-rule:nonzero;stroke:none"
       d="m 25.092978,95.923545 2.125548,0 0,2.76399 -2.125548,0 0,-2.76399 z" /><path
       inkscape:connector-curvature="0"
       id="path5239"
       style="fill:#000000;fill-opacity:1;fill-rule:nonzero;stroke:none"
       d="m 25.092978,81.467028 2.125548,0 0,2.763288 -2.125548,0 0,-2.763288 z" /><path
       inkscape:connector-curvature="0"
       id="path5241"
       style="fill:#000000;fill-opacity:1;fill-rule:nonzero;stroke:none"
       d="m 25.092978,76.081188 2.125548,0 0,2.763288 -2.125548,0 0,-2.763288 z" /><path
       inkscape:connector-curvature="0"
       id="path5243"
       style="fill:#000000;fill-opacity:1;fill-rule:nonzero;stroke:none"
       d="m 80.439114,77.332074 2.551644,0 0,2.551644 -2.551644,0 0,-2.551644 z" /><path
       inkscape:connector-curvature="0"
       id="path5245"
       style="fill:#000000;fill-opacity:1;fill-rule:nonzero;stroke:none"
       d="m 86.108997,77.332074 2.550942,0 0,2.551644 -2.550942,0 0,-2.551644 z" /><path
       inkscape:connector-curvature="0"
       id="path5247"
       style="fill:#000000;fill-opacity:1;fill-rule:nonzero;stroke:none"
       d="m 105.10068,77.723877 2.55094,0 0,2.550942 -2.55094,0 0,-2.550942 z" /><path
       inkscape:connector-curvature="0"
       id="path5249"
       style="fill:#000000;fill-opacity:1;fill-rule:nonzero;stroke:none"
       d="m 110.76996,77.723877 2.55094,0 0,2.550942 -2.55094,0 0,-2.550942 z" /><path
       inkscape:connector-curvature="0"
       id="path5251"
       style="fill:#000000;fill-opacity:1;fill-rule:nonzero;stroke:none"
       d="m 17.711478,98.070873 3.826404,0 0,4.251797 -3.826404,0 0,-4.251797 z" /><path
       inkscape:connector-curvature="0"
       id="path5253"
       style="fill:#000000;fill-opacity:1;fill-rule:nonzero;stroke:none"
       d="m 17.711478,107.14215 3.826404,0 0,4.2518 -3.826404,0 0,-4.2518 z" /><path
       inkscape:connector-curvature="0"
       id="path5255"
       style="fill:#000000;fill-opacity:1;fill-rule:nonzero;stroke:none"
       d="m 42.946251,63.846393 3.827106,0 0,4.251798 -3.827106,0 0,-4.251798 z" /><path
       inkscape:connector-curvature="0"
       id="path5257"
       style="fill:#000000;fill-opacity:1;fill-rule:nonzero;stroke:none"
       d="m 42.946251,54.77523 3.827106,0 0,4.2525 -3.827106,0 0,-4.2525 z" /><path
       inkscape:connector-curvature="0"
       id="path5259"
       style="fill:#000000;fill-opacity:1;fill-rule:nonzero;stroke:none"
       d="m 130.0458,77.746437 2.55094,0 0,2.550942 -2.55094,0 0,-2.550942 z" /><path
       inkscape:connector-curvature="0"
       id="path5261"
       style="fill:#000000;fill-opacity:1;fill-rule:nonzero;stroke:none"
       d="m 135.71484,77.746437 2.55094,0 0,2.550942 -2.55094,0 0,-2.550942 z" /><path
       inkscape:connector-curvature="0"
       id="path5263"
       style="fill:#000000;fill-opacity:1;fill-rule:nonzero;stroke:none"
       d="m 77.707408,130.70115 1.977328,0 0,0.53157 -1.977328,0 0,-0.53157 z" /><path
       inkscape:connector-curvature="0"
       id="path5265"
       style="fill:#000000;fill-opacity:1;fill-rule:nonzero;stroke:none"
       d="m 77.707408,132.54339 1.977328,0 0,0.53157 -1.977328,0 0,-0.53157 z" /><path
       inkscape:connector-curvature="0"
       id="path5267"
       style="fill:#000000;fill-opacity:1;fill-rule:nonzero;stroke:none"
       d="m 77.707408,134.38635 1.977328,0 0,0.53157 -1.977328,0 0,-0.53157 z" /><path
       inkscape:connector-curvature="0"
       id="path5269"
       style="fill:#000000;fill-opacity:1;fill-rule:nonzero;stroke:none"
       d="m 77.707408,136.22859 1.977328,0 0,0.53157 -1.977328,0 0,-0.53157 z" /><path
       inkscape:connector-curvature="0"
       id="path5271"
       style="fill:#000000;fill-opacity:1;fill-rule:nonzero;stroke:none"
       d="m 77.707408,138.07083 1.977328,0 0,0.53157 -1.977328,0 0,-0.53157 z" /><path
       inkscape:connector-curvature="0"
       id="path5273"
       style="fill:#000000;fill-opacity:1;fill-rule:nonzero;stroke:none"
       d="m 77.707408,139.91379 1.977328,0 0,0.53157 -1.977328,0 0,-0.53157 z" /><path
       inkscape:connector-curvature="0"
       id="path5275"
       style="fill:#000000;fill-opacity:1;fill-rule:nonzero;stroke:none"
       d="m 77.707408,141.75603 1.977328,0 0,0.53157 -1.977328,0 0,-0.53157 z" /><path
       inkscape:connector-curvature="0"
       id="path5277"
       style="fill:#000000;fill-opacity:1;fill-rule:nonzero;stroke:none"
       d="m 77.707408,128.85891 1.977328,0 0,0.53157 -1.977328,0 0,-0.53157 z" /><path
       inkscape:connector-curvature="0"
       id="path5279"
       style="fill:#000000;fill-opacity:1;fill-rule:nonzero;stroke:none"
       d="m 77.707408,127.01571 1.977328,0 0,0.53157 -1.977328,0 0,-0.53157 z" /><path
       inkscape:connector-curvature="0"
       id="path5281"
       style="fill:#000000;fill-opacity:1;fill-rule:nonzero;stroke:none"
       d="m 77.707408,125.17371 1.977328,0 0,0.53157 -1.977328,0 0,-0.53157 z" /><path
       inkscape:connector-curvature="0"
       id="path5283"
       style="fill:#000000;fill-opacity:1;fill-rule:nonzero;stroke:none"
       d="m 77.707408,123.33147 1.977328,0 0,0.53157 -1.977328,0 0,-0.53157 z" /><path
       inkscape:connector-curvature="0"
       id="path5285"
       style="fill:#000000;fill-opacity:1;fill-rule:nonzero;stroke:none"
       d="m 77.707408,121.48827 1.977328,0 0,0.53157 -1.977328,0 0,-0.53157 z" /><path
       inkscape:connector-curvature="0"
       id="path5287"
       style="fill:#000000;fill-opacity:1;fill-rule:nonzero;stroke:none"
       d="m 77.707408,119.64603 1.977328,0 0,0.53157 -1.977328,0 0,-0.53157 z" /><path
       inkscape:connector-curvature="0"
       id="path5289"
       style="fill:#000000;fill-opacity:1;fill-rule:nonzero;stroke:none"
       d="m 77.707408,117.80368 1.977328,0 0,0.53085 -1.977328,0 0,-0.53085 z" /><path
       inkscape:connector-curvature="0"
       id="path5291"
       style="fill:#000000;fill-opacity:1;fill-rule:nonzero;stroke:none"
       d="m 93.439648,117.80368 1.977328,0 0,0.53085 -1.977328,0 0,-0.53085 z" /><path
       inkscape:connector-curvature="0"
       id="path5293"
       style="fill:#000000;fill-opacity:1;fill-rule:nonzero;stroke:none"
       d="m 93.439648,119.64603 1.977328,0 0,0.53157 -1.977328,0 0,-0.53157 z" /><path
       inkscape:connector-curvature="0"
       id="path5295"
       style="fill:#000000;fill-opacity:1;fill-rule:nonzero;stroke:none"
       d="m 93.439648,121.48827 1.977328,0 0,0.53157 -1.977328,0 0,-0.53157 z" /><path
       inkscape:connector-curvature="0"
       id="path5297"
       style="fill:#000000;fill-opacity:1;fill-rule:nonzero;stroke:none"
       d="m 93.439648,123.33147 1.977328,0 0,0.53157 -1.977328,0 0,-0.53157 z" /><path
       inkscape:connector-curvature="0"
       id="path5299"
       style="fill:#000000;fill-opacity:1;fill-rule:nonzero;stroke:none"
       d="m 93.439648,125.17371 1.977328,0 0,0.53157 -1.977328,0 0,-0.53157 z" /><path
       inkscape:connector-curvature="0"
       id="path5301"
       style="fill:#000000;fill-opacity:1;fill-rule:nonzero;stroke:none"
       d="m 93.439648,127.01571 1.977328,0 0,0.53157 -1.977328,0 0,-0.53157 z" /><path
       inkscape:connector-curvature="0"
       id="path5303"
       style="fill:#000000;fill-opacity:1;fill-rule:nonzero;stroke:none"
       d="m 93.439648,128.85891 1.977328,0 0,0.53157 -1.977328,0 0,-0.53157 z" /><path
       inkscape:connector-curvature="0"
       id="path5305"
       style="fill:#000000;fill-opacity:1;fill-rule:nonzero;stroke:none"
       d="m 93.439648,130.70115 1.977328,0 0,0.53157 -1.977328,0 0,-0.53157 z" /><path
       inkscape:connector-curvature="0"
       id="path5307"
       style="fill:#000000;fill-opacity:1;fill-rule:nonzero;stroke:none"
       d="m 93.439648,132.54339 1.977328,0 0,0.53157 -1.977328,0 0,-0.53157 z" /><path
       inkscape:connector-curvature="0"
       id="path5309"
       style="fill:#000000;fill-opacity:1;fill-rule:nonzero;stroke:none"
       d="m 93.439648,134.38635 1.977328,0 0,0.53157 -1.977328,0 0,-0.53157 z" /><path
       inkscape:connector-curvature="0"
       id="path5311"
       style="fill:#000000;fill-opacity:1;fill-rule:nonzero;stroke:none"
       d="m 93.439648,136.22859 1.977328,0 0,0.53157 -1.977328,0 0,-0.53157 z" /><path
       inkscape:connector-curvature="0"
       id="path5313"
       style="fill:#000000;fill-opacity:1;fill-rule:nonzero;stroke:none"
       d="m 93.439648,138.07083 1.977328,0 0,0.53157 -1.977328,0 0,-0.53157 z" /><path
       inkscape:connector-curvature="0"
       id="path5315"
       style="fill:#000000;fill-opacity:1;fill-rule:nonzero;stroke:none"
       d="m 93.439648,139.91379 1.977328,0 0,0.53157 -1.977328,0 0,-0.53157 z" /><path
       inkscape:connector-curvature="0"
       id="path5317"
       style="fill:#000000;fill-opacity:1;fill-rule:nonzero;stroke:none"
       d="m 93.439648,141.75603 1.977328,0 0,0.53157 -1.977328,0 0,-0.53157 z" /><path
       inkscape:connector-curvature="0"
       id="path5319"
       style="fill:#000000;fill-opacity:1;fill-rule:nonzero;stroke:none"
       d="m 84.011274,120.90402 5.101884,0 0,18.28332 -5.101884,0 0,-18.28332 z" /><path
       inkscape:connector-curvature="0"
       id="path5321"
       style="fill:#000000;fill-opacity:1;fill-rule:nonzero;stroke:none"
       d="m 82.990684,118.56529 7.143184,0 0,22.96102 -7.143184,0 0,-22.96102 z" /><path
       inkscape:connector-curvature="0"
       id="path5323"
       style="fill:#000000;fill-opacity:1;fill-rule:nonzero;stroke:none"
       d="m 45.675477,122.60196 2.550942,0 0,2.55094 -2.550942,0 0,-2.55094 z" /><path
       inkscape:connector-curvature="0"
       id="path5325"
       style="fill:#000000;fill-opacity:1;fill-rule:nonzero;stroke:none"
       d="m 51.344517,122.60196 2.550942,0 0,2.55094 -2.550942,0 0,-2.55094 z" /><path
       inkscape:connector-curvature="0"
       id="path5327"
       style="fill:#000000;fill-opacity:1;fill-rule:nonzero;stroke:none"
       d="m 51.554517,115.53228 2.550942,0 0,2.55094 -2.550942,0 0,-2.55094 z" /><path
       inkscape:connector-curvature="0"
       id="path5329"
       style="fill:#000000;fill-opacity:1;fill-rule:nonzero;stroke:none"
       d="m 45.884634,115.53228 2.551644,0 0,2.55094 -2.551644,0 0,-2.55094 z" /><path
       inkscape:connector-curvature="0"
       id="path5331"
       style="fill:#000000;fill-opacity:1;fill-rule:nonzero;stroke:none"
       d="m 59.065992,115.97888 3.401712,0 0,3.18867 -3.401712,0 0,-3.18867 z" /><path
       inkscape:connector-curvature="0"
       id="path5333"
       style="fill:#000000;fill-opacity:1;fill-rule:nonzero;stroke:none"
       d="m 56.373237,106.94303 2.550942,0 0,2.55165 -2.550942,0 0,-2.55165 z" /><path
       inkscape:connector-curvature="0"
       id="path5335"
       style="fill:#000000;fill-opacity:1;fill-rule:nonzero;stroke:none"
       d="m 62.042277,106.94303 2.550942,0 0,2.55165 -2.550942,0 0,-2.55165 z" /><path
       inkscape:connector-curvature="0"
       id="path5337"
       style="fill:#000000;fill-opacity:1;fill-rule:nonzero;stroke:none"
       d="m 45.034314,129.33708 2.551644,0 0,2.55094 -2.551644,0 0,-2.55094 z" /><path
       inkscape:connector-curvature="0"
       id="path5339"
       style="fill:#000000;fill-opacity:1;fill-rule:nonzero;stroke:none"
       d="m 39.365157,129.33708 2.550942,0 0,2.55094 -2.550942,0 0,-2.55094 z" /><path
       inkscape:connector-curvature="0"
       id="path5341"
       style="fill:#000000;fill-opacity:1;fill-rule:nonzero;stroke:none"
       d="m 97.904214,29.557353 1.126406,0 0,4.251798 -1.126406,0 0,-4.251798 z" /><path
       inkscape:connector-curvature="0"
       id="path5343"
       style="fill:#000000;fill-opacity:1;fill-rule:nonzero;stroke:none"
       d="m 94.332652,29.557353 1.127109,0 0,4.251798 -1.127109,0 0,-4.251798 z" /><path
       inkscape:connector-curvature="0"
       id="path5345"
       style="fill:#000000;fill-opacity:1;fill-rule:nonzero;stroke:none"
       d="m 90.732652,29.557353 1.127109,0 0,4.251798 -1.127109,0 0,-4.251798 z" /><path
       inkscape:connector-curvature="0"
       id="path5347"
       style="fill:#000000;fill-opacity:1;fill-rule:nonzero;stroke:none"
       d="m 87.132652,29.557353 1.127109,0 0,4.251798 -1.127109,0 0,-4.251798 z" /><path
       inkscape:connector-curvature="0"
       id="path5349"
       style="fill:#000000;fill-opacity:1;fill-rule:nonzero;stroke:none"
       d="m 83.532652,29.557353 1.127109,0 0,4.251798 -1.127109,0 0,-4.251798 z" /><path
       inkscape:connector-curvature="0"
       id="path5351"
       style="fill:#000000;fill-opacity:1;fill-rule:nonzero;stroke:none"
       d="m 79.932652,29.557353 1.127109,0 0,4.251798 -1.127109,0 0,-4.251798 z" /><path
       inkscape:connector-curvature="0"
       id="path5353"
       style="fill:#000000;fill-opacity:1;fill-rule:nonzero;stroke:none"
       d="m 76.332652,29.557353 1.127109,0 0,4.251798 -1.127109,0 0,-4.251798 z" /><path
       inkscape:connector-curvature="0"
       id="path5355"
       style="fill:#000000;fill-opacity:1;fill-rule:nonzero;stroke:none"
       d="m 76.360732,43.730553 1.127109,0 0,4.251798 -1.127109,0 0,-4.251798 z" /><path
       inkscape:connector-curvature="0"
       id="path5357"
       style="fill:#000000;fill-opacity:1;fill-rule:nonzero;stroke:none"
       d="m 79.932652,43.730553 1.127109,0 0,4.251798 -1.127109,0 0,-4.251798 z" /><path
       inkscape:connector-curvature="0"
       id="path5359"
       style="fill:#000000;fill-opacity:1;fill-rule:nonzero;stroke:none"
       d="m 83.532652,43.730553 1.127109,0 0,4.251798 -1.127109,0 0,-4.251798 z" /><path
       inkscape:connector-curvature="0"
       id="path5361"
       style="fill:#000000;fill-opacity:1;fill-rule:nonzero;stroke:none"
       d="m 87.132652,43.730553 1.127109,0 0,4.251798 -1.127109,0 0,-4.251798 z" /><path
       inkscape:connector-curvature="0"
       id="path5363"
       style="fill:#000000;fill-opacity:1;fill-rule:nonzero;stroke:none"
       d="m 90.732652,43.730553 1.127109,0 0,4.251798 -1.127109,0 0,-4.251798 z" /><path
       inkscape:connector-curvature="0"
       id="path5365"
       style="fill:#000000;fill-opacity:1;fill-rule:nonzero;stroke:none"
       d="m 94.332652,43.730553 1.127109,0 0,4.251798 -1.127109,0 0,-4.251798 z" /><path
       inkscape:connector-curvature="0"
       id="path5367"
       style="fill:#000000;fill-opacity:1;fill-rule:nonzero;stroke:none"
       d="m 97.932652,43.730553 1.127109,0 0,4.251798 -1.127109,0 0,-4.251798 z" /><path
       inkscape:connector-curvature="0"
       id="path5369"
       style="fill:#000000;fill-opacity:1;fill-rule:nonzero;stroke:none"
       d="m 107.96388,29.840997 2.55094,0 0,2.550942 -2.55094,0 0,-2.550942 z" /><path
       inkscape:connector-curvature="0"
       id="path5371"
       style="fill:#000000;fill-opacity:1;fill-rule:nonzero;stroke:none"
       d="m 102.29399,29.840997 2.55165,0 0,2.550942 -2.55165,0 0,-2.550942 z" /><path
       inkscape:connector-curvature="0"
       id="path5373"
       style="fill:#000000;fill-opacity:1;fill-rule:nonzero;stroke:none"
       d="m 102.57804,44.581317 2.55094,0 0,2.550942 -2.55094,0 0,-2.550942 z" /><path
       inkscape:connector-curvature="0"
       id="path5375"
       style="fill:#000000;fill-opacity:1;fill-rule:nonzero;stroke:none"
       d="m 108.24708,44.581317 2.55094,0 0,2.550942 -2.55094,0 0,-2.550942 z" /></g></svg>