G75*
G70*
%OFA0B0*%
%FSLAX24Y24*%
%IPPOS*%
%LPD*%
%AMOC8*
5,1,8,0,0,1.08239X$1,22.5*
%
%ADD10C,0.0000*%
%ADD11C,0.0631*%
%ADD12C,0.0700*%
%ADD13R,0.0946X0.0414*%
%ADD14R,0.0946X0.1320*%
%ADD15C,0.0780*%
%ADD16R,0.0434X0.0552*%
%ADD17R,0.0512X0.0512*%
%ADD18R,0.0749X0.0827*%
%ADD19R,0.0650X0.0138*%
%ADD20C,0.0476*%
%ADD21R,0.0670X0.0631*%
D10*
X002348Y003185D02*
X021596Y003185D01*
X021596Y003184D02*
X021625Y003181D01*
X021654Y003182D01*
X021683Y003186D01*
X021711Y003193D01*
X021739Y003204D01*
X021764Y003218D01*
X021788Y003235D01*
X021810Y003255D01*
X021829Y003278D01*
X021845Y003302D01*
X021858Y003328D01*
X021868Y003356D01*
X021875Y003385D01*
X021874Y003385D02*
X021914Y018935D01*
X021913Y018970D01*
X021909Y019004D01*
X021901Y019037D01*
X021890Y019070D01*
X021875Y019101D01*
X021857Y019131D01*
X021836Y019158D01*
X021813Y019183D01*
X021787Y019206D01*
X021759Y019225D01*
X021728Y019242D01*
X021697Y019255D01*
X021664Y019265D01*
X021630Y019272D01*
X021595Y019275D01*
X002456Y019275D01*
X002425Y019272D01*
X002394Y019265D01*
X002364Y019255D01*
X002335Y019241D01*
X002309Y019224D01*
X002284Y019204D01*
X002262Y019182D01*
X002243Y019156D01*
X002227Y019129D01*
X002214Y019100D01*
X002205Y019070D01*
X002199Y019039D01*
X002197Y019008D01*
X002187Y003394D01*
X002188Y003394D02*
X002186Y003370D01*
X002187Y003345D01*
X002192Y003321D01*
X002199Y003298D01*
X002210Y003276D01*
X002224Y003255D01*
X002240Y003237D01*
X002258Y003221D01*
X002279Y003207D01*
X002301Y003197D01*
X002324Y003189D01*
X002348Y003185D01*
D11*
X007145Y005523D03*
X008145Y005523D03*
X009145Y005523D03*
X010145Y005523D03*
X011145Y005523D03*
X012145Y005523D03*
X013145Y005523D03*
X014145Y005523D03*
X015145Y005523D03*
X016145Y005523D03*
X017145Y005523D03*
X018145Y005523D03*
X019145Y005523D03*
X020145Y005523D03*
X020145Y008523D03*
X019145Y008523D03*
X018145Y008523D03*
X017145Y008523D03*
X016145Y008523D03*
X015145Y008523D03*
X014145Y008523D03*
X013145Y008523D03*
X012145Y008523D03*
X011145Y008523D03*
X010145Y008523D03*
X009145Y008523D03*
X008145Y008523D03*
X007145Y008523D03*
D12*
X005087Y009362D03*
X005087Y007441D03*
D13*
X005090Y005686D03*
X005090Y004781D03*
X005090Y003875D03*
D14*
X002767Y004781D03*
D15*
X008145Y004073D03*
X009145Y003973D03*
X010145Y004073D03*
X011145Y003973D03*
X012145Y004073D03*
X013145Y003973D03*
X014145Y004073D03*
X015145Y003973D03*
X016145Y004073D03*
X017145Y003973D03*
X018145Y004073D03*
X019145Y003973D03*
X021258Y004523D03*
X021358Y005523D03*
X021258Y006523D03*
X021358Y007523D03*
X021258Y008523D03*
X021358Y009523D03*
X021087Y011418D03*
X021087Y012558D03*
X019141Y012483D03*
X018140Y012484D03*
X018040Y013484D03*
X019041Y013483D03*
X019141Y014483D03*
X018140Y014484D03*
X017285Y017234D03*
X018285Y017334D03*
X017289Y018237D03*
X018289Y018337D03*
X019289Y018237D03*
X020289Y018337D03*
X020285Y017334D03*
X021285Y017234D03*
X021289Y018237D03*
X019285Y017234D03*
X021086Y015554D03*
X021086Y014414D03*
X019041Y011483D03*
X018040Y011484D03*
X018145Y010073D03*
X019145Y009973D03*
X017145Y009973D03*
X016145Y010073D03*
X015145Y009973D03*
X014145Y010073D03*
X013145Y009973D03*
X012145Y010073D03*
X011145Y009973D03*
X010145Y010073D03*
X009145Y009973D03*
X008145Y010073D03*
X008086Y017233D03*
X009086Y017333D03*
X009089Y018337D03*
X008089Y018237D03*
X007089Y018337D03*
X007086Y017333D03*
X006086Y017233D03*
X005086Y017333D03*
X004086Y017233D03*
X003086Y017333D03*
X003089Y018337D03*
X004089Y018237D03*
X005089Y018337D03*
X006089Y018237D03*
X010089Y018237D03*
X010086Y017233D03*
X014285Y017334D03*
X015285Y017234D03*
X015289Y018237D03*
X014289Y018337D03*
X016289Y018337D03*
X016285Y017334D03*
D16*
X003640Y009661D03*
X003640Y008913D03*
X003640Y007653D03*
X003640Y006905D03*
D17*
X008014Y011177D03*
X008801Y011177D03*
X007345Y012870D03*
X006557Y012870D03*
X004746Y013618D03*
X003959Y013618D03*
X004431Y014642D03*
X005219Y014642D03*
X011356Y007064D03*
X012144Y007064D03*
X014782Y007119D03*
X015569Y007119D03*
X018246Y007122D03*
X019034Y007122D03*
D18*
X006238Y005309D03*
X006238Y004050D03*
X002733Y010063D03*
X002733Y011323D03*
D19*
X010937Y012545D03*
X010937Y012801D03*
X010937Y013057D03*
X010937Y013313D03*
X010937Y013569D03*
X010937Y013825D03*
X010937Y014081D03*
X010937Y014336D03*
X010937Y014592D03*
X010937Y014848D03*
X010937Y015104D03*
X010937Y015360D03*
X010937Y015616D03*
X010937Y015872D03*
X013122Y015872D03*
X013122Y015616D03*
X013122Y015360D03*
X013122Y015104D03*
X013122Y014848D03*
X013122Y014592D03*
X013122Y014336D03*
X013122Y014081D03*
X013122Y013825D03*
X013122Y013569D03*
X013122Y013313D03*
X013122Y013057D03*
X013122Y012801D03*
X013122Y012545D03*
D20*
X012266Y013106D03*
X011793Y012752D03*
X011793Y013500D03*
X012266Y013894D03*
X011793Y014366D03*
X012266Y014760D03*
X011793Y015193D03*
X012266Y015626D03*
D21*
X008447Y012476D03*
M02*
