%
M48
M72
T01C0.0236
T02C0.0315
T03C0.0320
T04C0.0400
%
T01
X4270Y3894
X6911Y6216
X8604Y6216
X10745Y6986
X13604Y9209
X13250Y11059
X12856Y11374
X13486Y11768
X12939Y12264
X13841Y12437
X14793Y12138
X14156Y11453
X15179Y11138
X15652Y11098
X15730Y11846
X16163Y12555
X19786Y10429
X16120Y7119
X9982Y10941
X9589Y11728
X9664Y12936
X8959Y13067
X7817Y14051
X7423Y13460
X6082Y12503
X5415Y12712
X4786Y12752
X3998Y11925
X2700Y12095
X3325Y13615
X5573Y11649
X7420Y10810
X3640Y8264
X11793Y12752
X12266Y13106
X11793Y13500
X12266Y13894
X11793Y14366
X12266Y14760
X11793Y15193
X12266Y15626
T02
X5087Y9362
X5087Y7441
T03
X7145Y8523
X8145Y8523
X9145Y8523
X10145Y8523
X11145Y8523
X12145Y8523
X13145Y8523
X14145Y8523
X15145Y8523
X16145Y8523
X17145Y8523
X18145Y8523
X19145Y8523
X20145Y8523
X20145Y5523
X19145Y5523
X18145Y5523
X17145Y5523
X16145Y5523
X15145Y5523
X14145Y5523
X13145Y5523
X12145Y5523
X11145Y5523
X10145Y5523
X9145Y5523
X8145Y5523
X7145Y5523
T04
X8145Y4073
X9145Y3973
X10145Y4073
X11145Y3973
X12145Y4073
X13145Y3973
X14145Y4073
X15145Y3973
X16145Y4073
X17145Y3973
X18145Y4073
X19145Y3973
X21258Y4523
X21358Y5523
X21258Y6523
X21358Y7523
X21258Y8523
X21358Y9523
X21087Y11418
X21087Y12558
X19141Y12483
X18140Y12484
X18040Y13484
X19041Y13483
X19141Y14483
X18140Y14484
X17285Y17234
X18285Y17334
X17289Y18237
X18289Y18337
X19289Y18237
X20289Y18337
X20285Y17334
X21285Y17234
X21289Y18237
X19285Y17234
X21086Y15554
X21086Y14414
X19041Y11483
X18040Y11484
X18145Y10073
X19145Y9973
X17145Y9973
X16145Y10073
X15145Y9973
X14145Y10073
X13145Y9973
X12145Y10073
X11145Y9973
X10145Y10073
X9145Y9973
X8145Y10073
X8086Y17233
X9086Y17333
X9089Y18337
X8089Y18237
X7089Y18337
X7086Y17333
X6086Y17233
X5086Y17333
X4086Y17233
X3086Y17333
X3089Y18337
X4089Y18237
X5089Y18337
X6089Y18237
X10089Y18237
X10086Y17233
X14285Y17334
X15285Y17234
X15289Y18237
X14289Y18337
X16289Y18337
X16285Y17334
M30
