G75*
G70*
%OFA0B0*%
%FSLAX24Y24*%
%IPPOS*%
%LPD*%
%AMOC8*
5,1,8,0,0,1.08239X$1,22.5*
%
%ADD10C,0.0000*%
%ADD11C,0.0591*%
%ADD12C,0.0660*%
%ADD13R,0.0906X0.0374*%
%ADD14R,0.0906X0.1280*%
%ADD15C,0.0740*%
%ADD16R,0.0394X0.0512*%
%ADD17R,0.0472X0.0472*%
%ADD18R,0.0709X0.0787*%
%ADD19R,0.0610X0.0098*%
%ADD20C,0.0050*%
%ADD21C,0.0436*%
%ADD22R,0.0630X0.0591*%
%ADD23R,0.0209X0.0787*%
%ADD24C,0.0476*%
%ADD25C,0.0100*%
%ADD26C,0.0356*%
%ADD27C,0.0120*%
%ADD28C,0.0160*%
%ADD29C,0.0320*%
%ADD30C,0.0500*%
%ADD31C,0.0277*%
%ADD32C,0.0350*%
%ADD33C,0.0400*%
D10*
X002348Y003185D02*
X021596Y003185D01*
X021596Y003184D02*
X021625Y003181D01*
X021654Y003182D01*
X021683Y003186D01*
X021711Y003193D01*
X021739Y003204D01*
X021764Y003218D01*
X021788Y003235D01*
X021810Y003255D01*
X021829Y003278D01*
X021845Y003302D01*
X021858Y003328D01*
X021868Y003356D01*
X021875Y003385D01*
X021874Y003385D02*
X021872Y022751D01*
X021872Y022752D02*
X021754Y022870D01*
X002306Y022870D01*
X002305Y022870D02*
X002187Y022752D01*
X002187Y022751D02*
X002187Y003394D01*
X002188Y003394D02*
X002186Y003370D01*
X002187Y003345D01*
X002192Y003321D01*
X002199Y003298D01*
X002210Y003276D01*
X002224Y003255D01*
X002240Y003237D01*
X002258Y003221D01*
X002279Y003207D01*
X002301Y003197D01*
X002324Y003189D01*
X002348Y003185D01*
X020652Y019366D02*
X020654Y019401D01*
X020660Y019436D01*
X020670Y019470D01*
X020683Y019503D01*
X020700Y019534D01*
X020721Y019562D01*
X020744Y019589D01*
X020771Y019612D01*
X020799Y019633D01*
X020830Y019650D01*
X020863Y019663D01*
X020897Y019673D01*
X020932Y019679D01*
X020967Y019681D01*
X021002Y019679D01*
X021037Y019673D01*
X021071Y019663D01*
X021104Y019650D01*
X021135Y019633D01*
X021163Y019612D01*
X021190Y019589D01*
X021213Y019562D01*
X021234Y019534D01*
X021251Y019503D01*
X021264Y019470D01*
X021274Y019436D01*
X021280Y019401D01*
X021282Y019366D01*
X021280Y019331D01*
X021274Y019296D01*
X021264Y019262D01*
X021251Y019229D01*
X021234Y019198D01*
X021213Y019170D01*
X021190Y019143D01*
X021163Y019120D01*
X021135Y019099D01*
X021104Y019082D01*
X021071Y019069D01*
X021037Y019059D01*
X021002Y019053D01*
X020967Y019051D01*
X020932Y019053D01*
X020897Y019059D01*
X020863Y019069D01*
X020830Y019082D01*
X020799Y019099D01*
X020771Y019120D01*
X020744Y019143D01*
X020721Y019170D01*
X020700Y019198D01*
X020683Y019229D01*
X020670Y019262D01*
X020660Y019296D01*
X020654Y019331D01*
X020652Y019366D01*
X020730Y016413D02*
X020732Y016448D01*
X020738Y016483D01*
X020748Y016517D01*
X020761Y016550D01*
X020778Y016581D01*
X020799Y016609D01*
X020822Y016636D01*
X020849Y016659D01*
X020877Y016680D01*
X020908Y016697D01*
X020941Y016710D01*
X020975Y016720D01*
X021010Y016726D01*
X021045Y016728D01*
X021080Y016726D01*
X021115Y016720D01*
X021149Y016710D01*
X021182Y016697D01*
X021213Y016680D01*
X021241Y016659D01*
X021268Y016636D01*
X021291Y016609D01*
X021312Y016581D01*
X021329Y016550D01*
X021342Y016517D01*
X021352Y016483D01*
X021358Y016448D01*
X021360Y016413D01*
X021358Y016378D01*
X021352Y016343D01*
X021342Y016309D01*
X021329Y016276D01*
X021312Y016245D01*
X021291Y016217D01*
X021268Y016190D01*
X021241Y016167D01*
X021213Y016146D01*
X021182Y016129D01*
X021149Y016116D01*
X021115Y016106D01*
X021080Y016100D01*
X021045Y016098D01*
X021010Y016100D01*
X020975Y016106D01*
X020941Y016116D01*
X020908Y016129D01*
X020877Y016146D01*
X020849Y016167D01*
X020822Y016190D01*
X020799Y016217D01*
X020778Y016245D01*
X020761Y016276D01*
X020748Y016309D01*
X020738Y016343D01*
X020732Y016378D01*
X020730Y016413D01*
D11*
X020145Y012381D03*
X019145Y012381D03*
X018145Y012381D03*
X017145Y012381D03*
X016145Y012381D03*
X015145Y012381D03*
X014145Y012381D03*
X013145Y012381D03*
X012145Y012381D03*
X011145Y012381D03*
X010145Y012381D03*
X009145Y012381D03*
X008145Y012381D03*
X007145Y012381D03*
X007145Y009381D03*
X008145Y009381D03*
X009145Y009381D03*
X010145Y009381D03*
X011145Y009381D03*
X012145Y009381D03*
X013145Y009381D03*
X014145Y009381D03*
X015145Y009381D03*
X016145Y009381D03*
X017145Y009381D03*
X018145Y009381D03*
X019145Y009381D03*
X020145Y009381D03*
D12*
X007187Y007831D03*
X005087Y011299D03*
X005087Y013220D03*
D13*
X005090Y009545D03*
X005090Y008639D03*
X005090Y007734D03*
D14*
X002767Y008639D03*
D15*
X005177Y006239D03*
X004399Y005602D03*
X003763Y004825D03*
X002985Y004188D03*
X005644Y004265D03*
X006422Y004901D03*
X007058Y005679D03*
X007836Y006315D03*
X009145Y007831D03*
X008145Y007931D03*
X010145Y007931D03*
X011145Y007831D03*
X012145Y007931D03*
X013145Y007831D03*
X014145Y007931D03*
X015145Y007831D03*
X016145Y007931D03*
X017145Y007831D03*
X018145Y007931D03*
X019145Y007831D03*
X018672Y006329D03*
X017895Y005693D03*
X017258Y004915D03*
X016480Y004278D03*
X018872Y004232D03*
X019650Y004869D03*
X020287Y005646D03*
X021064Y006283D03*
X021258Y008381D03*
X021358Y009381D03*
X021258Y010381D03*
X021358Y011381D03*
X021258Y012381D03*
X021358Y013381D03*
X019145Y013831D03*
X018145Y013931D03*
X017145Y013831D03*
X016145Y013931D03*
X015145Y013831D03*
X014145Y013931D03*
X013145Y013831D03*
X012145Y013931D03*
X011145Y013831D03*
X010145Y013931D03*
X009145Y013831D03*
X008145Y013931D03*
X008086Y020855D03*
X009086Y020955D03*
X009089Y021959D03*
X008089Y021859D03*
X007089Y021959D03*
X007086Y020955D03*
X006086Y020855D03*
X005086Y020955D03*
X004086Y020855D03*
X003086Y020955D03*
X003089Y021959D03*
X004089Y021859D03*
X005089Y021959D03*
X006089Y021859D03*
X010089Y021859D03*
X010086Y020855D03*
X013930Y020957D03*
X013935Y021959D03*
X014935Y021859D03*
X015935Y021959D03*
X016935Y021859D03*
X017935Y021959D03*
X017930Y020957D03*
X016930Y020857D03*
X015930Y020957D03*
X014930Y020857D03*
X018140Y018342D03*
X019141Y018342D03*
X019041Y017342D03*
X018040Y017342D03*
X018140Y016342D03*
X019141Y016342D03*
X019041Y015342D03*
X018040Y015342D03*
X020495Y017289D03*
X020495Y018429D03*
X020930Y020857D03*
X019930Y020957D03*
X019935Y021959D03*
X020935Y021859D03*
X018935Y021859D03*
X018930Y020857D03*
D16*
X003640Y013520D03*
X003640Y012771D03*
X003640Y011512D03*
X003640Y010764D03*
D17*
X008014Y015035D03*
X008801Y015035D03*
X007345Y016228D03*
X006557Y016228D03*
X006528Y017210D03*
X007315Y017210D03*
X006439Y018146D03*
X005652Y018146D03*
X011356Y010923D03*
X012144Y010923D03*
X014782Y010977D03*
X015569Y010977D03*
X018246Y010980D03*
X019034Y010980D03*
X015219Y006374D03*
X014431Y006374D03*
X014392Y004327D03*
X015179Y004327D03*
D18*
X006238Y007908D03*
X006238Y009168D03*
X002733Y013921D03*
X002733Y015181D03*
D19*
X010937Y016403D03*
X010937Y016659D03*
X010937Y016915D03*
X010937Y017171D03*
X010937Y017427D03*
X010937Y017683D03*
X010937Y017939D03*
X010937Y018195D03*
X010937Y018451D03*
X010937Y018707D03*
X010937Y018962D03*
X010937Y019218D03*
X010937Y019474D03*
X010937Y019730D03*
X013122Y019730D03*
X013122Y019474D03*
X013122Y019218D03*
X013122Y018962D03*
X013122Y018707D03*
X013122Y018451D03*
X013122Y018195D03*
X013122Y017939D03*
X013122Y017683D03*
X013122Y017427D03*
X013122Y017171D03*
X013122Y016915D03*
X013122Y016659D03*
X013122Y016403D03*
D20*
X012502Y016389D02*
X011557Y016389D01*
X011557Y016374D02*
X011557Y019760D01*
X012502Y019760D01*
X012502Y016374D01*
X011557Y016374D01*
X011557Y016437D02*
X012502Y016437D01*
X012502Y016486D02*
X011557Y016486D01*
X011557Y016534D02*
X012502Y016534D01*
X012502Y016583D02*
X011557Y016583D01*
X011557Y016631D02*
X012502Y016631D01*
X012502Y016680D02*
X011557Y016680D01*
X011557Y016728D02*
X012502Y016728D01*
X012502Y016777D02*
X011557Y016777D01*
X011557Y016826D02*
X012502Y016826D01*
X012502Y016874D02*
X011557Y016874D01*
X011557Y016923D02*
X012502Y016923D01*
X012502Y016971D02*
X011557Y016971D01*
X011557Y017020D02*
X012502Y017020D01*
X012502Y017068D02*
X011557Y017068D01*
X011557Y017117D02*
X012502Y017117D01*
X012502Y017165D02*
X011557Y017165D01*
X011557Y017214D02*
X012502Y017214D01*
X012502Y017262D02*
X011557Y017262D01*
X011557Y017311D02*
X012502Y017311D01*
X012502Y017360D02*
X011557Y017360D01*
X011557Y017408D02*
X012502Y017408D01*
X012502Y017457D02*
X011557Y017457D01*
X011557Y017505D02*
X012502Y017505D01*
X012502Y017554D02*
X011557Y017554D01*
X011557Y017602D02*
X012502Y017602D01*
X012502Y017651D02*
X011557Y017651D01*
X011557Y017699D02*
X012502Y017699D01*
X012502Y017748D02*
X011557Y017748D01*
X011557Y017796D02*
X012502Y017796D01*
X012502Y017845D02*
X011557Y017845D01*
X011557Y017894D02*
X012502Y017894D01*
X012502Y017942D02*
X011557Y017942D01*
X011557Y017991D02*
X012502Y017991D01*
X012502Y018039D02*
X011557Y018039D01*
X011557Y018088D02*
X012502Y018088D01*
X012502Y018136D02*
X011557Y018136D01*
X011557Y018185D02*
X012502Y018185D01*
X012502Y018233D02*
X011557Y018233D01*
X011557Y018282D02*
X012502Y018282D01*
X012502Y018330D02*
X011557Y018330D01*
X011557Y018379D02*
X012502Y018379D01*
X012502Y018427D02*
X011557Y018427D01*
X011557Y018476D02*
X012502Y018476D01*
X012502Y018525D02*
X011557Y018525D01*
X011557Y018573D02*
X012502Y018573D01*
X012502Y018622D02*
X011557Y018622D01*
X011557Y018670D02*
X012502Y018670D01*
X012502Y018719D02*
X011557Y018719D01*
X011557Y018767D02*
X012502Y018767D01*
X012502Y018816D02*
X011557Y018816D01*
X011557Y018864D02*
X012502Y018864D01*
X012502Y018913D02*
X011557Y018913D01*
X011557Y018961D02*
X012502Y018961D01*
X012502Y019010D02*
X011557Y019010D01*
X011557Y019059D02*
X012502Y019059D01*
X012502Y019107D02*
X011557Y019107D01*
X011557Y019156D02*
X012502Y019156D01*
X012502Y019204D02*
X011557Y019204D01*
X011557Y019253D02*
X012502Y019253D01*
X012502Y019301D02*
X011557Y019301D01*
X011557Y019350D02*
X012502Y019350D01*
X012502Y019398D02*
X011557Y019398D01*
X011557Y019447D02*
X012502Y019447D01*
X012502Y019495D02*
X011557Y019495D01*
X011557Y019544D02*
X012502Y019544D01*
X012502Y019593D02*
X011557Y019593D01*
X011557Y019641D02*
X012502Y019641D01*
X012502Y019690D02*
X011557Y019690D01*
X011557Y019738D02*
X012502Y019738D01*
D21*
X012266Y019484D03*
X011793Y019051D03*
X012266Y018618D03*
X011793Y018224D03*
X012266Y017752D03*
X011793Y017358D03*
X012266Y016964D03*
X011793Y016610D03*
D22*
X008447Y016334D03*
D23*
X010691Y006374D03*
X011187Y006374D03*
X011687Y006374D03*
X012187Y006374D03*
X012687Y006374D03*
X013187Y006374D03*
X013687Y006374D03*
X013683Y004405D03*
X013187Y004405D03*
X012687Y004405D03*
X012187Y004405D03*
X011687Y004405D03*
X011187Y004405D03*
X010687Y004405D03*
D24*
X004195Y018106D03*
X003408Y018106D03*
D25*
X005217Y017419D02*
X005203Y017349D01*
X005185Y017279D01*
X005164Y017211D01*
X005139Y017143D01*
X005112Y017077D01*
X005081Y017013D01*
X005047Y016949D01*
X005011Y016888D01*
X004971Y016828D01*
X004929Y016770D01*
X004883Y016715D01*
X004836Y016661D01*
X004785Y016610D01*
X005101Y016138D02*
X005139Y016121D01*
X005177Y016109D01*
X005217Y016100D01*
X005258Y016095D01*
X005298Y016093D01*
X005339Y016095D01*
X005379Y016101D01*
X005419Y016111D01*
X005458Y016124D01*
X005495Y016141D01*
X005530Y016161D01*
X005564Y016184D01*
X005595Y016210D01*
X005624Y016239D01*
X005650Y016270D01*
X005673Y016304D01*
X005693Y016340D01*
X005709Y016377D01*
X005722Y016416D01*
X005839Y016602D02*
X006528Y017210D01*
X005652Y018145D02*
X005603Y018118D01*
X005557Y018087D01*
X005512Y018054D01*
X005470Y018017D01*
X005431Y017977D01*
X005395Y017935D01*
X005361Y017890D01*
X005331Y017844D01*
X005304Y017795D01*
X005281Y017744D01*
X005261Y017692D01*
X005245Y017639D01*
X005232Y017585D01*
X005223Y017530D01*
X005218Y017475D01*
X005217Y017419D01*
X004786Y016610D02*
X004790Y016564D01*
X004797Y016519D01*
X004809Y016475D01*
X004824Y016431D01*
X004843Y016389D01*
X004865Y016349D01*
X004891Y016311D01*
X004919Y016275D01*
X004951Y016242D01*
X004985Y016211D01*
X005021Y016183D01*
X005060Y016159D01*
X005101Y016137D01*
X006037Y016210D02*
X006557Y016228D01*
X005839Y016602D02*
X005813Y016576D01*
X005788Y016548D01*
X005767Y016517D01*
X005749Y016485D01*
X005734Y016451D01*
X005722Y016416D01*
X007345Y016228D02*
X008447Y016334D01*
X008237Y017877D02*
X008165Y017888D01*
X008092Y017895D01*
X008020Y017899D01*
X007947Y017899D01*
X007874Y017895D01*
X007817Y017910D02*
X007807Y017902D01*
X007796Y017895D01*
X008201Y017518D02*
X007315Y017210D01*
X006400Y017713D02*
X006385Y017739D01*
X006372Y017766D01*
X006362Y017795D01*
X006356Y017825D01*
X006352Y017855D01*
X006352Y017885D01*
X006356Y017915D01*
X006362Y017945D01*
X006372Y017974D01*
X006385Y018001D01*
X006400Y018027D01*
X006439Y018146D01*
X008423Y017019D02*
X008869Y017259D01*
X010313Y017437D01*
X010937Y017427D01*
X010937Y016915D02*
X010526Y016913D01*
X009787Y016843D01*
X009471Y017083D02*
X008959Y016925D01*
X010187Y015943D02*
X010463Y016401D01*
X010937Y016403D01*
X010937Y016659D02*
X010297Y016642D01*
X009943Y017161D02*
X009863Y017157D01*
X009783Y017149D01*
X009704Y017137D01*
X009625Y017123D01*
X009547Y017104D01*
X009470Y017082D01*
X010604Y017937D02*
X010937Y017939D01*
X010937Y018195D02*
X010616Y018197D01*
X010608Y018453D02*
X010937Y018451D01*
X013368Y013342D02*
X013148Y013238D01*
X012923Y013144D01*
X012695Y013060D01*
X012463Y012987D01*
X012228Y012923D01*
X011990Y012869D01*
X011990Y012870D02*
X011951Y012860D01*
X011913Y012847D01*
X011876Y012830D01*
X011841Y012810D01*
X011808Y012787D01*
X011777Y012761D01*
X011749Y012732D01*
X011723Y012701D01*
X011701Y012667D01*
X011681Y012632D01*
X011665Y012595D01*
X011653Y012557D01*
X011643Y012517D01*
X011638Y012477D01*
X011636Y012437D01*
X011636Y012201D01*
X011636Y012200D02*
X011630Y012161D01*
X011620Y012123D01*
X011607Y012086D01*
X011591Y012050D01*
X011571Y012016D01*
X011549Y011984D01*
X011523Y011954D01*
X011495Y011926D01*
X011464Y011902D01*
X011431Y011880D01*
X011396Y011861D01*
X011360Y011846D01*
X012344Y011807D02*
X012379Y011817D01*
X012412Y011831D01*
X012444Y011848D01*
X012474Y011868D01*
X012503Y011890D01*
X012529Y011915D01*
X012552Y011943D01*
X012573Y011972D01*
X012592Y012003D01*
X012607Y012036D01*
X012619Y012070D01*
X012628Y012105D01*
X012634Y012141D01*
X012636Y012177D01*
X012636Y012468D02*
X012637Y012507D01*
X012642Y012546D01*
X012650Y012584D01*
X012661Y012621D01*
X012676Y012657D01*
X012694Y012692D01*
X012716Y012725D01*
X012740Y012755D01*
X012766Y012784D01*
X012796Y012809D01*
X012827Y012832D01*
X012861Y012853D01*
X012896Y012870D01*
X013482Y017685D02*
X013681Y017683D01*
X013880Y017673D01*
X013482Y017685D02*
X013122Y017683D01*
X013122Y017939D02*
X013435Y017937D01*
X013482Y018193D02*
X013122Y018195D01*
X013122Y018451D02*
X013478Y018453D01*
X013506Y018709D02*
X013122Y018707D01*
X013122Y018962D02*
X013463Y018960D01*
X013459Y019220D02*
X013122Y019218D01*
X013122Y019474D02*
X013498Y019472D01*
X013447Y019732D02*
X013122Y019730D01*
X013486Y015625D02*
X013277Y015596D01*
X013068Y015576D01*
X012857Y015565D01*
X012647Y015563D01*
X012436Y015570D01*
X012226Y015586D01*
X015967Y014681D02*
X016021Y014818D01*
X016069Y014957D01*
X016110Y015098D01*
X016144Y015242D01*
X016171Y015386D01*
X016191Y015532D01*
X016205Y015679D01*
X016211Y015826D01*
X016209Y015974D01*
X016201Y016121D01*
X016186Y016267D01*
X016164Y016413D01*
X016321Y016728D02*
X018140Y016342D01*
X018349Y015768D02*
X019041Y015342D01*
X018348Y015767D02*
X018311Y015788D01*
X018272Y015805D01*
X018231Y015819D01*
X018190Y015829D01*
X018147Y015835D01*
X018105Y015838D01*
X018040Y015342D02*
X017624Y014236D01*
X017620Y014110D02*
X017663Y013701D01*
X017621Y014110D02*
X017615Y014135D01*
X017612Y014160D01*
X017613Y014186D01*
X017617Y014211D01*
X017624Y014236D01*
X017664Y013701D02*
X017672Y013648D01*
X017683Y013595D01*
X017698Y013544D01*
X017717Y013494D01*
X017739Y013445D01*
X017764Y013398D01*
X017793Y013353D01*
X017825Y013310D01*
X017860Y013269D01*
X017898Y013231D01*
X017938Y013196D01*
X017981Y013164D01*
X018026Y013135D01*
X018073Y013109D01*
X018122Y013086D01*
X018172Y013067D01*
X018171Y013067D02*
X018220Y013048D01*
X018267Y013026D01*
X018313Y013001D01*
X018357Y012972D01*
X018398Y012941D01*
X018437Y012906D01*
X018473Y012869D01*
X018506Y012829D01*
X018537Y012786D01*
X018564Y012742D01*
X018588Y012696D01*
X018609Y012648D01*
X018625Y012598D01*
X018639Y012548D01*
X018648Y012497D01*
X018654Y012445D01*
X018656Y012393D01*
X018654Y012341D01*
X018649Y012289D01*
X018639Y012238D01*
X018626Y012187D01*
X018609Y012138D01*
X018589Y012090D01*
X018565Y012044D01*
X018145Y012381D02*
X018139Y012292D01*
X018129Y012203D01*
X018115Y012114D01*
X018097Y012026D01*
X018074Y011940D01*
X018048Y011854D01*
X018017Y011770D01*
X017982Y011687D01*
X017943Y011606D01*
X017901Y011527D01*
X017855Y011450D01*
X017805Y011376D01*
X017751Y011304D01*
X017694Y011234D01*
X017634Y011168D01*
X017571Y011104D01*
X017505Y011044D01*
X017436Y010986D01*
X017364Y010933D01*
X017290Y010882D01*
X017213Y010836D01*
X017134Y010793D01*
X017054Y010753D01*
X016971Y010718D01*
X016887Y010687D01*
X016802Y010660D01*
X016715Y010637D01*
X016627Y010618D01*
X016539Y010603D01*
X016450Y010593D01*
X016360Y010587D01*
X016360Y010586D02*
X016037Y010602D01*
X016557Y009957D02*
X019943Y009957D01*
X018247Y010980D02*
X018258Y011104D01*
X018276Y011227D01*
X018300Y011349D01*
X018330Y011470D01*
X018366Y011589D01*
X018407Y011706D01*
X018455Y011821D01*
X018507Y011933D01*
X018565Y012043D01*
X014471Y015154D02*
X014546Y015371D01*
X014628Y015587D01*
X014628Y015586D02*
X014793Y015996D01*
X015061Y016217D02*
X015081Y016173D01*
X015097Y016128D01*
X015111Y016082D01*
X015121Y016036D01*
X015128Y015988D01*
X015131Y015941D01*
X015132Y015893D01*
X015129Y015845D01*
X015123Y015798D01*
X015113Y015751D01*
X015101Y015705D01*
X015376Y015665D02*
X015183Y014992D01*
X014864Y014839D02*
X014885Y014805D01*
X014909Y014773D01*
X014935Y014744D01*
X014965Y014717D01*
X014996Y014693D01*
X015030Y014672D01*
X015066Y014655D01*
X015103Y014640D01*
X015141Y014630D01*
X015180Y014623D01*
X015220Y014619D01*
X015260Y014620D01*
X015299Y014624D01*
X015338Y014631D01*
X015376Y014643D01*
X015413Y014658D01*
X015448Y014676D01*
X015482Y014697D01*
X015513Y014722D01*
X015542Y014749D01*
X015568Y014779D01*
X015591Y014811D01*
X015612Y014845D01*
X015629Y014881D01*
X015642Y014918D01*
X015652Y014957D01*
X015967Y014681D02*
X015145Y013831D01*
X013620Y014125D02*
X013604Y014212D01*
X013591Y014300D01*
X013583Y014388D01*
X013579Y014476D01*
X013578Y014564D01*
X013583Y014653D01*
X013591Y014740D01*
X013603Y014828D01*
X013620Y014915D01*
X013640Y015001D01*
X013665Y015086D01*
X013693Y015169D01*
X013726Y015251D01*
X013762Y015332D01*
X013802Y015411D01*
X013846Y015487D01*
X013893Y015562D01*
X013944Y015634D01*
X013998Y015704D01*
X015573Y016649D02*
X015530Y016729D01*
X015483Y016806D01*
X015433Y016882D01*
X015379Y016954D01*
X015321Y017024D01*
X015260Y017091D01*
X015196Y017155D01*
X015129Y017216D01*
X015059Y017274D01*
X014986Y017328D01*
X014911Y017378D01*
X014834Y017425D01*
X014754Y017468D01*
X014672Y017508D01*
X014589Y017543D01*
X014504Y017574D01*
X014417Y017601D01*
X014329Y017624D01*
X014241Y017642D01*
X014151Y017656D01*
X014061Y017666D01*
X013971Y017672D01*
X013880Y017673D01*
X013880Y017161D02*
X013122Y017171D01*
X013122Y016915D02*
X013518Y016909D01*
X013577Y016661D02*
X013122Y016659D01*
X013122Y016403D02*
X013069Y016292D01*
X014903Y015271D02*
X014950Y015354D01*
X014993Y015439D01*
X015032Y015526D01*
X015068Y015614D01*
X015100Y015704D01*
X014904Y015272D02*
X014884Y015236D01*
X014868Y015198D01*
X014855Y015160D01*
X014844Y015120D01*
X014837Y015080D01*
X014834Y015039D01*
X014833Y014998D01*
X014836Y014958D01*
X014842Y014917D01*
X014852Y014877D01*
X014865Y014839D01*
X013841Y015469D02*
X013867Y015520D01*
X013895Y015569D01*
X013927Y015616D01*
X013961Y015662D01*
X013998Y015705D01*
X015730Y015704D02*
X015738Y015779D01*
X015743Y015853D01*
X015745Y015928D01*
X015743Y016003D01*
X015738Y016078D01*
X015729Y016152D01*
X015717Y016226D01*
X015701Y016299D01*
X015682Y016371D01*
X015659Y016442D01*
X015634Y016513D01*
X015605Y016582D01*
X015572Y016649D01*
X015218Y016610D02*
X015255Y016554D01*
X015287Y016497D01*
X015317Y016438D01*
X015343Y016377D01*
X015365Y016315D01*
X015383Y016252D01*
X015398Y016188D01*
X015409Y016123D01*
X015416Y016057D01*
X015419Y015991D01*
X015418Y015925D01*
X015413Y015859D01*
X015405Y015794D01*
X015392Y015729D01*
X015376Y015665D01*
X015573Y016650D02*
X015631Y016675D01*
X015691Y016697D01*
X015752Y016715D01*
X015814Y016730D01*
X015877Y016742D01*
X015940Y016751D01*
X016004Y016755D01*
X016068Y016757D01*
X016131Y016755D01*
X016195Y016750D01*
X016258Y016741D01*
X016321Y016729D01*
X017632Y015921D02*
X017697Y015900D01*
X017764Y015882D01*
X017831Y015867D01*
X017899Y015855D01*
X017967Y015846D01*
X018035Y015841D01*
X018104Y015838D01*
X013841Y015468D02*
X013827Y015434D01*
X013815Y015399D01*
X013807Y015364D01*
X013803Y015328D01*
X013801Y015291D01*
X013803Y015254D01*
X013807Y015218D01*
X013815Y015183D01*
X013827Y015148D01*
X013841Y015114D01*
X014116Y016846D02*
X014043Y016867D01*
X013969Y016883D01*
X013895Y016897D01*
X013820Y016906D01*
X013744Y016912D01*
X013669Y016915D01*
X013593Y016914D01*
X013518Y016909D01*
X014116Y016846D02*
X014159Y016831D01*
X014200Y016813D01*
X014239Y016791D01*
X014277Y016765D01*
X014312Y016737D01*
X014345Y016706D01*
X014375Y016672D01*
X014402Y016636D01*
X014426Y016597D01*
X014446Y016557D01*
X014463Y016515D01*
X014476Y016472D01*
X014486Y016428D01*
X014492Y016383D01*
X014494Y016338D01*
X014824Y017083D02*
X014776Y017129D01*
X014724Y017173D01*
X014670Y017213D01*
X014614Y017251D01*
X014556Y017285D01*
X014496Y017315D01*
X014435Y017343D01*
X014372Y017366D01*
X014307Y017386D01*
X014242Y017402D01*
X014176Y017415D01*
X014109Y017423D01*
X014042Y017428D01*
X013974Y017429D01*
X013525Y016059D02*
X013476Y016021D01*
X013426Y015986D01*
X013373Y015954D01*
X013319Y015924D01*
X013263Y015898D01*
X013206Y015875D01*
X013147Y015856D01*
X013088Y015840D01*
X013027Y015827D01*
X012966Y015817D01*
X012905Y015812D01*
X012843Y015809D01*
X012782Y015810D01*
X012720Y015815D01*
X012659Y015823D01*
X013999Y015704D02*
X014035Y015744D01*
X014068Y015787D01*
X014099Y015832D01*
X014127Y015879D01*
X014151Y015927D01*
X014173Y015977D01*
X014192Y016028D01*
X014207Y016080D01*
X014219Y016133D01*
X014228Y016186D01*
X014233Y016240D01*
X014235Y016295D01*
X014746Y016768D02*
X014711Y016814D01*
X014673Y016859D01*
X014632Y016901D01*
X014588Y016940D01*
X014542Y016977D01*
X014494Y017010D01*
X014445Y017041D01*
X014393Y017068D01*
X014339Y017093D01*
X014285Y017114D01*
X014229Y017131D01*
X014172Y017145D01*
X014114Y017156D01*
X014056Y017162D01*
X013997Y017166D01*
X013939Y017165D01*
X013880Y017161D01*
X013801Y016216D02*
X013526Y016059D01*
X013754Y016661D02*
X013797Y016659D01*
X013840Y016653D01*
X013882Y016644D01*
X013923Y016631D01*
X013963Y016614D01*
X014001Y016594D01*
X014038Y016571D01*
X014072Y016545D01*
X014104Y016516D01*
X014133Y016484D01*
X014160Y016450D01*
X014183Y016414D01*
X014203Y016376D01*
X014220Y016336D01*
X014234Y016295D01*
X014471Y015153D02*
X014458Y015119D01*
X014441Y015086D01*
X014420Y015055D01*
X014397Y015027D01*
X014370Y015002D01*
X014341Y014979D01*
X014310Y014960D01*
X014276Y014944D01*
X014242Y014932D01*
X014206Y014924D01*
X014169Y014920D01*
X014132Y014919D01*
X014096Y014923D01*
X014060Y014931D01*
X014025Y014942D01*
X013991Y014957D01*
X013960Y014976D01*
X013930Y014998D01*
X013903Y015023D01*
X013879Y015051D01*
X013858Y015081D01*
X013841Y015114D01*
X013651Y013846D02*
X013653Y013803D01*
X013651Y013759D01*
X013645Y013715D01*
X013636Y013673D01*
X013623Y013631D01*
X013607Y013590D01*
X013587Y013551D01*
X013564Y013514D01*
X013538Y013479D01*
X013509Y013446D01*
X013477Y013416D01*
X013443Y013388D01*
X013406Y013364D01*
X013368Y013343D01*
X015219Y016610D02*
X015128Y016734D01*
X015032Y016854D01*
X014931Y016971D01*
X014825Y017082D01*
X014494Y016338D02*
X014492Y016260D01*
X014487Y016181D01*
X014479Y016103D01*
X014466Y016025D01*
X014450Y015948D01*
X014431Y015872D01*
X014408Y015797D01*
X014382Y015723D01*
X014352Y015650D01*
X014319Y015579D01*
X014283Y015509D01*
X014243Y015441D01*
X014201Y015375D01*
X014155Y015310D01*
X012669Y020243D02*
X012522Y020263D01*
X012375Y020276D01*
X012228Y020283D01*
X012080Y020283D01*
X011932Y020277D01*
X011785Y020263D01*
X011639Y020243D01*
X011494Y020217D01*
X011205Y020604D02*
X011102Y020543D01*
X010592Y019472D02*
X010531Y019473D01*
X010471Y019479D01*
X010411Y019488D01*
X010351Y019500D01*
X010293Y019517D01*
X010236Y019537D01*
X010180Y019561D01*
X010125Y019588D01*
X010073Y019618D01*
X010022Y019652D01*
X009974Y019689D01*
X009928Y019729D01*
X009885Y019772D01*
X009845Y019817D01*
X009807Y019865D01*
X009772Y019915D01*
X009741Y019967D01*
X009713Y020021D01*
X009689Y020076D01*
X009668Y020134D01*
X009651Y020192D01*
X009637Y020251D01*
X009627Y020311D01*
X007581Y020507D02*
X007573Y020582D01*
X007569Y020657D01*
X007570Y020732D01*
X007573Y020806D01*
X007581Y020881D01*
X007593Y020955D01*
X009510Y016019D02*
X009261Y015925D01*
X009007Y015842D01*
X008749Y015772D01*
X008488Y015715D01*
X008225Y015670D01*
X007960Y015639D01*
X007693Y015620D01*
X007426Y015614D01*
X007160Y015621D01*
X006893Y015641D01*
X006628Y015674D01*
X006365Y015720D01*
X006105Y015779D01*
X005848Y015850D01*
X005594Y015934D01*
X005345Y016030D01*
X005101Y016137D01*
X005573Y015508D02*
X005641Y015511D01*
X005709Y015510D01*
X005778Y015505D01*
X005846Y015496D01*
X005913Y015483D01*
X005979Y015466D01*
X006045Y015446D01*
X006109Y015421D01*
X006171Y015393D01*
X006232Y015362D01*
X006291Y015327D01*
X006348Y015288D01*
X006402Y015246D01*
X006454Y015202D01*
X006503Y015154D01*
X006550Y015104D01*
X006593Y015050D01*
X006633Y014995D01*
X006670Y014937D01*
X006703Y014877D01*
X006733Y014816D01*
X006759Y014752D01*
X006782Y014688D01*
X006801Y014622D01*
X006816Y014555D01*
X006827Y014487D01*
X006834Y014419D01*
X006837Y014351D01*
X006836Y014282D01*
X006831Y014214D01*
X006822Y014146D01*
X006809Y014079D01*
X006793Y014012D01*
X007420Y014668D02*
X008014Y015035D01*
X013620Y014126D02*
X013638Y013986D01*
X013652Y013846D01*
X006793Y014012D02*
X006719Y013765D01*
X006654Y013515D01*
X006597Y013264D01*
X005087Y013220D02*
X003640Y013520D01*
X012637Y012469D02*
X012637Y012177D01*
X010416Y010232D02*
X010469Y010132D01*
X010528Y010035D01*
X010590Y009941D01*
X010657Y009850D01*
X010729Y009762D01*
X010805Y009678D01*
X010884Y009598D01*
X010968Y009521D01*
X011055Y009449D01*
X011145Y009381D01*
X010022Y010941D02*
X009925Y010903D01*
X009829Y010861D01*
X009736Y010815D01*
X009645Y010765D01*
X009556Y010711D01*
X009470Y010652D01*
X009386Y010590D01*
X009306Y010524D01*
X009228Y010455D01*
X009154Y010382D01*
X007660Y010389D02*
X007638Y010314D01*
X007619Y010238D01*
X007603Y010161D01*
X007592Y010084D01*
X007584Y010006D01*
X007580Y009928D01*
X007579Y009850D01*
X007582Y009772D01*
X007589Y009694D01*
X007600Y009616D01*
X007614Y009539D01*
X007632Y009463D01*
X007653Y009387D01*
X007678Y009313D01*
X007707Y009240D01*
X007739Y009169D01*
X007738Y009169D02*
X007763Y009122D01*
X007790Y009076D01*
X007820Y009032D01*
X007854Y008991D01*
X007889Y008952D01*
X007927Y008915D01*
X007968Y008880D01*
X008011Y008849D01*
X008055Y008820D01*
X008102Y008794D01*
X008150Y008772D01*
X008199Y008752D01*
X008250Y008736D01*
X008144Y009380D02*
X008104Y009411D01*
X008067Y009445D01*
X008032Y009481D01*
X008000Y009520D01*
X007971Y009562D01*
X007945Y009605D01*
X007922Y009650D01*
X007903Y009696D01*
X007887Y009744D01*
X007875Y009793D01*
X007866Y009843D01*
X007861Y009893D01*
X007860Y009944D01*
X007863Y009994D01*
X007869Y010044D01*
X007879Y010094D01*
X007893Y010142D01*
X007910Y010190D01*
X007931Y010236D01*
X007955Y010280D01*
X007983Y010322D01*
X008013Y010363D01*
X008047Y010400D01*
X008083Y010436D01*
X008121Y010468D01*
X008162Y010498D01*
X008205Y010524D01*
X008250Y010547D01*
X006518Y012358D02*
X006516Y012540D01*
X006523Y012722D01*
X006539Y012904D01*
X006564Y013084D01*
X006597Y013263D01*
X005087Y011299D02*
X003640Y010764D01*
X007659Y010390D02*
X007808Y010881D01*
X007939Y011377D01*
X008051Y011877D01*
X008144Y012381D01*
X010651Y017161D02*
X010794Y017169D01*
X010937Y017171D01*
X010937Y018707D02*
X010577Y018705D01*
X010624Y018960D02*
X010937Y018962D01*
X010937Y019218D02*
X010537Y019220D01*
X010593Y019472D02*
X010937Y019474D01*
X010937Y019730D02*
X010604Y019732D01*
X010561Y019734D01*
X010517Y019740D01*
X010475Y019749D01*
X010434Y019763D01*
X010393Y019779D01*
X010355Y019799D01*
X010318Y019822D01*
X010283Y019848D01*
X010251Y019878D01*
X010221Y019909D01*
X010194Y019944D01*
X010171Y019980D01*
X010150Y020018D01*
X010133Y020058D01*
X010119Y020099D01*
X010109Y020142D01*
X010102Y020185D01*
X010099Y020228D01*
X010100Y020271D01*
X009604Y021046D02*
X009610Y021107D01*
X009618Y021168D01*
X009631Y021228D01*
X009647Y021288D01*
X009667Y021346D01*
X009690Y021403D01*
X009716Y021459D01*
X009746Y021513D01*
X009779Y021565D01*
X009815Y021614D01*
X009854Y021662D01*
X009896Y021707D01*
X009941Y021749D01*
X009988Y021789D01*
X010037Y021826D01*
X010089Y021860D01*
X008085Y020855D02*
X008127Y020745D01*
X008173Y020638D01*
X008225Y020532D01*
X008281Y020430D01*
X008343Y020330D01*
X008409Y020233D01*
X008479Y020140D01*
X008554Y020050D01*
X008634Y019964D01*
X008717Y019881D01*
X008804Y019803D01*
X008895Y019729D01*
X008989Y019659D01*
X009087Y019595D01*
X009187Y019534D01*
X009290Y019479D01*
X009396Y019429D01*
X009504Y019383D01*
X009614Y019343D01*
X009726Y019309D01*
X009839Y019280D01*
X009954Y019256D01*
X010070Y019237D01*
X010186Y019225D01*
X010303Y019218D01*
X010420Y019216D01*
X010537Y019220D01*
X011205Y020604D02*
X011286Y020635D01*
X011368Y020662D01*
X011452Y020685D01*
X011536Y020704D01*
X011621Y020719D01*
X011707Y020731D01*
X011793Y020738D01*
X011879Y020741D01*
X011966Y020740D01*
X012052Y020735D01*
X012138Y020726D01*
X012224Y020713D01*
X012308Y020696D01*
X012392Y020675D01*
X009628Y020311D02*
X009611Y020458D01*
X009600Y020604D01*
X009595Y020752D01*
X009597Y020899D01*
X009604Y021046D01*
X008089Y021859D02*
X008034Y021815D01*
X007981Y021767D01*
X007932Y021717D01*
X007885Y021664D01*
X007841Y021608D01*
X007800Y021551D01*
X007763Y021490D01*
X007729Y021428D01*
X007698Y021365D01*
X007671Y021299D01*
X007648Y021232D01*
X007628Y021164D01*
X007613Y021095D01*
X007601Y021026D01*
X007593Y020955D01*
X007581Y020508D02*
X007600Y020461D01*
X007621Y020416D01*
X007647Y020373D01*
X007675Y020332D01*
X007706Y020293D01*
X007741Y020257D01*
X007778Y020223D01*
X007817Y020193D01*
X006089Y021860D02*
X006039Y021833D01*
X005992Y021802D01*
X005946Y021769D01*
X005902Y021733D01*
X005861Y021694D01*
X005823Y021652D01*
X005787Y021608D01*
X005754Y021562D01*
X005724Y021514D01*
X005697Y021465D01*
X005673Y021413D01*
X005653Y021360D01*
X005636Y021306D01*
X005622Y021251D01*
X005612Y021196D01*
X005573Y020705D02*
X005574Y020658D01*
X005579Y020612D01*
X005588Y020566D01*
X005600Y020521D01*
X005615Y020477D01*
X005634Y020434D01*
X005656Y020393D01*
X005682Y020353D01*
X005710Y020316D01*
X005741Y020281D01*
X005774Y020249D01*
X005810Y020219D01*
X005849Y020193D01*
X010101Y020272D02*
X010106Y020417D01*
X010105Y020563D01*
X010098Y020709D01*
X010086Y020855D01*
X010624Y018961D02*
X010449Y018964D01*
X010274Y018975D01*
X010100Y018995D01*
X009927Y019022D01*
X009755Y019058D01*
X009585Y019101D01*
X009417Y019152D01*
X009252Y019212D01*
X009090Y019278D01*
X008931Y019353D01*
X008776Y019434D01*
X008624Y019523D01*
X008477Y019618D01*
X008335Y019721D01*
X008197Y019830D01*
X008065Y019945D01*
X007938Y020066D01*
X007818Y020193D01*
X003605Y020469D02*
X003596Y020584D01*
X003591Y020700D01*
X003592Y020815D01*
X003598Y020931D01*
X003608Y021046D01*
X003624Y021160D01*
X003645Y021274D01*
X003644Y021274D02*
X003659Y021330D01*
X003678Y021385D01*
X003700Y021439D01*
X003726Y021491D01*
X003755Y021542D01*
X003787Y021590D01*
X003822Y021637D01*
X003860Y021681D01*
X003901Y021722D01*
X003945Y021761D01*
X003991Y021797D01*
X004039Y021830D01*
X004089Y021859D01*
X003604Y020468D02*
X003612Y020414D01*
X003624Y020360D01*
X003638Y020307D01*
X003657Y020256D01*
X003678Y020205D01*
X003702Y020156D01*
X003730Y020109D01*
X003760Y020063D01*
X003794Y020020D01*
X003830Y019978D01*
X003868Y019939D01*
X003909Y019903D01*
X003953Y019869D01*
X003998Y019838D01*
X005572Y020705D02*
X005591Y020868D01*
X005604Y021032D01*
X005611Y021195D01*
X008447Y016334D02*
X008760Y016352D01*
X009072Y016384D01*
X009382Y016429D01*
X009690Y016487D01*
X009996Y016558D01*
X010298Y016641D01*
X010463Y016402D02*
X010393Y016400D01*
X010323Y016394D01*
X010253Y016385D01*
X010185Y016373D01*
X010116Y016357D01*
X010049Y016337D01*
X009983Y016314D01*
X009918Y016288D01*
X009854Y016259D01*
X009792Y016227D01*
X009731Y016191D01*
X009673Y016153D01*
X009616Y016111D01*
X009562Y016067D01*
X009510Y016020D01*
X009982Y014823D02*
X010534Y014957D01*
X009746Y015074D02*
X009713Y015056D01*
X009681Y015034D01*
X009652Y015009D01*
X009625Y014982D01*
X009601Y014952D01*
X009580Y014920D01*
X009561Y014886D01*
X009546Y014851D01*
X009535Y014814D01*
X009527Y014777D01*
X009522Y014739D01*
X009521Y014701D01*
X009524Y014662D01*
X009530Y014624D01*
X009540Y014587D01*
X009553Y014551D01*
X009569Y014517D01*
X009589Y014484D01*
X010928Y011414D02*
X010874Y011396D01*
X010822Y011375D01*
X010771Y011350D01*
X010722Y011322D01*
X010675Y011290D01*
X010630Y011256D01*
X010588Y011218D01*
X010549Y011178D01*
X010512Y011135D01*
X010478Y011090D01*
X010447Y011043D01*
X010419Y010994D01*
X010395Y010943D01*
X010374Y010890D01*
X010357Y010836D01*
X010344Y010781D01*
X010334Y010726D01*
X010328Y010670D01*
X010326Y010613D01*
X010328Y010557D01*
X010333Y010501D01*
X010342Y010445D01*
X010355Y010390D01*
X010372Y010336D01*
X010392Y010283D01*
X010415Y010232D01*
X011557Y015863D02*
X011833Y015871D01*
X012109Y015867D01*
X012385Y015851D01*
X012660Y015823D01*
X014353Y020586D02*
X014372Y020675D01*
X014396Y020763D01*
X014424Y020850D01*
X014931Y020856D02*
X014950Y020805D01*
X014966Y020752D01*
X014977Y020698D01*
X014985Y020644D01*
X014989Y020589D01*
X014990Y020534D01*
X014986Y020479D01*
X014978Y020424D01*
X014967Y020370D01*
X014951Y020317D01*
X014932Y020266D01*
X014910Y020215D01*
X014883Y020167D01*
X014854Y020120D01*
X014821Y020076D01*
X014785Y020034D01*
X014746Y019995D01*
X014451Y021051D02*
X014456Y021112D01*
X014465Y021173D01*
X014478Y021233D01*
X014494Y021292D01*
X014514Y021350D01*
X014537Y021406D01*
X014564Y021461D01*
X014594Y021515D01*
X014627Y021566D01*
X014663Y021616D01*
X014702Y021663D01*
X014744Y021708D01*
X014788Y021750D01*
X014835Y021789D01*
X014884Y021826D01*
X014935Y021859D01*
X016930Y020857D02*
X016923Y020788D01*
X016911Y020719D01*
X016896Y020651D01*
X016878Y020584D01*
X016855Y020517D01*
X016830Y020453D01*
X016800Y020389D01*
X016768Y020328D01*
X016732Y020268D01*
X016693Y020210D01*
X016651Y020155D01*
X016606Y020101D01*
X016558Y020051D01*
X016507Y020002D01*
X016454Y019957D01*
X016399Y019915D01*
X016341Y019875D01*
X016282Y019839D01*
X016376Y020653D02*
X016396Y020690D01*
X016413Y020730D01*
X016426Y020770D01*
X016436Y020812D01*
X016441Y020854D01*
X016443Y020897D01*
X018092Y019917D02*
X018167Y019960D01*
X018239Y020005D01*
X018309Y020055D01*
X018377Y020107D01*
X018442Y020162D01*
X018505Y020221D01*
X018565Y020282D01*
X018622Y020346D01*
X018675Y020412D01*
X018726Y020481D01*
X018774Y020552D01*
X018818Y020626D01*
X018859Y020701D01*
X018897Y020778D01*
X018930Y020857D01*
X020428Y020835D02*
X020436Y020900D01*
X020441Y020966D01*
X020444Y021032D01*
X020444Y021098D01*
X020427Y020835D02*
X020421Y020800D01*
X020411Y020765D01*
X020399Y020732D01*
X020384Y020699D01*
X020366Y020668D01*
X020345Y020639D01*
X020322Y020612D01*
X020297Y020587D01*
X018935Y021859D02*
X018883Y021817D01*
X018833Y021772D01*
X018786Y021725D01*
X018741Y021675D01*
X018698Y021623D01*
X018659Y021569D01*
X018623Y021513D01*
X018589Y021455D01*
X018559Y021395D01*
X018532Y021334D01*
X018508Y021271D01*
X018488Y021208D01*
X018471Y021143D01*
X018458Y021077D01*
X018448Y021011D01*
X018442Y020944D01*
X018439Y020877D01*
X018437Y020841D01*
X018431Y020804D01*
X018422Y020769D01*
X018410Y020734D01*
X018395Y020700D01*
X018377Y020668D01*
X018356Y020638D01*
X018333Y020610D01*
X016935Y021859D02*
X016883Y021819D01*
X016832Y021776D01*
X016785Y021730D01*
X016740Y021682D01*
X016697Y021632D01*
X016658Y021579D01*
X016621Y021524D01*
X016588Y021467D01*
X016558Y021408D01*
X016531Y021348D01*
X016508Y021286D01*
X016488Y021223D01*
X016472Y021159D01*
X016459Y021094D01*
X016450Y021029D01*
X016445Y020963D01*
X016443Y020897D01*
X019707Y019799D02*
X019838Y019869D01*
X019966Y019944D01*
X020091Y020025D01*
X020211Y020112D01*
X020328Y020204D01*
X020440Y020301D01*
X020548Y020403D01*
X020651Y020510D01*
X020750Y020621D01*
X020843Y020737D01*
X020931Y020856D01*
X020442Y021098D02*
X020443Y021155D01*
X020448Y021211D01*
X020457Y021267D01*
X020470Y021322D01*
X020486Y021376D01*
X020506Y021429D01*
X020530Y021480D01*
X020557Y021530D01*
X020588Y021577D01*
X020622Y021622D01*
X020659Y021665D01*
X020699Y021705D01*
X020742Y021742D01*
X020787Y021777D01*
X020834Y021808D01*
X020883Y021835D01*
X020935Y021859D01*
X008998Y006925D02*
X010337Y005823D01*
X012187Y005823D01*
X012187Y006374D01*
X012687Y006374D01*
X013187Y006374D02*
X013211Y006846D01*
X013368Y006964D01*
X013683Y007281D02*
X013687Y006374D01*
X014431Y006374D01*
X014431Y005901D01*
X015219Y006374D02*
X015809Y006374D01*
X016124Y005586D02*
X016951Y006334D01*
X018672Y006329D01*
X017895Y005693D02*
X016754Y005705D01*
X016321Y005311D01*
X013565Y005311D01*
X013053Y004996D02*
X016754Y004996D01*
X017258Y004915D01*
X016480Y004278D02*
X015888Y003854D01*
X011203Y003854D01*
X006518Y003854D01*
X005644Y004265D01*
X006422Y004901D02*
X006750Y004941D01*
X008789Y004976D01*
X011687Y004976D01*
X011872Y004957D01*
X011687Y004976D02*
X011687Y004405D01*
X011187Y004405D02*
X011203Y003854D01*
X012187Y004405D02*
X012191Y005311D01*
X012384Y005311D01*
X012191Y005311D02*
X007455Y005307D01*
X007058Y005679D01*
X007836Y006315D02*
X008880Y005586D01*
X012687Y005586D01*
X016124Y005586D01*
X015652Y004327D02*
X015179Y004327D01*
X014392Y004327D02*
X014431Y004720D01*
X014392Y004327D02*
X013683Y004405D01*
X012687Y004405D02*
X012687Y005586D01*
X011687Y006374D02*
X011715Y006807D01*
X011714Y006807D02*
X011718Y006835D01*
X011725Y006862D01*
X011736Y006887D01*
X011750Y006911D01*
X011766Y006933D01*
X011786Y006953D01*
X011808Y006969D01*
X011832Y006983D01*
X011857Y006994D01*
X011884Y007001D01*
X011912Y007005D01*
X011163Y006925D02*
X011187Y006374D01*
X010651Y017161D02*
X010297Y017167D01*
X009943Y017161D01*
X013447Y019732D02*
X013507Y019735D01*
X013566Y019741D01*
X013625Y019751D01*
X013682Y019765D01*
X013739Y019783D01*
X013795Y019804D01*
X013849Y019829D01*
X013901Y019857D01*
X013952Y019889D01*
X014000Y019924D01*
X014046Y019962D01*
X014089Y020002D01*
X014129Y020046D01*
X014167Y020092D01*
X014202Y020141D01*
X014233Y020191D01*
X014261Y020244D01*
X014285Y020298D01*
X014306Y020354D01*
X014324Y020411D01*
X014337Y020468D01*
X014347Y020527D01*
X014353Y020586D01*
X014746Y019996D02*
X014688Y019938D01*
X014627Y019884D01*
X014563Y019833D01*
X014497Y019784D01*
X014429Y019739D01*
X014359Y019697D01*
X014287Y019658D01*
X014213Y019623D01*
X014137Y019591D01*
X014061Y019563D01*
X013982Y019539D01*
X013903Y019518D01*
X013823Y019501D01*
X013742Y019488D01*
X013661Y019479D01*
X013580Y019474D01*
X013498Y019472D01*
X014423Y020850D02*
X014436Y020916D01*
X014445Y020983D01*
X014451Y021051D01*
X016375Y020653D02*
X016281Y020522D01*
X016180Y020396D01*
X016073Y020274D01*
X015960Y020158D01*
X015842Y020048D01*
X015718Y019944D01*
X015590Y019846D01*
X015456Y019754D01*
X015319Y019669D01*
X015177Y019590D01*
X015032Y019519D01*
X014884Y019455D01*
X014732Y019398D01*
X014578Y019349D01*
X014422Y019307D01*
X014264Y019273D01*
X014104Y019247D01*
X013943Y019228D01*
X013782Y019218D01*
X013620Y019215D01*
X013458Y019220D01*
X013463Y018960D02*
X013693Y018964D01*
X013924Y018979D01*
X014153Y019005D01*
X014381Y019042D01*
X014606Y019089D01*
X014830Y019148D01*
X015050Y019216D01*
X015267Y019295D01*
X015480Y019384D01*
X015688Y019483D01*
X015891Y019592D01*
X016089Y019711D01*
X016282Y019838D01*
X018332Y020610D02*
X018105Y020393D01*
X017868Y020187D01*
X017621Y019993D01*
X017365Y019812D01*
X017101Y019642D01*
X016829Y019486D01*
X016549Y019343D01*
X016263Y019214D01*
X015971Y019099D01*
X015674Y018999D01*
X015372Y018912D01*
X015066Y018841D01*
X014757Y018784D01*
X014446Y018742D01*
X014133Y018716D01*
X013819Y018704D01*
X013506Y018708D01*
X010577Y018705D02*
X010330Y018699D01*
X010083Y018705D01*
X009837Y018722D01*
X009592Y018751D01*
X009348Y018792D01*
X009106Y018843D01*
X008868Y018907D01*
X008632Y018981D01*
X008400Y019066D01*
X008173Y019162D01*
X007950Y019269D01*
X007733Y019386D01*
X007521Y019513D01*
X007315Y019650D01*
X007116Y019796D01*
X006925Y019952D01*
X006740Y020116D01*
X006564Y020289D01*
X006396Y020470D01*
X006237Y020659D01*
X006086Y020855D01*
X004085Y020855D02*
X004391Y020557D01*
X004710Y020274D01*
X005043Y020007D01*
X005388Y019756D01*
X005745Y019522D01*
X006112Y019306D01*
X006490Y019108D01*
X006877Y018928D01*
X007272Y018767D01*
X007675Y018625D01*
X008083Y018504D01*
X008498Y018402D01*
X008916Y018320D01*
X009338Y018258D01*
X009763Y018217D01*
X010189Y018197D01*
X010616Y018197D01*
X010608Y018452D02*
X010264Y018462D01*
X009920Y018488D01*
X009578Y018529D01*
X009238Y018587D01*
X008901Y018659D01*
X008568Y018747D01*
X008240Y018851D01*
X007916Y018969D01*
X007598Y019102D01*
X007287Y019250D01*
X006982Y019411D01*
X006686Y019587D01*
X006397Y019776D01*
X006118Y019978D01*
X005849Y020192D01*
X003998Y019839D02*
X004495Y019539D01*
X005006Y019263D01*
X005530Y019012D01*
X006065Y018786D01*
X006610Y018586D01*
X007164Y018412D01*
X007726Y018265D01*
X008294Y018144D01*
X008867Y018051D01*
X009444Y017986D01*
X010023Y017948D01*
X010604Y017937D01*
X013478Y018452D02*
X013856Y018464D01*
X014233Y018493D01*
X014608Y018540D01*
X014980Y018604D01*
X015349Y018685D01*
X015715Y018782D01*
X016075Y018897D01*
X016430Y019027D01*
X016778Y019174D01*
X017119Y019337D01*
X017452Y019515D01*
X017777Y019709D01*
X018092Y019917D01*
X020297Y020586D02*
X019941Y020293D01*
X019570Y020016D01*
X019188Y019757D01*
X018793Y019516D01*
X018388Y019294D01*
X017973Y019091D01*
X017548Y018908D01*
X017116Y018745D01*
X016677Y018602D01*
X016231Y018480D01*
X015780Y018378D01*
X015325Y018298D01*
X014867Y018240D01*
X014406Y018202D01*
X013944Y018187D01*
X013482Y018192D01*
X013435Y017937D02*
X013987Y017956D01*
X014537Y018000D01*
X015085Y018070D01*
X015629Y018165D01*
X016168Y018285D01*
X016701Y018430D01*
X017226Y018599D01*
X017744Y018793D01*
X018251Y019010D01*
X018748Y019250D01*
X019234Y019514D01*
X019707Y019799D01*
X013974Y017429D02*
X013122Y017427D01*
X010937Y017683D02*
X010394Y017678D01*
X009852Y017694D01*
X009311Y017733D01*
X008772Y017794D01*
X008236Y017877D01*
X009712Y015417D02*
X011557Y015863D01*
X010534Y014956D02*
X010757Y015033D01*
X010984Y015099D01*
X011213Y015155D01*
X011445Y015199D01*
X011679Y015232D01*
X011914Y015254D01*
X012150Y015266D01*
X012386Y015266D01*
X012622Y015254D01*
X012857Y015232D01*
X012226Y015586D02*
X011943Y015582D01*
X011660Y015565D01*
X011378Y015534D01*
X011098Y015490D01*
X010820Y015433D01*
X010545Y015362D01*
X010274Y015279D01*
X010008Y015183D01*
X009746Y015074D01*
X016163Y016413D02*
X016538Y016315D01*
X016908Y016200D01*
X017273Y016069D01*
X017632Y015921D01*
X006518Y011807D02*
X006530Y011275D01*
X006557Y010744D01*
X012896Y012869D02*
X013129Y012945D01*
X013366Y013011D01*
X013605Y013066D01*
X012482Y006988D02*
X012292Y007002D01*
X012102Y007007D01*
X011911Y007004D01*
X013576Y016662D02*
X013754Y016662D01*
X006517Y012359D02*
X006517Y011807D01*
X014747Y016768D02*
X015062Y016216D01*
X011361Y011846D02*
X009791Y011231D01*
X008251Y010547D01*
X010928Y011413D02*
X012345Y011807D01*
D26*
X013604Y013067D03*
X015183Y014992D03*
X015652Y014957D03*
X015730Y015705D03*
X016163Y016413D03*
X014793Y015996D03*
X014156Y015311D03*
X013486Y015626D03*
X013801Y016216D03*
X012939Y016162D03*
X012856Y015232D03*
X010187Y015943D03*
X009712Y015417D03*
X009982Y014823D03*
X009787Y016843D03*
X008959Y016925D03*
X008423Y017019D03*
X008201Y017518D03*
X007817Y017909D03*
X006037Y016210D03*
X005415Y016571D03*
X004786Y016610D03*
X003998Y015783D03*
X002700Y015953D03*
X005573Y015508D03*
X007420Y014668D03*
X003640Y012122D03*
X006911Y010075D03*
X008604Y010075D03*
X009154Y010383D03*
X010022Y010941D03*
X010784Y010726D03*
X015809Y006374D03*
X015652Y004327D03*
X010258Y004327D03*
X004270Y007752D03*
X016120Y011016D03*
X019786Y014287D03*
X012669Y020243D03*
X012392Y020675D03*
X011494Y020217D03*
X011102Y020543D03*
D27*
X008844Y008880D02*
X010144Y007930D01*
X010445Y008481D02*
X009845Y008881D01*
X009145Y009381D01*
X009589Y009996D02*
X009626Y009987D01*
X009661Y009974D01*
X009695Y009957D01*
X009727Y009937D01*
X009757Y009914D01*
X009785Y009888D01*
X009810Y009859D01*
X009831Y009828D01*
X009850Y009795D01*
X009865Y009760D01*
X010145Y009381D02*
X010845Y008881D01*
X011445Y008481D01*
X011845Y008881D02*
X012545Y008481D01*
X011845Y008881D02*
X011145Y009381D01*
X010144Y009381D02*
X010103Y009415D01*
X010064Y009451D01*
X010027Y009489D01*
X009993Y009530D01*
X009962Y009572D01*
X009933Y009617D01*
X009907Y009663D01*
X009884Y009711D01*
X009864Y009760D01*
X008845Y008881D02*
X008145Y009381D01*
X007145Y009381D02*
X007581Y011846D01*
X007145Y012381D02*
X007226Y013185D01*
X007541Y014169D02*
X007566Y014209D01*
X007594Y014247D01*
X007624Y014283D01*
X007657Y014317D01*
X007693Y014347D01*
X007731Y014376D01*
X007770Y014401D01*
X007812Y014423D01*
X007855Y014442D01*
X007899Y014458D01*
X007945Y014470D01*
X007991Y014479D01*
X008038Y014484D01*
X008085Y014486D01*
X008132Y014484D01*
X009589Y014484D01*
X009635Y014482D01*
X009680Y014476D01*
X009725Y014467D01*
X009769Y014454D01*
X009812Y014437D01*
X009853Y014417D01*
X009892Y014394D01*
X009930Y014367D01*
X009965Y014338D01*
X009997Y014306D01*
X010027Y014271D01*
X010054Y014234D01*
X010077Y014194D01*
X010097Y014153D01*
X010114Y014111D01*
X010127Y014067D01*
X010137Y014022D01*
X010143Y013977D01*
X010145Y013931D01*
X010258Y013381D02*
X010325Y013389D01*
X010392Y013400D01*
X010458Y013415D01*
X010524Y013433D01*
X010588Y013454D01*
X010652Y013478D01*
X010714Y013506D01*
X010774Y013537D01*
X010833Y013570D01*
X010890Y013607D01*
X010945Y013646D01*
X010999Y013689D01*
X011050Y013733D01*
X011098Y013781D01*
X011144Y013831D01*
X011203Y013224D02*
X011270Y013237D01*
X011336Y013254D01*
X011401Y013273D01*
X011465Y013297D01*
X011527Y013323D01*
X011588Y013353D01*
X011648Y013386D01*
X011705Y013423D01*
X011761Y013462D01*
X011814Y013504D01*
X011865Y013549D01*
X011913Y013597D01*
X011959Y013647D01*
X012002Y013700D01*
X012042Y013755D01*
X012080Y013812D01*
X012114Y013871D01*
X012145Y013931D01*
X010612Y012712D02*
X010145Y012381D01*
X009904Y012987D02*
X009850Y012975D01*
X009796Y012958D01*
X009744Y012939D01*
X009694Y012915D01*
X009645Y012889D01*
X009598Y012859D01*
X009553Y012827D01*
X009510Y012791D01*
X009469Y012753D01*
X009432Y012712D01*
X009431Y012712D02*
X009145Y012381D01*
X008250Y013304D02*
X008196Y013277D01*
X008143Y013247D01*
X008092Y013215D01*
X008043Y013179D01*
X007996Y013141D01*
X007952Y013100D01*
X007909Y013056D01*
X007870Y013011D01*
X007833Y012962D01*
X007799Y012912D01*
X007769Y012860D01*
X007741Y012806D01*
X007716Y012751D01*
X007695Y012694D01*
X007677Y012636D01*
X007663Y012578D01*
X007651Y012518D01*
X007644Y012458D01*
X007640Y012398D01*
X008145Y012381D02*
X008368Y012673D01*
X008369Y012673D02*
X008416Y012731D01*
X008465Y012787D01*
X008518Y012841D01*
X008573Y012891D01*
X008631Y012939D01*
X008691Y012984D01*
X008753Y013025D01*
X008817Y013064D01*
X008883Y013099D01*
X008951Y013131D01*
X009020Y013160D01*
X009090Y013185D01*
X009162Y013206D01*
X009235Y013224D01*
X007542Y014170D02*
X007487Y014068D01*
X007437Y013964D01*
X007392Y013857D01*
X007351Y013749D01*
X007316Y013639D01*
X007286Y013527D01*
X007261Y013414D01*
X007241Y013300D01*
X007227Y013185D01*
X006558Y010744D02*
X006570Y010682D01*
X006586Y010619D01*
X006605Y010558D01*
X006627Y010498D01*
X006653Y010439D01*
X006681Y010382D01*
X006713Y010326D01*
X006747Y010272D01*
X006785Y010219D01*
X006824Y010169D01*
X006867Y010121D01*
X006912Y010075D01*
X003640Y011512D02*
X003640Y012122D01*
X003640Y012771D01*
X007640Y012398D02*
X007629Y012213D01*
X007609Y012029D01*
X007581Y011846D01*
X010612Y012712D02*
X010669Y012750D01*
X010727Y012785D01*
X010787Y012817D01*
X010849Y012846D01*
X010912Y012871D01*
X010976Y012893D01*
X011041Y012912D01*
X011108Y012928D01*
X011175Y012940D01*
X011242Y012948D01*
X014145Y013931D02*
X014645Y013281D01*
X015145Y012381D01*
X016145Y012381D02*
X015645Y013281D01*
X015145Y013831D01*
X016145Y013931D02*
X016645Y013181D01*
X017145Y012381D01*
X017545Y013281D02*
X017145Y013831D01*
X017545Y013281D02*
X018145Y012381D01*
X019668Y013263D02*
X019629Y013331D01*
X019587Y013396D01*
X019542Y013460D01*
X019493Y013521D01*
X019442Y013580D01*
X019388Y013636D01*
X019331Y013689D01*
X019271Y013739D01*
X019209Y013786D01*
X019145Y013830D01*
X019667Y013264D02*
X020145Y012381D01*
X019034Y010980D01*
X018246Y010980D02*
X018246Y010281D01*
X018145Y009381D02*
X017645Y008681D01*
X017145Y009381D02*
X016645Y008681D01*
X016145Y009381D02*
X015645Y008581D01*
X015145Y009381D02*
X014645Y008681D01*
X019145Y007831D02*
X019310Y008032D01*
X019466Y008241D01*
X019611Y008458D01*
X019745Y008681D01*
X020145Y009381D01*
X019145Y009381D02*
X018645Y008681D01*
X017645Y008681D02*
X017506Y008477D01*
X017376Y008267D01*
X017256Y008051D01*
X017145Y007831D01*
X019145Y012381D02*
X018745Y013181D01*
X018145Y013931D01*
X013144Y013831D02*
X013032Y013727D01*
X012915Y013629D01*
X012793Y013537D01*
X012668Y013451D01*
X012538Y013371D01*
X012404Y013297D01*
X012267Y013229D01*
X012128Y013169D01*
X011985Y013114D01*
X011840Y013067D01*
X011693Y013027D01*
X011544Y012993D01*
X011393Y012967D01*
X011242Y012948D01*
X006400Y017712D02*
X006338Y017713D01*
X006276Y017709D01*
X006215Y017701D01*
X006155Y017689D01*
X006095Y017674D01*
X006036Y017654D01*
X005979Y017631D01*
X005924Y017605D01*
X005870Y017575D01*
X005818Y017541D01*
X005768Y017505D01*
X005721Y017465D01*
X005677Y017422D01*
X005635Y017377D01*
X005596Y017329D01*
X005560Y017279D01*
X005528Y017226D01*
X005499Y017172D01*
X005474Y017116D01*
X005452Y017058D01*
X005434Y016999D01*
X005420Y016939D01*
X005409Y016878D01*
X005403Y016817D01*
X005400Y016755D01*
X005401Y016694D01*
X005407Y016632D01*
X005416Y016571D01*
X008250Y013303D02*
X008438Y013393D01*
X008622Y013490D01*
X008801Y013596D01*
X008976Y013710D01*
X009145Y013831D01*
X007795Y017895D02*
X006400Y017712D01*
X007795Y017895D02*
X007874Y017895D01*
X003643Y014367D02*
X003623Y014317D01*
X003599Y014270D01*
X003572Y014224D01*
X003541Y014181D01*
X003508Y014139D01*
X003471Y014101D01*
X003432Y014065D01*
X003391Y014031D01*
X003347Y014001D01*
X003301Y013975D01*
X003253Y013951D01*
X003203Y013932D01*
X003153Y013915D01*
X003101Y013903D01*
X003049Y013894D01*
X002996Y013889D01*
X002942Y013888D01*
X002889Y013891D01*
X002837Y013897D01*
X002784Y013908D01*
X002733Y013922D01*
X015145Y007831D02*
X015400Y008202D01*
X015645Y008581D01*
X013145Y007831D02*
X013111Y007898D01*
X013074Y007963D01*
X013034Y008026D01*
X012991Y008087D01*
X012944Y008146D01*
X012895Y008202D01*
X012843Y008256D01*
X012788Y008307D01*
X012731Y008355D01*
X012671Y008400D01*
X012609Y008442D01*
X012545Y008481D01*
X010258Y013381D02*
X009914Y013343D01*
X009573Y013291D01*
X009234Y013224D01*
X008604Y010074D02*
X008802Y010078D01*
X009000Y010072D01*
X009198Y010056D01*
X009394Y010031D01*
X009589Y009996D01*
X010444Y008481D02*
X010556Y008402D01*
X010665Y008318D01*
X010769Y008230D01*
X010870Y008137D01*
X010966Y008039D01*
X011057Y007937D01*
X011144Y007831D01*
X010687Y004405D02*
X010258Y004327D01*
X012145Y007931D02*
X011978Y008079D01*
X011806Y008220D01*
X011628Y008354D01*
X011445Y008481D01*
X011202Y013224D02*
X009903Y012988D01*
X014645Y008681D02*
X014389Y008310D01*
X014145Y007931D01*
X016145Y007931D02*
X016389Y008310D01*
X016645Y008681D01*
X018145Y007931D02*
X018389Y008310D01*
X018645Y008681D01*
X003644Y014366D02*
X003999Y015783D01*
D28*
X003087Y014197D02*
X002367Y014197D01*
X002367Y007281D01*
X004290Y007281D01*
X003640Y007594D01*
X003640Y007909D01*
X004487Y008281D01*
X004987Y008481D01*
X004987Y008781D01*
X004448Y008981D01*
X004448Y009781D01*
X003887Y010202D01*
X003087Y010202D01*
X003087Y014197D01*
X003087Y014124D02*
X002367Y014124D01*
X002367Y013966D02*
X003087Y013966D01*
X003087Y013807D02*
X002367Y013807D01*
X002367Y013649D02*
X003087Y013649D01*
X003087Y013490D02*
X002367Y013490D01*
X002367Y013332D02*
X003087Y013332D01*
X003087Y013173D02*
X002367Y013173D01*
X002367Y013015D02*
X003087Y013015D01*
X003087Y012856D02*
X002367Y012856D01*
X002367Y012697D02*
X003087Y012697D01*
X003087Y012539D02*
X002367Y012539D01*
X002367Y012380D02*
X003087Y012380D01*
X003087Y012222D02*
X002367Y012222D01*
X002367Y012063D02*
X003087Y012063D01*
X003087Y011905D02*
X002367Y011905D01*
X002367Y011746D02*
X003087Y011746D01*
X003087Y011588D02*
X002367Y011588D01*
X002367Y011429D02*
X003087Y011429D01*
X003087Y011271D02*
X002367Y011271D01*
X002367Y011112D02*
X003087Y011112D01*
X003087Y010954D02*
X002367Y010954D01*
X002367Y010795D02*
X003087Y010795D01*
X003087Y010636D02*
X002367Y010636D01*
X002367Y010478D02*
X003087Y010478D01*
X003087Y010319D02*
X002367Y010319D01*
X002367Y010161D02*
X003942Y010161D01*
X004153Y010002D02*
X002367Y010002D01*
X002367Y009844D02*
X004364Y009844D01*
X004448Y009685D02*
X002367Y009685D01*
X002367Y009527D02*
X004448Y009527D01*
X004448Y009368D02*
X002367Y009368D01*
X002367Y009210D02*
X004448Y009210D01*
X004448Y009051D02*
X002367Y009051D01*
X002367Y008892D02*
X004686Y008892D01*
X004987Y008734D02*
X002367Y008734D01*
X002367Y008575D02*
X004987Y008575D01*
X004827Y008417D02*
X002367Y008417D01*
X002367Y008258D02*
X004435Y008258D01*
X004074Y008100D02*
X002367Y008100D01*
X002367Y007941D02*
X003713Y007941D01*
X003640Y007783D02*
X002367Y007783D01*
X002367Y007624D02*
X003640Y007624D01*
X003907Y007466D02*
X002367Y007466D01*
X002367Y007307D02*
X004236Y007307D01*
X003487Y007281D02*
X009045Y007281D01*
X013683Y007281D01*
X020645Y007281D01*
X020645Y010281D01*
X020691Y010271D01*
X021258Y010381D01*
X020645Y010281D02*
X018246Y010281D01*
X016265Y010281D01*
X014782Y010271D01*
X012656Y010844D01*
X012144Y010923D01*
X012145Y009381D01*
X013145Y009381D01*
X014782Y010271D02*
X014782Y010977D01*
X014145Y012381D01*
X015569Y010977D02*
X016120Y011016D01*
X019785Y014287D02*
X019907Y014189D01*
X020024Y014085D01*
X020136Y013976D01*
X020243Y013862D01*
X020344Y013743D01*
X020440Y013620D01*
X020529Y013492D01*
X020613Y013360D01*
X020691Y013224D01*
X021258Y012381D01*
X011356Y010923D02*
X010784Y010726D01*
X009145Y007361D02*
X009134Y007342D01*
X009120Y007324D01*
X009104Y007309D01*
X009086Y007297D01*
X009066Y007287D01*
X009045Y007281D01*
D29*
X009145Y007361D02*
X009145Y007831D01*
X006238Y009168D02*
X005845Y009248D01*
X005090Y009545D01*
X005090Y007734D02*
X004270Y007752D01*
X012939Y016162D02*
X013069Y016292D01*
X013930Y020957D02*
X013935Y021959D01*
X013919Y022592D01*
X015297Y022594D01*
X015927Y022594D02*
X015935Y021959D01*
X015930Y020957D01*
X017930Y020957D02*
X017935Y021959D01*
X017935Y022594D01*
X019943Y022594D02*
X019935Y021959D01*
X019930Y020957D01*
X009086Y020955D02*
X009089Y021959D01*
X009077Y022585D01*
X007069Y022585D02*
X007089Y021959D01*
X007086Y020955D01*
X005086Y020955D02*
X005089Y021959D01*
X005100Y022585D01*
X003093Y022585D02*
X003089Y021959D01*
X003086Y020955D01*
X002463Y021177D02*
X002463Y022571D01*
X002464Y022585D01*
X003053Y022585D02*
X003093Y022585D01*
D30*
X002700Y015953D02*
X002700Y015166D01*
X002733Y015181D01*
X006238Y009168D02*
X006384Y009027D01*
X006536Y008894D01*
X006695Y008767D01*
X006859Y008649D01*
X007029Y008538D01*
X007205Y008436D01*
X007384Y008343D01*
X007384Y008342D02*
X007384Y008027D01*
X007187Y007831D01*
X007384Y008342D02*
X008145Y007931D01*
X006238Y007908D02*
X006047Y007773D01*
X005090Y007734D01*
D31*
X008250Y008736D03*
X008998Y006925D03*
X011163Y006925D03*
X012482Y006988D03*
X013368Y006964D03*
X014431Y005901D03*
X013565Y005311D03*
X013053Y004996D03*
X012384Y005311D03*
X011872Y004957D03*
X014431Y004720D03*
X016557Y009957D03*
X016037Y010602D03*
X019943Y009957D03*
D32*
X020495Y017289D02*
X021597Y017279D01*
X021597Y022594D01*
X019943Y022594D01*
X017935Y022594D01*
X015927Y022594D01*
X015297Y022594D01*
X013919Y022592D02*
X009077Y022585D01*
X007069Y022585D01*
X005100Y022585D01*
X003053Y022585D01*
X002464Y022585D01*
X002463Y022571D02*
X002466Y018110D01*
X003408Y018106D01*
X002466Y017713D02*
X002480Y017645D01*
X002497Y017578D01*
X002518Y017512D01*
X002542Y017447D01*
X002570Y017383D01*
X002601Y017321D01*
X002635Y017260D01*
X002672Y017202D01*
X002712Y017145D01*
X002755Y017090D01*
X002800Y017038D01*
X002849Y016988D01*
X002900Y016941D01*
X002953Y016897D01*
X003009Y016855D01*
X003066Y016816D01*
X003126Y016780D01*
X003187Y016748D01*
X003250Y016718D01*
X003314Y016692D01*
X003380Y016669D01*
X003447Y016650D01*
X002466Y017713D02*
X002466Y018110D01*
X003448Y016649D02*
X003553Y016603D01*
X003661Y016562D01*
X003770Y016524D01*
X003881Y016492D01*
X003880Y016492D02*
X003942Y016473D01*
X004003Y016450D01*
X004063Y016425D01*
X004121Y016395D01*
X004177Y016362D01*
X004231Y016327D01*
X004283Y016288D01*
X004333Y016246D01*
X004380Y016201D01*
X004424Y016154D01*
X004466Y016104D01*
X004505Y016051D01*
X004540Y015997D01*
X004573Y015941D01*
X004602Y015882D01*
X004628Y015823D01*
X004664Y015737D01*
X004705Y015653D01*
X004749Y015571D01*
X004796Y015490D01*
X004848Y015412D01*
X004903Y015337D01*
X004961Y015264D01*
X005023Y015194D01*
X005088Y015127D01*
X005156Y015062D01*
X005227Y015002D01*
X005300Y014944D01*
X005376Y014890D01*
X005455Y014839D01*
X005515Y014810D01*
X005575Y014778D01*
X005632Y014743D01*
X005688Y014704D01*
X005741Y014663D01*
X005792Y014619D01*
X005841Y014573D01*
X005887Y014523D01*
X005930Y014472D01*
X005971Y014418D01*
X006008Y014362D01*
X006043Y014304D01*
X006074Y014245D01*
X006102Y014183D01*
X006127Y014121D01*
X006148Y014057D01*
X006166Y013992D01*
X006181Y013926D01*
X006192Y013859D01*
X006199Y013792D01*
X006203Y013725D01*
X006203Y013658D01*
X006203Y013657D02*
X006203Y011216D01*
X006202Y011217D02*
X006246Y010808D01*
X006271Y010399D01*
X006278Y009988D01*
X006267Y009578D01*
X006237Y009168D01*
D33*
X005003Y006413D02*
X003998Y006413D01*
X003447Y005862D01*
X003447Y005783D01*
X003408Y005744D01*
X003408Y005193D01*
X003763Y004837D01*
X003763Y004825D01*
X003763Y004286D01*
X004510Y003500D01*
X019667Y003500D01*
X020022Y003854D01*
X020061Y004523D01*
X020494Y004523D01*
X021360Y005390D01*
X021360Y005901D01*
X021064Y006197D01*
X021064Y006283D01*
X019650Y004869D02*
X020035Y004523D01*
X020061Y004523D01*
X005177Y006239D02*
X005003Y006413D01*
M02*
