G75*
G70*
%OFA0B0*%
%FSLAX24Y24*%
%IPPOS*%
%LPD*%
%AMOC8*
5,1,8,0,0,1.08239X$1,22.5*
%
%ADD10C,0.0000*%
D10*
X002348Y003185D02*
X021596Y003185D01*
X021596Y003184D02*
X021625Y003181D01*
X021654Y003182D01*
X021683Y003186D01*
X021711Y003193D01*
X021739Y003204D01*
X021764Y003218D01*
X021788Y003235D01*
X021810Y003255D01*
X021829Y003278D01*
X021845Y003302D01*
X021858Y003328D01*
X021868Y003356D01*
X021875Y003385D01*
X021874Y003385D02*
X021914Y018935D01*
X021913Y018970D01*
X021909Y019004D01*
X021901Y019037D01*
X021890Y019070D01*
X021875Y019101D01*
X021857Y019131D01*
X021836Y019158D01*
X021813Y019183D01*
X021787Y019206D01*
X021759Y019225D01*
X021728Y019242D01*
X021697Y019255D01*
X021664Y019265D01*
X021630Y019272D01*
X021595Y019275D01*
X002456Y019275D01*
X002425Y019272D01*
X002394Y019265D01*
X002364Y019255D01*
X002335Y019241D01*
X002309Y019224D01*
X002284Y019204D01*
X002262Y019182D01*
X002243Y019156D01*
X002227Y019129D01*
X002214Y019100D01*
X002205Y019070D01*
X002199Y019039D01*
X002197Y019008D01*
X002187Y003394D01*
X002188Y003394D02*
X002186Y003370D01*
X002187Y003345D01*
X002192Y003321D01*
X002199Y003298D01*
X002210Y003276D01*
X002224Y003255D01*
X002240Y003237D01*
X002258Y003221D01*
X002279Y003207D01*
X002301Y003197D01*
X002324Y003189D01*
X002348Y003185D01*
M02*
