G75*
G70*
%OFA0B0*%
%FSLAX24Y24*%
%IPPOS*%
%LPD*%
%AMOC8*
5,1,8,0,0,1.08239X$1,22.5*
%
%ADD10C,0.0000*%
%ADD11C,0.0670*%
%ADD12C,0.0631*%
%ADD13C,0.0700*%
%ADD14C,0.0780*%
%ADD15C,0.0476*%
%ADD16C,0.0516*%
D10*
X002348Y003185D02*
X021596Y003185D01*
X021596Y003184D02*
X021625Y003181D01*
X021654Y003182D01*
X021683Y003186D01*
X021711Y003193D01*
X021739Y003204D01*
X021764Y003218D01*
X021788Y003235D01*
X021810Y003255D01*
X021829Y003278D01*
X021845Y003302D01*
X021858Y003328D01*
X021868Y003356D01*
X021875Y003385D01*
X021874Y003385D02*
X021872Y022751D01*
X021872Y022752D02*
X021754Y022870D01*
X002306Y022870D01*
X002305Y022870D02*
X002187Y022752D01*
X002187Y022751D02*
X002187Y003394D01*
X002188Y003394D02*
X002186Y003370D01*
X002187Y003345D01*
X002192Y003321D01*
X002199Y003298D01*
X002210Y003276D01*
X002224Y003255D01*
X002240Y003237D01*
X002258Y003221D01*
X002279Y003207D01*
X002301Y003197D01*
X002324Y003189D01*
X002348Y003185D01*
X020652Y019366D02*
X020654Y019401D01*
X020660Y019436D01*
X020670Y019470D01*
X020683Y019503D01*
X020700Y019534D01*
X020721Y019562D01*
X020744Y019589D01*
X020771Y019612D01*
X020799Y019633D01*
X020830Y019650D01*
X020863Y019663D01*
X020897Y019673D01*
X020932Y019679D01*
X020967Y019681D01*
X021002Y019679D01*
X021037Y019673D01*
X021071Y019663D01*
X021104Y019650D01*
X021135Y019633D01*
X021163Y019612D01*
X021190Y019589D01*
X021213Y019562D01*
X021234Y019534D01*
X021251Y019503D01*
X021264Y019470D01*
X021274Y019436D01*
X021280Y019401D01*
X021282Y019366D01*
X021280Y019331D01*
X021274Y019296D01*
X021264Y019262D01*
X021251Y019229D01*
X021234Y019198D01*
X021213Y019170D01*
X021190Y019143D01*
X021163Y019120D01*
X021135Y019099D01*
X021104Y019082D01*
X021071Y019069D01*
X021037Y019059D01*
X021002Y019053D01*
X020967Y019051D01*
X020932Y019053D01*
X020897Y019059D01*
X020863Y019069D01*
X020830Y019082D01*
X020799Y019099D01*
X020771Y019120D01*
X020744Y019143D01*
X020721Y019170D01*
X020700Y019198D01*
X020683Y019229D01*
X020670Y019262D01*
X020660Y019296D01*
X020654Y019331D01*
X020652Y019366D01*
X020730Y016413D02*
X020732Y016448D01*
X020738Y016483D01*
X020748Y016517D01*
X020761Y016550D01*
X020778Y016581D01*
X020799Y016609D01*
X020822Y016636D01*
X020849Y016659D01*
X020877Y016680D01*
X020908Y016697D01*
X020941Y016710D01*
X020975Y016720D01*
X021010Y016726D01*
X021045Y016728D01*
X021080Y016726D01*
X021115Y016720D01*
X021149Y016710D01*
X021182Y016697D01*
X021213Y016680D01*
X021241Y016659D01*
X021268Y016636D01*
X021291Y016609D01*
X021312Y016581D01*
X021329Y016550D01*
X021342Y016517D01*
X021352Y016483D01*
X021358Y016448D01*
X021360Y016413D01*
X021358Y016378D01*
X021352Y016343D01*
X021342Y016309D01*
X021329Y016276D01*
X021312Y016245D01*
X021291Y016217D01*
X021268Y016190D01*
X021241Y016167D01*
X021213Y016146D01*
X021182Y016129D01*
X021149Y016116D01*
X021115Y016106D01*
X021080Y016100D01*
X021045Y016098D01*
X021010Y016100D01*
X020975Y016106D01*
X020941Y016116D01*
X020908Y016129D01*
X020877Y016146D01*
X020849Y016167D01*
X020822Y016190D01*
X020799Y016217D01*
X020778Y016245D01*
X020761Y016276D01*
X020748Y016309D01*
X020738Y016343D01*
X020732Y016378D01*
X020730Y016413D01*
D11*
X021045Y016413D03*
X020967Y019366D03*
D12*
X020145Y012381D03*
X019145Y012381D03*
X018145Y012381D03*
X017145Y012381D03*
X016145Y012381D03*
X015145Y012381D03*
X014145Y012381D03*
X013145Y012381D03*
X012145Y012381D03*
X011145Y012381D03*
X010145Y012381D03*
X009145Y012381D03*
X008145Y012381D03*
X007145Y012381D03*
X007145Y009381D03*
X008145Y009381D03*
X009145Y009381D03*
X010145Y009381D03*
X011145Y009381D03*
X012145Y009381D03*
X013145Y009381D03*
X014145Y009381D03*
X015145Y009381D03*
X016145Y009381D03*
X017145Y009381D03*
X018145Y009381D03*
X019145Y009381D03*
X020145Y009381D03*
D13*
X005087Y011299D03*
X005087Y013220D03*
D14*
X008145Y013931D03*
X009145Y013831D03*
X010145Y013931D03*
X011145Y013831D03*
X012145Y013931D03*
X013145Y013831D03*
X014145Y013931D03*
X015145Y013831D03*
X016145Y013931D03*
X017145Y013831D03*
X018145Y013931D03*
X019145Y013831D03*
X019041Y015342D03*
X018040Y015342D03*
X018140Y016342D03*
X019141Y016342D03*
X019041Y017342D03*
X018040Y017342D03*
X018140Y018342D03*
X019141Y018342D03*
X020495Y018429D03*
X020495Y017289D03*
X020930Y020857D03*
X019930Y020957D03*
X019935Y021959D03*
X020935Y021859D03*
X018935Y021859D03*
X017935Y021959D03*
X017930Y020957D03*
X016930Y020857D03*
X015930Y020957D03*
X015935Y021959D03*
X016935Y021859D03*
X014935Y021859D03*
X013935Y021959D03*
X013930Y020957D03*
X014930Y020857D03*
X018930Y020857D03*
X021358Y013381D03*
X021258Y012381D03*
X021358Y011381D03*
X021258Y010381D03*
X021358Y009381D03*
X021258Y008381D03*
X019145Y007831D03*
X018145Y007931D03*
X017145Y007831D03*
X016145Y007931D03*
X015145Y007831D03*
X014145Y007931D03*
X013145Y007831D03*
X012145Y007931D03*
X011145Y007831D03*
X010145Y007931D03*
X009145Y007831D03*
X008145Y007931D03*
X007836Y006315D03*
X007058Y005679D03*
X006422Y004901D03*
X005644Y004265D03*
X004399Y005602D03*
X003763Y004825D03*
X002985Y004188D03*
X005177Y006239D03*
X016480Y004278D03*
X017258Y004915D03*
X017895Y005693D03*
X018672Y006329D03*
X020287Y005646D03*
X019650Y004869D03*
X018872Y004232D03*
X021064Y006283D03*
X010086Y020855D03*
X009086Y020955D03*
X008086Y020855D03*
X007086Y020955D03*
X007089Y021959D03*
X008089Y021859D03*
X009089Y021959D03*
X010089Y021859D03*
X006089Y021859D03*
X005089Y021959D03*
X004089Y021859D03*
X003089Y021959D03*
X003086Y020955D03*
X004086Y020855D03*
X005086Y020955D03*
X006086Y020855D03*
D15*
X011793Y019051D03*
X012266Y018618D03*
X011793Y018224D03*
X012266Y017752D03*
X011793Y017358D03*
X012266Y016964D03*
X011793Y016610D03*
X012266Y019484D03*
D16*
X004195Y018106D03*
X003408Y018106D03*
M02*
