%
M48
M72
T01C0.0157
T02C0.0236
T03C0.0276
T04C0.0315
T05C0.0320
T06C0.0394
T07C0.0400
T08C0.0630
%
T01
X8998Y6925
X8250Y8736
X11163Y6925
X12482Y6988
X13368Y6964
X14431Y5901
X13565Y5311
X13053Y4996
X12384Y5311
X11872Y4957
X14431Y4720
X16557Y9957
X16037Y10602
X19943Y9957
T02
X16120Y11016
X13604Y13067
X15183Y14992
X15652Y14957
X15730Y15705
X16163Y16413
X14793Y15996
X14156Y15311
X13486Y15626
X13801Y16216
X12939Y16162
X12266Y16964
X11793Y16610
X11793Y17358
X12266Y17752
X11793Y18224
X12266Y18618
X11793Y19051
X12266Y19484
X12669Y20243
X12392Y20675
X11494Y20217
X11102Y20543
X8201Y17518
X7817Y17909
X8423Y17019
X8959Y16925
X9787Y16843
X10187Y15943
X9712Y15417
X9982Y14823
X7420Y14668
X6037Y16210
X5415Y16571
X4786Y16610
X3998Y15783
X2700Y15953
X5573Y15508
X3640Y12122
X6911Y10075
X8604Y10075
X10745Y10844
X12856Y15232
X19786Y14287
X15809Y6374
X15652Y4327
X10258Y4327
X4270Y7752
T03
X4195Y18106
X3408Y18106
T04
X5087Y13220
X5087Y11299
T05
X7145Y12381
X8145Y12381
X9145Y12381
X10145Y12381
X11145Y12381
X12145Y12381
X13145Y12381
X14145Y12381
X15145Y12381
X16145Y12381
X17145Y12381
X18145Y12381
X19145Y12381
X20145Y12381
X20145Y9381
X19145Y9381
X18145Y9381
X17145Y9381
X16145Y9381
X15145Y9381
X14145Y9381
X13145Y9381
X12145Y9381
X11145Y9381
X10145Y9381
X9145Y9381
X8145Y9381
X7145Y9381
T06
X7187Y7831
T07
X2985Y4188
X3763Y4825
X4399Y5602
X5177Y6239
X6422Y4901
X5644Y4265
X7058Y5679
X7836Y6315
X9145Y7831
X8145Y7931
X10145Y7931
X11145Y7831
X12145Y7931
X13145Y7831
X14145Y7931
X15145Y7831
X16145Y7931
X17145Y7831
X18145Y7931
X19145Y7831
X18672Y6329
X17895Y5693
X17258Y4915
X16480Y4278
X18872Y4232
X19650Y4869
X20287Y5646
X21064Y6283
X21258Y8381
X21358Y9381
X21258Y10381
X21358Y11381
X21258Y12381
X21358Y13381
X19145Y13831
X18145Y13931
X17145Y13831
X16145Y13931
X15145Y13831
X14145Y13931
X13145Y13831
X12145Y13931
X11145Y13831
X10145Y13931
X9145Y13831
X8145Y13931
X8086Y20855
X9086Y20955
X9089Y21959
X8089Y21859
X7089Y21959
X7086Y20955
X6086Y20855
X5086Y20955
X4086Y20855
X3086Y20955
X3089Y21959
X4089Y21859
X5089Y21959
X6089Y21859
X10089Y21859
X10086Y20855
X13930Y20957
X13935Y21959
X14935Y21859
X15935Y21959
X16935Y21859
X17935Y21959
X17930Y20957
X16930Y20857
X15930Y20957
X14930Y20857
X18140Y18342
X19141Y18342
X19041Y17342
X18040Y17342
X18140Y16342
X19141Y16342
X19041Y15342
X18040Y15342
X20495Y17289
X20495Y18429
X20930Y20857
X19930Y20957
X19935Y21959
X20935Y21859
X18935Y21859
X18930Y20857
T08
X20967Y19366
X21045Y16413
M30
