G75*
G70*
%OFA0B0*%
%FSLAX24Y24*%
%IPPOS*%
%LPD*%
%AMOC8*
5,1,8,0,0,1.08239X$1,22.5*
%
%ADD10C,0.0000*%
%ADD11C,0.0591*%
%ADD12C,0.0660*%
%ADD13C,0.0740*%
%ADD14C,0.0050*%
%ADD15C,0.0436*%
%ADD16C,0.0120*%
%ADD17C,0.0160*%
%ADD18C,0.0356*%
%ADD19C,0.0100*%
D10*
X002348Y003185D02*
X021596Y003185D01*
X021596Y003184D02*
X021625Y003181D01*
X021654Y003182D01*
X021683Y003186D01*
X021711Y003193D01*
X021739Y003204D01*
X021764Y003218D01*
X021788Y003235D01*
X021810Y003255D01*
X021829Y003278D01*
X021845Y003302D01*
X021858Y003328D01*
X021868Y003356D01*
X021875Y003385D01*
X021874Y003385D02*
X021914Y018935D01*
X021913Y018970D01*
X021909Y019004D01*
X021901Y019037D01*
X021890Y019070D01*
X021875Y019101D01*
X021857Y019131D01*
X021836Y019158D01*
X021813Y019183D01*
X021787Y019206D01*
X021759Y019225D01*
X021728Y019242D01*
X021697Y019255D01*
X021664Y019265D01*
X021630Y019272D01*
X021595Y019275D01*
X002456Y019275D01*
X002425Y019272D01*
X002394Y019265D01*
X002364Y019255D01*
X002335Y019241D01*
X002309Y019224D01*
X002284Y019204D01*
X002262Y019182D01*
X002243Y019156D01*
X002227Y019129D01*
X002214Y019100D01*
X002205Y019070D01*
X002199Y019039D01*
X002197Y019008D01*
X002187Y003394D01*
X002188Y003394D02*
X002186Y003370D01*
X002187Y003345D01*
X002192Y003321D01*
X002199Y003298D01*
X002210Y003276D01*
X002224Y003255D01*
X002240Y003237D01*
X002258Y003221D01*
X002279Y003207D01*
X002301Y003197D01*
X002324Y003189D01*
X002348Y003185D01*
D11*
X007145Y005523D03*
X008145Y005523D03*
X009145Y005523D03*
X010145Y005523D03*
X011145Y005523D03*
X012145Y005523D03*
X013145Y005523D03*
X014145Y005523D03*
X015145Y005523D03*
X016145Y005523D03*
X017145Y005523D03*
X018145Y005523D03*
X019145Y005523D03*
X020145Y005523D03*
X020145Y008523D03*
X019145Y008523D03*
X018145Y008523D03*
X017145Y008523D03*
X016145Y008523D03*
X015145Y008523D03*
X014145Y008523D03*
X013145Y008523D03*
X012145Y008523D03*
X011145Y008523D03*
X010145Y008523D03*
X009145Y008523D03*
X008145Y008523D03*
X007145Y008523D03*
D12*
X005087Y009362D03*
X005087Y007441D03*
D13*
X008145Y010073D03*
X009145Y009973D03*
X010145Y010073D03*
X011145Y009973D03*
X012145Y010073D03*
X013145Y009973D03*
X014145Y010073D03*
X015145Y009973D03*
X016145Y010073D03*
X017145Y009973D03*
X018145Y010073D03*
X019145Y009973D03*
X019041Y011483D03*
X018040Y011484D03*
X018140Y012484D03*
X019141Y012483D03*
X019041Y013483D03*
X018040Y013484D03*
X018140Y014484D03*
X019141Y014483D03*
X021086Y014414D03*
X021086Y015554D03*
X021285Y017234D03*
X021289Y018237D03*
X020289Y018337D03*
X020285Y017334D03*
X019285Y017234D03*
X019289Y018237D03*
X018289Y018337D03*
X017289Y018237D03*
X016289Y018337D03*
X016285Y017334D03*
X017285Y017234D03*
X018285Y017334D03*
X015285Y017234D03*
X014285Y017334D03*
X015289Y018237D03*
X014289Y018337D03*
X010089Y018237D03*
X009089Y018337D03*
X008089Y018237D03*
X007089Y018337D03*
X007086Y017333D03*
X008086Y017233D03*
X009086Y017333D03*
X010086Y017233D03*
X006086Y017233D03*
X005086Y017333D03*
X004086Y017233D03*
X003086Y017333D03*
X003089Y018337D03*
X004089Y018237D03*
X005089Y018337D03*
X006089Y018237D03*
X021087Y012558D03*
X021087Y011418D03*
X021358Y009523D03*
X021258Y008523D03*
X021358Y007523D03*
X021258Y006523D03*
X021358Y005523D03*
X021258Y004523D03*
X019145Y003973D03*
X018145Y004073D03*
X017145Y003973D03*
X016145Y004073D03*
X015145Y003973D03*
X014145Y004073D03*
X013145Y003973D03*
X012145Y004073D03*
X011145Y003973D03*
X010145Y004073D03*
X009145Y003973D03*
X008145Y004073D03*
D14*
X011439Y012397D02*
X012620Y012397D01*
X012620Y016020D01*
X011439Y016020D01*
X011439Y012437D01*
X011439Y012397D01*
X011439Y012408D02*
X012620Y012408D01*
X012620Y012457D02*
X011439Y012457D01*
X011439Y012505D02*
X012620Y012505D01*
X012620Y012554D02*
X011439Y012554D01*
X011439Y012602D02*
X012620Y012602D01*
X012620Y012651D02*
X011439Y012651D01*
X011439Y012699D02*
X012620Y012699D01*
X012620Y012748D02*
X011439Y012748D01*
X011439Y012796D02*
X012620Y012796D01*
X012620Y012845D02*
X011439Y012845D01*
X011439Y012894D02*
X012620Y012894D01*
X012620Y012942D02*
X011439Y012942D01*
X011439Y012991D02*
X012620Y012991D01*
X012620Y013039D02*
X011439Y013039D01*
X011439Y013088D02*
X012620Y013088D01*
X012620Y013136D02*
X011439Y013136D01*
X011439Y013185D02*
X012620Y013185D01*
X012620Y013233D02*
X011439Y013233D01*
X011439Y013282D02*
X012620Y013282D01*
X012620Y013330D02*
X011439Y013330D01*
X011439Y013379D02*
X012620Y013379D01*
X012620Y013428D02*
X011439Y013428D01*
X011439Y013476D02*
X012620Y013476D01*
X012620Y013525D02*
X011439Y013525D01*
X011439Y013573D02*
X012620Y013573D01*
X012620Y013622D02*
X011439Y013622D01*
X011439Y013670D02*
X012620Y013670D01*
X012620Y013719D02*
X011439Y013719D01*
X011439Y013767D02*
X012620Y013767D01*
X012620Y013816D02*
X011439Y013816D01*
X011439Y013864D02*
X012620Y013864D01*
X012620Y013913D02*
X011439Y013913D01*
X011439Y013961D02*
X012620Y013961D01*
X012620Y014010D02*
X011439Y014010D01*
X011439Y014059D02*
X012620Y014059D01*
X012620Y014107D02*
X011439Y014107D01*
X011439Y014156D02*
X012620Y014156D01*
X012620Y014204D02*
X011439Y014204D01*
X011439Y014253D02*
X012620Y014253D01*
X012620Y014301D02*
X011439Y014301D01*
X011439Y014350D02*
X012620Y014350D01*
X012620Y014398D02*
X011439Y014398D01*
X011439Y014447D02*
X012620Y014447D01*
X012620Y014495D02*
X011439Y014495D01*
X011439Y014544D02*
X012620Y014544D01*
X012620Y014593D02*
X011439Y014593D01*
X011439Y014641D02*
X012620Y014641D01*
X012620Y014690D02*
X011439Y014690D01*
X011439Y014738D02*
X012620Y014738D01*
X012620Y014787D02*
X011439Y014787D01*
X011439Y014835D02*
X012620Y014835D01*
X012620Y014884D02*
X011439Y014884D01*
X011439Y014932D02*
X012620Y014932D01*
X012620Y014981D02*
X011439Y014981D01*
X011439Y015029D02*
X012620Y015029D01*
X012620Y015078D02*
X011439Y015078D01*
X011439Y015127D02*
X012620Y015127D01*
X012620Y015175D02*
X011439Y015175D01*
X011439Y015224D02*
X012620Y015224D01*
X012620Y015272D02*
X011439Y015272D01*
X011439Y015321D02*
X012620Y015321D01*
X012620Y015369D02*
X011439Y015369D01*
X011439Y015418D02*
X012620Y015418D01*
X012620Y015466D02*
X011439Y015466D01*
X011439Y015515D02*
X012620Y015515D01*
X012620Y015563D02*
X011439Y015563D01*
X011439Y015612D02*
X012620Y015612D01*
X012620Y015661D02*
X011439Y015661D01*
X011439Y015709D02*
X012620Y015709D01*
X012620Y015758D02*
X011439Y015758D01*
X011439Y015806D02*
X012620Y015806D01*
X012620Y015855D02*
X011439Y015855D01*
X011439Y015903D02*
X012620Y015903D01*
X012620Y015952D02*
X011439Y015952D01*
X011439Y016000D02*
X012620Y016000D01*
D15*
X012266Y015626D03*
X011793Y015193D03*
X012266Y014760D03*
X011793Y014366D03*
X012266Y013894D03*
X011793Y013500D03*
X012266Y013106D03*
X011793Y012752D03*
D16*
X012145Y008522D02*
X012138Y008461D01*
X012129Y008400D01*
X012115Y008340D01*
X012099Y008280D01*
X012078Y008222D01*
X012054Y008165D01*
X012027Y008110D01*
X011997Y008056D01*
X011963Y008004D01*
X011927Y007954D01*
X011887Y007907D01*
X011845Y007862D01*
X011800Y007819D01*
X011753Y007779D01*
X011703Y007743D01*
X011652Y007709D01*
X011598Y007678D01*
X011543Y007650D01*
X011486Y007626D01*
X011428Y007605D01*
X011369Y007588D01*
X011308Y007575D01*
X011248Y007564D01*
X011186Y007558D01*
X011124Y007555D01*
X008644Y007516D01*
X007896Y006138D02*
X007806Y006124D01*
X007716Y006114D01*
X007625Y006108D01*
X007535Y006107D01*
X007444Y006110D01*
X007353Y006117D01*
X007263Y006129D01*
X007174Y006145D01*
X007085Y006164D01*
X006998Y006189D01*
X006912Y006217D01*
X007187Y007476D02*
X005087Y007441D01*
X006242Y008106D02*
X005087Y009362D01*
X006242Y008106D02*
X006290Y008066D01*
X006340Y008028D01*
X006392Y007993D01*
X006446Y007961D01*
X006501Y007933D01*
X006558Y007907D01*
X006616Y007885D01*
X006676Y007866D01*
X006736Y007850D01*
X006798Y007838D01*
X006859Y007830D01*
X006922Y007825D01*
X006984Y007823D01*
X007047Y007825D01*
X007109Y007830D01*
X007108Y007831D02*
X010612Y007870D01*
X010658Y007872D01*
X010703Y007879D01*
X010748Y007889D01*
X010791Y007902D01*
X010834Y007919D01*
X010874Y007940D01*
X010913Y007964D01*
X010950Y007991D01*
X010984Y008021D01*
X011016Y008054D01*
X011045Y008090D01*
X011071Y008127D01*
X011093Y008167D01*
X011112Y008209D01*
X011128Y008251D01*
X011140Y008295D01*
X011148Y008340D01*
X011153Y008386D01*
X011154Y008431D01*
X011151Y008477D01*
X011144Y008522D01*
X004786Y012752D02*
X004727Y012738D01*
X004669Y012719D01*
X004613Y012698D01*
X004557Y012673D01*
X004504Y012645D01*
X004452Y012614D01*
X004402Y012579D01*
X004354Y012542D01*
X004308Y012502D01*
X004265Y012459D01*
X004225Y012414D01*
X004187Y012367D01*
X004152Y012317D01*
X004121Y012266D01*
X004092Y012212D01*
X004066Y012157D01*
X004044Y012101D01*
X004025Y012043D01*
X004010Y011985D01*
X003998Y011925D01*
X005573Y011649D02*
X005503Y012182D01*
X005415Y012712D01*
X007895Y006138D02*
X008130Y006175D01*
X008367Y006201D01*
X008604Y006217D01*
X008643Y007516D02*
X007915Y007508D01*
X007187Y007476D01*
X020145Y008523D02*
X021358Y009523D01*
D17*
X021358Y007523D02*
X021250Y007516D01*
X021142Y007515D01*
X021034Y007519D01*
X020926Y007529D01*
X020818Y007543D01*
X020712Y007563D01*
X020607Y007588D01*
X020503Y007618D01*
X020400Y007652D01*
X020299Y007692D01*
X020201Y007737D01*
X020104Y007786D01*
X020011Y007840D01*
X019919Y007898D01*
X019831Y007961D01*
X019746Y008027D01*
X019145Y008523D01*
X019571Y008734D02*
X019718Y008734D01*
X019742Y008792D02*
X019669Y008617D01*
X019669Y008428D01*
X019670Y008427D01*
X019620Y008468D01*
X019620Y008617D01*
X019547Y008792D01*
X019414Y008926D01*
X019239Y008998D01*
X019050Y008998D01*
X018875Y008926D01*
X018742Y008792D01*
X018669Y008617D01*
X018669Y008428D01*
X018742Y008253D01*
X018875Y008120D01*
X019050Y008047D01*
X019239Y008047D01*
X019288Y008068D01*
X019541Y007860D01*
X019541Y007860D01*
X019581Y007827D01*
X019768Y007673D01*
X020194Y007442D01*
X020194Y007442D01*
X020657Y007297D01*
X020866Y007274D01*
X020892Y007211D01*
X021047Y007056D01*
X021078Y007043D01*
X020947Y006989D01*
X020792Y006834D01*
X020708Y006632D01*
X020708Y006413D01*
X020792Y006211D01*
X020947Y006056D01*
X021149Y005973D01*
X021368Y005973D01*
X021570Y006056D01*
X021701Y006188D01*
X021694Y003406D01*
X021692Y003398D01*
X021671Y003373D01*
X021649Y003365D01*
X021610Y003365D01*
X021551Y003375D01*
X021538Y003365D01*
X002367Y003365D01*
X002367Y003380D01*
X002377Y003440D01*
X002367Y003453D01*
X002377Y019006D01*
X002377Y019007D01*
X002380Y019029D01*
X002402Y019068D01*
X002440Y019091D01*
X002461Y019095D01*
X021590Y019095D01*
X021619Y019091D01*
X021672Y019067D01*
X021711Y019025D01*
X021732Y018970D01*
X021734Y018942D01*
X021734Y018939D01*
X021731Y018867D01*
X021733Y018864D01*
X021733Y018571D01*
X021601Y018703D01*
X021399Y018787D01*
X021180Y018787D01*
X020978Y018703D01*
X020823Y018548D01*
X020810Y018517D01*
X020756Y018648D01*
X020601Y018803D01*
X020399Y018887D01*
X020180Y018887D01*
X019978Y018803D01*
X019823Y018648D01*
X019769Y018517D01*
X019756Y018548D01*
X019601Y018703D01*
X019399Y018787D01*
X019180Y018787D01*
X018978Y018703D01*
X018823Y018548D01*
X018810Y018517D01*
X018756Y018648D01*
X018601Y018803D01*
X018399Y018887D01*
X018180Y018887D01*
X017978Y018803D01*
X017823Y018648D01*
X017769Y018517D01*
X017756Y018548D01*
X017601Y018703D01*
X017399Y018787D01*
X017180Y018787D01*
X016978Y018703D01*
X016823Y018548D01*
X016810Y018517D01*
X016756Y018648D01*
X016601Y018803D01*
X016399Y018887D01*
X016180Y018887D01*
X015978Y018803D01*
X015823Y018648D01*
X015769Y018517D01*
X015756Y018548D01*
X015601Y018703D01*
X015399Y018787D01*
X015180Y018787D01*
X014978Y018703D01*
X014823Y018548D01*
X014810Y018517D01*
X014756Y018648D01*
X014601Y018803D01*
X014399Y018887D01*
X014180Y018887D01*
X013978Y018803D01*
X013823Y018648D01*
X013739Y018446D01*
X013739Y018227D01*
X013823Y018025D01*
X013978Y017871D01*
X014060Y017837D01*
X013973Y017801D01*
X013818Y017646D01*
X013735Y017444D01*
X013735Y017225D01*
X013818Y017023D01*
X013973Y016868D01*
X014175Y016784D01*
X014394Y016784D01*
X014596Y016868D01*
X014751Y017023D01*
X014764Y017054D01*
X014818Y016923D01*
X014973Y016768D01*
X015175Y016684D01*
X015394Y016684D01*
X015596Y016768D01*
X015751Y016923D01*
X015805Y017054D01*
X015818Y017023D01*
X015973Y016868D01*
X016175Y016784D01*
X016394Y016784D01*
X016596Y016868D01*
X016751Y017023D01*
X016764Y017054D01*
X016818Y016923D01*
X016973Y016768D01*
X017175Y016684D01*
X017394Y016684D01*
X017596Y016768D01*
X017751Y016923D01*
X017805Y017054D01*
X017818Y017023D01*
X017973Y016868D01*
X018175Y016784D01*
X018394Y016784D01*
X018596Y016868D01*
X018751Y017023D01*
X018764Y017054D01*
X018818Y016923D01*
X018973Y016768D01*
X019175Y016684D01*
X019394Y016684D01*
X019596Y016768D01*
X019751Y016923D01*
X019805Y017054D01*
X019818Y017023D01*
X019973Y016868D01*
X020175Y016784D01*
X020394Y016784D01*
X020596Y016868D01*
X020751Y017023D01*
X020764Y017054D01*
X020818Y016923D01*
X020973Y016768D01*
X021175Y016684D01*
X021394Y016684D01*
X021596Y016768D01*
X021729Y016900D01*
X021711Y009948D01*
X021670Y009989D01*
X021468Y010073D01*
X021249Y010073D01*
X021047Y009989D01*
X020892Y009834D01*
X020808Y009632D01*
X020808Y009413D01*
X020818Y009389D01*
X020309Y008969D01*
X020239Y008998D01*
X020050Y008998D01*
X019875Y008926D01*
X019742Y008792D01*
X019842Y008892D02*
X019447Y008892D01*
X019620Y008575D02*
X019669Y008575D01*
X019442Y007941D02*
X012753Y007941D01*
X012761Y007950D02*
X012761Y007950D01*
X012868Y008235D01*
X012869Y008292D01*
X012870Y008387D01*
X012879Y009108D01*
X012874Y009489D01*
X013035Y009423D01*
X013254Y009423D01*
X013353Y009464D01*
X013301Y009411D01*
X013246Y009280D01*
X013246Y009137D01*
X013301Y009006D01*
X013402Y008905D01*
X013533Y008850D01*
X013676Y008850D01*
X013807Y008905D01*
X013908Y009006D01*
X013962Y009137D01*
X013962Y009280D01*
X013908Y009411D01*
X013869Y009450D01*
X013870Y009462D01*
X013875Y009589D01*
X014035Y009523D01*
X014254Y009523D01*
X014456Y009606D01*
X014611Y009761D01*
X014624Y009793D01*
X014678Y009661D01*
X014833Y009506D01*
X015035Y009423D01*
X015254Y009423D01*
X015456Y009506D01*
X015611Y009661D01*
X015665Y009793D01*
X015678Y009761D01*
X015833Y009606D01*
X016035Y009523D01*
X016254Y009523D01*
X016456Y009606D01*
X016611Y009761D01*
X016624Y009793D01*
X016678Y009661D01*
X016833Y009506D01*
X017035Y009423D01*
X017254Y009423D01*
X017456Y009506D01*
X017611Y009661D01*
X017665Y009793D01*
X017678Y009761D01*
X017833Y009606D01*
X018035Y009523D01*
X018254Y009523D01*
X018456Y009606D01*
X018611Y009761D01*
X018624Y009793D01*
X018678Y009661D01*
X018833Y009506D01*
X019035Y009423D01*
X019254Y009423D01*
X019456Y009506D01*
X019611Y009661D01*
X019695Y009863D01*
X019695Y010079D01*
X019714Y010071D01*
X019857Y010071D01*
X019988Y010125D01*
X020089Y010226D01*
X020144Y010358D01*
X020144Y010500D01*
X020089Y010632D01*
X019988Y010733D01*
X019857Y010787D01*
X019714Y010787D01*
X019686Y010775D01*
X019633Y010795D01*
X019644Y010800D01*
X019808Y010964D01*
X019808Y010964D01*
X019897Y011179D01*
X019897Y011200D01*
X019897Y012666D01*
X019902Y012736D01*
X019897Y012748D01*
X019897Y012768D01*
X019887Y012778D01*
X019864Y012850D01*
X019865Y012867D01*
X019540Y013251D01*
X019591Y013374D01*
X019591Y013593D01*
X019507Y013795D01*
X019353Y013950D01*
X019321Y013963D01*
X019453Y014017D01*
X019607Y014172D01*
X019691Y014374D01*
X019691Y014593D01*
X019607Y014795D01*
X019453Y014950D01*
X019250Y015033D01*
X019105Y015033D01*
X019086Y015061D01*
X019086Y015061D01*
X018790Y015312D01*
X018790Y015312D01*
X018436Y015472D01*
X018435Y015472D02*
X018332Y015486D01*
X018329Y015491D01*
X018238Y015500D01*
X018149Y015513D01*
X018145Y015509D01*
X014225Y015912D01*
X014098Y015946D01*
X013847Y016063D01*
X013631Y016236D01*
X013461Y016455D01*
X013398Y016576D01*
X013354Y016691D01*
X013176Y016886D01*
X013176Y016886D01*
X012938Y017003D01*
X012816Y017013D01*
X012813Y017019D01*
X012713Y017120D01*
X012581Y017174D01*
X012439Y017174D01*
X012307Y017120D01*
X012206Y017019D01*
X012152Y016888D01*
X012152Y016745D01*
X012206Y016614D01*
X012307Y016513D01*
X012431Y016461D01*
X012429Y016456D01*
X012429Y016314D01*
X012484Y016182D01*
X012584Y016081D01*
X012716Y016027D01*
X012749Y016027D01*
X012754Y016020D01*
X012849Y015878D01*
X012918Y015774D01*
X013228Y015462D01*
X013228Y015462D01*
X013594Y015217D01*
X013779Y015139D01*
X013835Y015104D01*
X014000Y015055D01*
X014075Y015055D01*
X017062Y014756D01*
X017232Y014728D01*
X017557Y014615D01*
X017591Y014594D01*
X017590Y014594D01*
X017590Y014375D01*
X017674Y014173D01*
X017829Y014018D01*
X017860Y014005D01*
X017729Y013950D01*
X017574Y013796D01*
X017490Y013594D01*
X017490Y013375D01*
X017493Y013368D01*
X016512Y012649D01*
X016467Y012758D01*
X016366Y012859D01*
X016235Y012913D01*
X016092Y012913D01*
X015961Y012859D01*
X015863Y012761D01*
X014056Y012610D01*
X014004Y012662D01*
X013872Y012716D01*
X013730Y012716D01*
X013598Y012662D01*
X013498Y012561D01*
X013443Y012429D01*
X013443Y012287D01*
X013498Y012155D01*
X013527Y012126D01*
X013415Y012126D01*
X013283Y012071D01*
X013183Y011970D01*
X013128Y011839D01*
X013128Y011696D01*
X013159Y011623D01*
X013117Y011620D01*
X013059Y011677D01*
X012928Y011732D01*
X012785Y011732D01*
X012654Y011677D01*
X012553Y011577D01*
X012498Y011445D01*
X012498Y011303D01*
X012553Y011171D01*
X012654Y011070D01*
X012785Y011016D01*
X012901Y011016D01*
X012696Y010881D01*
X012552Y010632D01*
X012546Y010531D01*
X012521Y010474D01*
X012456Y010539D01*
X012254Y010623D01*
X012035Y010623D01*
X011833Y010539D01*
X011678Y010384D01*
X011624Y010253D01*
X011611Y010284D01*
X011456Y010439D01*
X011254Y010523D01*
X011035Y010523D01*
X010833Y010439D01*
X010678Y010284D01*
X010665Y010253D01*
X010611Y010384D01*
X010456Y010539D01*
X010254Y010623D01*
X010093Y010623D01*
X010185Y010661D01*
X010286Y010762D01*
X010340Y010893D01*
X010340Y011036D01*
X010286Y011167D01*
X010185Y011268D01*
X010054Y011322D01*
X009982Y011322D01*
X010015Y011356D01*
X010070Y011487D01*
X010070Y011630D01*
X010015Y011761D01*
X010003Y011773D01*
X010116Y011727D01*
X010258Y011727D01*
X010390Y011781D01*
X010491Y011882D01*
X010545Y012014D01*
X010545Y012156D01*
X010491Y012288D01*
X010390Y012388D01*
X010284Y012432D01*
X010109Y012827D01*
X010145Y012914D01*
X010145Y013056D01*
X010091Y013188D01*
X009990Y013288D01*
X009858Y013343D01*
X009716Y013343D01*
X009584Y013288D01*
X009484Y013188D01*
X009429Y013056D01*
X009429Y012914D01*
X009484Y012782D01*
X009584Y012681D01*
X009690Y012638D01*
X009865Y012243D01*
X009829Y012156D01*
X009829Y012014D01*
X009884Y011882D01*
X009896Y011870D01*
X009792Y011913D01*
X009287Y012924D01*
X009317Y012996D01*
X009317Y013138D01*
X009262Y013270D01*
X009162Y013370D01*
X009030Y013425D01*
X008887Y013425D01*
X008756Y013370D01*
X008733Y013348D01*
X008727Y013363D01*
X008626Y013464D01*
X008495Y013519D01*
X008352Y013519D01*
X008220Y013464D01*
X008162Y013406D01*
X008110Y013416D01*
X007953Y013514D01*
X007842Y013662D01*
X007830Y013693D01*
X007888Y013693D01*
X008020Y013747D01*
X008121Y013848D01*
X008175Y013980D01*
X008175Y014122D01*
X008150Y014183D01*
X008188Y014254D01*
X008591Y014813D01*
X009082Y015296D01*
X009648Y015689D01*
X010273Y015980D01*
X010938Y016161D01*
X011017Y016172D01*
X011055Y016134D01*
X011187Y016080D01*
X011329Y016080D01*
X011461Y016134D01*
X011561Y016235D01*
X011616Y016366D01*
X011616Y016509D01*
X011561Y016640D01*
X011461Y016741D01*
X011329Y016796D01*
X011187Y016796D01*
X011137Y016775D01*
X011091Y016888D01*
X010990Y016988D01*
X010858Y017043D01*
X010716Y017043D01*
X010584Y016988D01*
X010577Y016981D01*
X010636Y017123D01*
X010636Y017342D01*
X010552Y017544D01*
X010397Y017699D01*
X010312Y017734D01*
X010400Y017771D01*
X013943Y017771D01*
X013919Y017929D02*
X010556Y017929D01*
X010555Y017926D02*
X010639Y018128D01*
X010639Y018347D01*
X010555Y018549D01*
X010400Y018703D01*
X010198Y018787D01*
X009979Y018787D01*
X009777Y018703D01*
X009622Y018549D01*
X009609Y018517D01*
X009555Y018649D01*
X009400Y018803D01*
X009198Y018887D01*
X008979Y018887D01*
X008777Y018803D01*
X008622Y018649D01*
X008568Y018517D01*
X008555Y018549D01*
X008400Y018703D01*
X008198Y018787D01*
X007979Y018787D01*
X007777Y018703D01*
X007622Y018549D01*
X007609Y018517D01*
X007555Y018649D01*
X007400Y018803D01*
X007198Y018887D01*
X006979Y018887D01*
X006777Y018803D01*
X006622Y018649D01*
X006568Y018517D01*
X006555Y018549D01*
X006400Y018703D01*
X006198Y018787D01*
X005979Y018787D01*
X005777Y018703D01*
X005622Y018549D01*
X005609Y018517D01*
X005555Y018649D01*
X005400Y018803D01*
X005198Y018887D01*
X004979Y018887D01*
X004777Y018803D01*
X004622Y018649D01*
X004568Y018517D01*
X004555Y018549D01*
X004400Y018703D01*
X004198Y018787D01*
X003979Y018787D01*
X003777Y018703D01*
X003622Y018549D01*
X003609Y018517D01*
X003555Y018649D01*
X003400Y018803D01*
X003198Y018887D01*
X002979Y018887D01*
X002777Y018803D01*
X002622Y018649D01*
X002539Y018447D01*
X002539Y018228D01*
X002622Y018026D01*
X002777Y017871D01*
X002863Y017835D01*
X002774Y017799D01*
X002620Y017644D01*
X002536Y017442D01*
X002536Y017223D01*
X002620Y017021D01*
X002774Y016866D01*
X002976Y016783D01*
X003195Y016783D01*
X003397Y016866D01*
X003552Y017021D01*
X003565Y017052D01*
X003620Y016921D01*
X003774Y016766D01*
X003976Y016683D01*
X004195Y016683D01*
X004397Y016766D01*
X004552Y016921D01*
X004607Y017052D01*
X004620Y017021D01*
X004774Y016866D01*
X004976Y016783D01*
X005195Y016783D01*
X005397Y016866D01*
X005552Y017021D01*
X005565Y017052D01*
X005620Y016921D01*
X005774Y016766D01*
X005976Y016683D01*
X006195Y016683D01*
X006397Y016766D01*
X006552Y016921D01*
X006607Y017052D01*
X006620Y017021D01*
X006774Y016866D01*
X006976Y016783D01*
X007195Y016783D01*
X007397Y016866D01*
X007552Y017021D01*
X007565Y017052D01*
X007620Y016921D01*
X007774Y016766D01*
X007976Y016683D01*
X008195Y016683D01*
X008397Y016766D01*
X008552Y016921D01*
X008607Y017052D01*
X008620Y017021D01*
X008774Y016866D01*
X008976Y016783D01*
X009195Y016783D01*
X009397Y016866D01*
X009552Y017021D01*
X009565Y017052D01*
X009620Y016921D01*
X009774Y016766D01*
X009976Y016683D01*
X010066Y016683D01*
X009341Y016376D01*
X009341Y016376D01*
X008992Y016185D01*
X008909Y016139D01*
X008565Y015951D01*
X008565Y015951D01*
X007962Y015448D01*
X007468Y014839D01*
X007322Y014565D01*
X007284Y014493D01*
X007258Y014444D01*
X007239Y014409D01*
X007239Y014409D01*
X007222Y014376D01*
X007177Y014117D01*
X007214Y013856D01*
X007214Y013856D01*
X007330Y013619D01*
X007382Y013566D01*
X007416Y013449D01*
X007631Y013163D01*
X007631Y013163D01*
X007631Y013163D01*
X007935Y012973D01*
X008146Y012931D01*
X008220Y012857D01*
X008352Y012802D01*
X008495Y012802D01*
X008626Y012857D01*
X008649Y012879D01*
X008655Y012864D01*
X008756Y012763D01*
X008879Y012712D01*
X009383Y011701D01*
X009354Y011630D01*
X009354Y011487D01*
X009408Y011356D01*
X009509Y011255D01*
X009641Y011200D01*
X009712Y011200D01*
X009679Y011167D01*
X009624Y011036D01*
X009624Y010893D01*
X009644Y010846D01*
X009623Y010813D01*
X009346Y010484D01*
X009254Y010523D01*
X009035Y010523D01*
X008833Y010439D01*
X008678Y010284D01*
X008595Y010082D01*
X008595Y009863D01*
X008678Y009661D01*
X008833Y009506D01*
X009035Y009423D01*
X009254Y009423D01*
X009456Y009506D01*
X009611Y009661D01*
X009665Y009793D01*
X009678Y009761D01*
X009833Y009606D01*
X010035Y009523D01*
X010254Y009523D01*
X010456Y009606D01*
X010611Y009761D01*
X010624Y009793D01*
X010678Y009661D01*
X010833Y009506D01*
X011035Y009423D01*
X011254Y009423D01*
X011456Y009506D01*
X011611Y009661D01*
X011665Y009793D01*
X011678Y009761D01*
X011833Y009606D01*
X012035Y009523D01*
X012254Y009523D01*
X012411Y009588D01*
X012414Y009108D01*
X012413Y008926D01*
X012239Y008998D01*
X012050Y008998D01*
X011875Y008926D01*
X011742Y008792D01*
X011669Y008617D01*
X011669Y008428D01*
X011742Y008253D01*
X011799Y008196D01*
X011658Y008014D01*
X011464Y007879D01*
X011238Y007806D01*
X011120Y007795D01*
X011090Y007794D01*
X011227Y007912D01*
X011321Y008081D01*
X011414Y008120D01*
X011547Y008253D01*
X011620Y008428D01*
X011620Y008617D01*
X011547Y008792D01*
X011414Y008926D01*
X011239Y008998D01*
X011050Y008998D01*
X010875Y008926D01*
X010742Y008792D01*
X010669Y008617D01*
X010669Y008428D01*
X010742Y008253D01*
X010806Y008189D01*
X010764Y008153D01*
X010663Y008115D01*
X010610Y008110D01*
X010579Y008109D01*
X010562Y008109D01*
X010384Y008107D01*
X010414Y008120D01*
X010547Y008253D01*
X010620Y008428D01*
X010620Y008617D01*
X010547Y008792D01*
X010414Y008926D01*
X010239Y008998D01*
X010050Y008998D01*
X009875Y008926D01*
X009742Y008792D01*
X009669Y008617D01*
X009669Y008428D01*
X009742Y008253D01*
X009875Y008120D01*
X009918Y008102D01*
X009356Y008096D01*
X009414Y008120D01*
X009547Y008253D01*
X009620Y008428D01*
X009620Y008617D01*
X009547Y008792D01*
X009414Y008926D01*
X009239Y008998D01*
X009050Y008998D01*
X008875Y008926D01*
X008742Y008792D01*
X008669Y008617D01*
X008669Y008428D01*
X008742Y008253D01*
X008875Y008120D01*
X008944Y008091D01*
X008328Y008084D01*
X008414Y008120D01*
X008547Y008253D01*
X008620Y008428D01*
X008620Y008617D01*
X008547Y008792D01*
X008414Y008926D01*
X008239Y008998D01*
X008050Y008998D01*
X007875Y008926D01*
X007742Y008792D01*
X007669Y008617D01*
X007669Y008428D01*
X007742Y008253D01*
X007875Y008120D01*
X007971Y008080D01*
X007300Y008073D01*
X007414Y008120D01*
X007547Y008253D01*
X007620Y008428D01*
X007620Y008617D01*
X007547Y008792D01*
X007414Y008926D01*
X007239Y008998D01*
X007050Y008998D01*
X006875Y008926D01*
X006742Y008792D01*
X006669Y008617D01*
X006669Y008428D01*
X006742Y008253D01*
X006875Y008120D01*
X007006Y008066D01*
X006959Y008063D01*
X006718Y008104D01*
X006499Y008210D01*
X006408Y008281D01*
X005569Y009193D01*
X005597Y009261D01*
X005597Y009464D01*
X005519Y009651D01*
X005376Y009794D01*
X005189Y009872D01*
X004986Y009872D01*
X004798Y009794D01*
X004655Y009651D01*
X004577Y009464D01*
X004577Y009261D01*
X004655Y009073D01*
X004798Y008930D01*
X004986Y008852D01*
X005189Y008852D01*
X005219Y008865D01*
X006041Y007970D01*
X006046Y007960D01*
X006073Y007935D01*
X006098Y007909D01*
X006109Y007904D01*
X006224Y007800D01*
X006424Y007703D01*
X005536Y007688D01*
X005519Y007730D01*
X005376Y007873D01*
X005189Y007951D01*
X004986Y007951D01*
X004798Y007873D01*
X004655Y007730D01*
X004577Y007542D01*
X004577Y007339D01*
X004655Y007152D01*
X004798Y007008D01*
X004986Y006931D01*
X005189Y006931D01*
X005376Y007008D01*
X005519Y007152D01*
X005543Y007208D01*
X007149Y007236D01*
X007153Y007234D01*
X007196Y007236D01*
X007239Y007237D01*
X007242Y007238D01*
X007922Y007268D01*
X008599Y007275D01*
X008600Y007275D01*
X008644Y007276D01*
X008690Y007275D01*
X008693Y007276D01*
X010028Y007298D01*
X009793Y007153D01*
X009793Y007153D01*
X009477Y006797D01*
X009418Y006668D01*
X009110Y005998D01*
X009050Y005998D01*
X008875Y005926D01*
X008742Y005792D01*
X008669Y005617D01*
X008669Y005428D01*
X008742Y005253D01*
X008875Y005120D01*
X009050Y005047D01*
X009239Y005047D01*
X009414Y005120D01*
X009547Y005253D01*
X009620Y005428D01*
X009620Y005617D01*
X009547Y005792D01*
X009530Y005810D01*
X009796Y006389D01*
X009877Y006536D01*
X009877Y006536D01*
X010100Y006787D01*
X010386Y006963D01*
X010711Y007049D01*
X010878Y007055D01*
X010879Y007055D01*
X011131Y007046D01*
X011628Y007140D01*
X012091Y007343D01*
X012497Y007643D01*
X012599Y007763D01*
X012599Y007763D01*
X012662Y007835D01*
X012674Y007849D01*
X012724Y007907D01*
X012761Y007950D01*
X012724Y007907D02*
X012724Y007907D01*
X012617Y007783D02*
X019634Y007783D01*
X019768Y007673D02*
X019768Y007673D01*
X019858Y007624D02*
X012471Y007624D01*
X012497Y007643D02*
X012497Y007643D01*
X012256Y007466D02*
X020151Y007466D01*
X020625Y007307D02*
X012009Y007307D01*
X012091Y007343D02*
X012091Y007343D01*
X011646Y007148D02*
X020955Y007148D01*
X020949Y006990D02*
X010487Y006990D01*
X010171Y006831D02*
X020791Y006831D01*
X020725Y006673D02*
X009999Y006673D01*
X009865Y006514D02*
X020708Y006514D01*
X020732Y006356D02*
X009781Y006356D01*
X009708Y006197D02*
X020806Y006197D01*
X020990Y006039D02*
X009635Y006039D01*
X009562Y005880D02*
X009830Y005880D01*
X009875Y005926D02*
X009742Y005792D01*
X009669Y005617D01*
X009669Y005428D01*
X009742Y005253D01*
X009875Y005120D01*
X010050Y005047D01*
X010239Y005047D01*
X010414Y005120D01*
X010547Y005253D01*
X010620Y005428D01*
X010620Y005617D01*
X010547Y005792D01*
X010414Y005926D01*
X010239Y005998D01*
X010050Y005998D01*
X009875Y005926D01*
X009713Y005722D02*
X009577Y005722D01*
X009620Y005563D02*
X009669Y005563D01*
X009679Y005404D02*
X009610Y005404D01*
X009540Y005246D02*
X009749Y005246D01*
X009953Y005087D02*
X009336Y005087D01*
X008953Y005087D02*
X008336Y005087D01*
X008414Y005120D02*
X008239Y005047D01*
X008050Y005047D01*
X007875Y005120D01*
X007742Y005253D01*
X007669Y005428D01*
X007669Y005617D01*
X007742Y005792D01*
X007832Y005882D01*
X007661Y005851D01*
X007473Y005866D01*
X007547Y005792D01*
X007620Y005617D01*
X007620Y005428D01*
X007547Y005253D01*
X007414Y005120D01*
X007239Y005047D01*
X007050Y005047D01*
X006875Y005120D01*
X006742Y005253D01*
X006669Y005428D01*
X006669Y005617D01*
X006742Y005792D01*
X006818Y005868D01*
X006709Y005913D01*
X006608Y006014D01*
X006553Y006145D01*
X006553Y006288D01*
X006608Y006419D01*
X006709Y006520D01*
X006840Y006574D01*
X006983Y006574D01*
X007114Y006520D01*
X007215Y006419D01*
X007231Y006381D01*
X007636Y006349D01*
X007853Y006374D01*
X007853Y006374D01*
X007883Y006379D01*
X007900Y006382D01*
X007900Y006382D01*
X008221Y006441D01*
X008221Y006441D01*
X008327Y006445D01*
X008402Y006520D01*
X008533Y006574D01*
X008676Y006574D01*
X008807Y006520D01*
X008908Y006419D01*
X008962Y006288D01*
X008962Y006145D01*
X008908Y006014D01*
X008807Y005913D01*
X008676Y005858D01*
X008533Y005858D01*
X008444Y005895D01*
X008547Y005792D01*
X008620Y005617D01*
X008620Y005428D01*
X008547Y005253D01*
X008414Y005120D01*
X008540Y005246D02*
X008749Y005246D01*
X008679Y005404D02*
X008610Y005404D01*
X008620Y005563D02*
X008669Y005563D01*
X008713Y005722D02*
X008577Y005722D01*
X008480Y005880D02*
X008459Y005880D01*
X008728Y005880D02*
X008830Y005880D01*
X008918Y006039D02*
X009129Y006039D01*
X009202Y006197D02*
X008962Y006197D01*
X008934Y006356D02*
X009275Y006356D01*
X009347Y006514D02*
X008813Y006514D01*
X008396Y006514D02*
X007120Y006514D01*
X006703Y006514D02*
X002369Y006514D01*
X002369Y006356D02*
X006582Y006356D01*
X006553Y006197D02*
X002369Y006197D01*
X002369Y006039D02*
X006597Y006039D01*
X006788Y005880D02*
X002369Y005880D01*
X002369Y005722D02*
X006713Y005722D01*
X006669Y005563D02*
X002369Y005563D01*
X002369Y005404D02*
X006679Y005404D01*
X006749Y005246D02*
X002368Y005246D01*
X002368Y005087D02*
X006953Y005087D01*
X007336Y005087D02*
X007953Y005087D01*
X007749Y005246D02*
X007540Y005246D01*
X007610Y005404D02*
X007679Y005404D01*
X007669Y005563D02*
X007620Y005563D01*
X007577Y005722D02*
X007713Y005722D01*
X007821Y005880D02*
X007830Y005880D01*
X007697Y006356D02*
X007548Y006356D01*
X009418Y006668D02*
X009418Y006668D01*
X009420Y006673D02*
X002369Y006673D01*
X002369Y006831D02*
X009508Y006831D01*
X009648Y006990D02*
X005331Y006990D01*
X005516Y007148D02*
X009789Y007148D01*
X009707Y008100D02*
X009365Y008100D01*
X009549Y008258D02*
X009740Y008258D01*
X009674Y008417D02*
X009615Y008417D01*
X009620Y008575D02*
X009669Y008575D01*
X009718Y008734D02*
X009571Y008734D01*
X009447Y008892D02*
X009842Y008892D01*
X010447Y008892D02*
X010842Y008892D01*
X010718Y008734D02*
X010571Y008734D01*
X010620Y008575D02*
X010669Y008575D01*
X010674Y008417D02*
X010615Y008417D01*
X010549Y008258D02*
X010740Y008258D01*
X011243Y007941D02*
X011553Y007941D01*
X011725Y008100D02*
X011365Y008100D01*
X011227Y007912D02*
X011227Y007912D01*
X011549Y008258D02*
X011740Y008258D01*
X011674Y008417D02*
X011615Y008417D01*
X011620Y008575D02*
X011669Y008575D01*
X011718Y008734D02*
X011571Y008734D01*
X011447Y008892D02*
X011842Y008892D01*
X012414Y009051D02*
X005699Y009051D01*
X005576Y009210D02*
X012414Y009210D01*
X012413Y009368D02*
X005597Y009368D01*
X005571Y009527D02*
X008813Y009527D01*
X008668Y009685D02*
X005485Y009685D01*
X005257Y009844D02*
X008603Y009844D01*
X008595Y010002D02*
X002371Y010002D01*
X002371Y009844D02*
X004917Y009844D01*
X004689Y009685D02*
X002371Y009685D01*
X002371Y009527D02*
X004603Y009527D01*
X004577Y009368D02*
X002371Y009368D01*
X002371Y009210D02*
X004598Y009210D01*
X004677Y009051D02*
X002371Y009051D01*
X002371Y008892D02*
X004888Y008892D01*
X005339Y008734D02*
X002371Y008734D01*
X002370Y008575D02*
X005485Y008575D01*
X005630Y008417D02*
X002370Y008417D01*
X002370Y008258D02*
X005776Y008258D01*
X005922Y008100D02*
X002370Y008100D01*
X002370Y007941D02*
X004963Y007941D01*
X005212Y007941D02*
X006067Y007941D01*
X006224Y007800D02*
X006224Y007800D01*
X006260Y007783D02*
X005466Y007783D01*
X004708Y007783D02*
X002370Y007783D01*
X002370Y007624D02*
X004611Y007624D01*
X004577Y007466D02*
X002370Y007466D01*
X002370Y007307D02*
X004590Y007307D01*
X004658Y007148D02*
X002370Y007148D01*
X002369Y006990D02*
X004843Y006990D01*
X006282Y008417D02*
X006674Y008417D01*
X006669Y008575D02*
X006137Y008575D01*
X005991Y008734D02*
X006718Y008734D01*
X006842Y008892D02*
X005845Y008892D01*
X006436Y008258D02*
X006740Y008258D01*
X006743Y008100D02*
X006924Y008100D01*
X007365Y008100D02*
X007924Y008100D01*
X007740Y008258D02*
X007549Y008258D01*
X007615Y008417D02*
X007674Y008417D01*
X007669Y008575D02*
X007620Y008575D01*
X007571Y008734D02*
X007718Y008734D01*
X007842Y008892D02*
X007447Y008892D01*
X008447Y008892D02*
X008842Y008892D01*
X008718Y008734D02*
X008571Y008734D01*
X008620Y008575D02*
X008669Y008575D01*
X008674Y008417D02*
X008615Y008417D01*
X008549Y008258D02*
X008740Y008258D01*
X008924Y008100D02*
X008365Y008100D01*
X009476Y009527D02*
X010026Y009527D01*
X010263Y009527D02*
X010813Y009527D01*
X010668Y009685D02*
X010535Y009685D01*
X010638Y010319D02*
X010713Y010319D01*
X010517Y010478D02*
X010927Y010478D01*
X011362Y010478D02*
X011772Y010478D01*
X011651Y010319D02*
X011576Y010319D01*
X011621Y009685D02*
X011754Y009685D01*
X012026Y009527D02*
X011476Y009527D01*
X012263Y009527D02*
X012412Y009527D01*
X012875Y009368D02*
X013283Y009368D01*
X013246Y009210D02*
X012877Y009210D01*
X012878Y009051D02*
X013282Y009051D01*
X013432Y008892D02*
X012876Y008892D01*
X012874Y008734D02*
X013718Y008734D01*
X013742Y008792D02*
X013669Y008617D01*
X013669Y008428D01*
X013742Y008253D01*
X013875Y008120D01*
X014050Y008047D01*
X014239Y008047D01*
X014414Y008120D01*
X014547Y008253D01*
X014620Y008428D01*
X014620Y008617D01*
X014547Y008792D01*
X014414Y008926D01*
X014239Y008998D01*
X014050Y008998D01*
X013875Y008926D01*
X013742Y008792D01*
X013777Y008892D02*
X013842Y008892D01*
X013927Y009051D02*
X020408Y009051D01*
X020601Y009210D02*
X013962Y009210D01*
X013926Y009368D02*
X020793Y009368D01*
X020808Y009527D02*
X019476Y009527D01*
X019621Y009685D02*
X020830Y009685D01*
X020902Y009844D02*
X019686Y009844D01*
X019695Y010002D02*
X021079Y010002D01*
X021638Y010002D02*
X021711Y010002D01*
X021711Y010161D02*
X020024Y010161D01*
X020128Y010319D02*
X021712Y010319D01*
X021712Y010478D02*
X020144Y010478D01*
X020084Y010636D02*
X021713Y010636D01*
X021713Y010795D02*
X019634Y010795D01*
X019798Y010954D02*
X020773Y010954D01*
X020776Y010951D02*
X020978Y010868D01*
X021196Y010868D01*
X021399Y010951D01*
X021553Y011106D01*
X021637Y011308D01*
X021637Y011527D01*
X021553Y011729D01*
X021399Y011884D01*
X021196Y011968D01*
X020978Y011968D01*
X020776Y011884D01*
X020621Y011729D01*
X020537Y011527D01*
X020537Y011308D01*
X020621Y011106D01*
X020776Y010951D01*
X020618Y011112D02*
X019870Y011112D01*
X019897Y011179D02*
X019897Y011179D01*
X019897Y011200D02*
X019897Y011200D01*
X019897Y011271D02*
X020553Y011271D01*
X020537Y011429D02*
X019897Y011429D01*
X019897Y011588D02*
X020562Y011588D01*
X020638Y011746D02*
X019897Y011746D01*
X019897Y011905D02*
X020826Y011905D01*
X021348Y011905D02*
X021716Y011905D01*
X021716Y012063D02*
X019897Y012063D01*
X019897Y012222D02*
X021717Y012222D01*
X021717Y012380D02*
X019897Y012380D01*
X019897Y012539D02*
X021717Y012539D01*
X021718Y012697D02*
X019899Y012697D01*
X019902Y012736D02*
X019902Y012736D01*
X019864Y012856D02*
X021718Y012856D01*
X021719Y013015D02*
X019740Y013015D01*
X019606Y013173D02*
X021719Y013173D01*
X021719Y013332D02*
X019573Y013332D01*
X019591Y013490D02*
X021720Y013490D01*
X021720Y013649D02*
X019568Y013649D01*
X019495Y013807D02*
X021721Y013807D01*
X021721Y013966D02*
X021415Y013966D01*
X021397Y013948D02*
X021552Y014103D01*
X021636Y014305D01*
X021636Y014524D01*
X021552Y014726D01*
X021397Y014881D01*
X021195Y014964D01*
X020976Y014964D01*
X020774Y014881D01*
X020620Y014726D01*
X020536Y014524D01*
X020536Y014305D01*
X020620Y014103D01*
X020774Y013948D01*
X020976Y013864D01*
X021195Y013864D01*
X021397Y013948D01*
X021561Y014124D02*
X021721Y014124D01*
X021722Y014283D02*
X021627Y014283D01*
X021636Y014441D02*
X021722Y014441D01*
X021723Y014600D02*
X021604Y014600D01*
X021520Y014759D02*
X021723Y014759D01*
X021724Y014917D02*
X021310Y014917D01*
X021724Y015076D02*
X019069Y015076D01*
X018882Y015234D02*
X021724Y015234D01*
X021725Y015393D02*
X018611Y015393D01*
X018436Y015472D02*
X018435Y015472D01*
X017738Y015551D02*
X021725Y015551D01*
X021726Y015710D02*
X016195Y015710D01*
X015454Y014917D02*
X012632Y014917D01*
X012603Y014985D02*
X012491Y015097D01*
X012345Y015158D01*
X012191Y015158D01*
X012191Y015228D01*
X012345Y015228D01*
X012491Y015288D01*
X012603Y015400D01*
X012664Y015547D01*
X012664Y015705D01*
X012603Y015851D01*
X012491Y015963D01*
X012345Y016024D01*
X012187Y016024D01*
X012040Y015963D01*
X011928Y015851D01*
X011868Y015705D01*
X011868Y015591D01*
X011714Y015591D01*
X011568Y015530D01*
X011456Y015418D01*
X011395Y015272D01*
X011395Y015114D01*
X011456Y014967D01*
X011568Y014855D01*
X011714Y014795D01*
X011868Y014795D01*
X011868Y014764D01*
X011714Y014764D01*
X011568Y014703D01*
X011456Y014591D01*
X011395Y014445D01*
X011395Y014287D01*
X011456Y014140D01*
X011568Y014028D01*
X011714Y013968D01*
X011868Y013968D01*
X011868Y013898D01*
X011714Y013898D01*
X011568Y013837D01*
X011456Y013725D01*
X011395Y013579D01*
X011395Y013421D01*
X011456Y013274D01*
X011568Y013162D01*
X011656Y013126D01*
X011568Y013089D01*
X011456Y012977D01*
X011395Y012831D01*
X011395Y012673D01*
X011456Y012526D01*
X011568Y012414D01*
X011714Y012354D01*
X011873Y012354D01*
X012019Y012414D01*
X012131Y012526D01*
X012191Y012673D01*
X012191Y012708D01*
X012345Y012708D01*
X012491Y012769D01*
X012603Y012881D01*
X012664Y013027D01*
X012664Y013185D01*
X012603Y013332D01*
X017443Y013332D01*
X017490Y013490D02*
X012379Y013490D01*
X012356Y013500D02*
X012491Y013556D01*
X012603Y013668D01*
X012664Y013814D01*
X012664Y013973D01*
X012603Y014119D01*
X012491Y014231D01*
X012345Y014292D01*
X012191Y014292D01*
X012191Y014362D01*
X012345Y014362D01*
X012491Y014422D01*
X012603Y014534D01*
X012664Y014680D01*
X012664Y014839D01*
X012603Y014985D01*
X012513Y015076D02*
X013931Y015076D01*
X014000Y015055D02*
X014000Y015055D01*
X013835Y015104D02*
X013835Y015104D01*
X013594Y015217D02*
X013594Y015217D01*
X013568Y015234D02*
X012361Y015234D01*
X012596Y015393D02*
X013332Y015393D01*
X013140Y015551D02*
X012664Y015551D01*
X012662Y015710D02*
X012982Y015710D01*
X012918Y015774D02*
X012918Y015774D01*
X012855Y015868D02*
X012586Y015868D01*
X012716Y016027D02*
X010445Y016027D01*
X010033Y015868D02*
X011945Y015868D01*
X011870Y015710D02*
X009693Y015710D01*
X009450Y015551D02*
X011619Y015551D01*
X011445Y015393D02*
X009221Y015393D01*
X009019Y015234D02*
X011395Y015234D01*
X011411Y015076D02*
X008858Y015076D01*
X008696Y014917D02*
X011506Y014917D01*
X011701Y014759D02*
X008551Y014759D01*
X008437Y014600D02*
X011464Y014600D01*
X011395Y014441D02*
X008323Y014441D01*
X008209Y014283D02*
X011397Y014283D01*
X011472Y014124D02*
X008174Y014124D01*
X008169Y013966D02*
X011868Y013966D01*
X012366Y014283D02*
X017628Y014283D01*
X017590Y014441D02*
X012511Y014441D01*
X012631Y014600D02*
X017582Y014600D01*
X017722Y014124D02*
X012598Y014124D01*
X012664Y013966D02*
X017766Y013966D01*
X017586Y013807D02*
X012661Y013807D01*
X012584Y013649D02*
X017513Y013649D01*
X017227Y013173D02*
X012664Y013173D01*
X012659Y013015D02*
X017010Y013015D01*
X016794Y012856D02*
X016369Y012856D01*
X016492Y012697D02*
X016578Y012697D01*
X015958Y012856D02*
X012579Y012856D01*
X012191Y012697D02*
X013685Y012697D01*
X013918Y012697D02*
X015104Y012697D01*
X013489Y012539D02*
X012136Y012539D01*
X011937Y012380D02*
X013443Y012380D01*
X013470Y012222D02*
X010518Y012222D01*
X010545Y012063D02*
X013276Y012063D01*
X013156Y011905D02*
X010500Y011905D01*
X010305Y011746D02*
X013128Y011746D01*
X012564Y011588D02*
X010070Y011588D01*
X010069Y011746D02*
X010022Y011746D01*
X009874Y011905D02*
X009812Y011905D01*
X009829Y012063D02*
X009717Y012063D01*
X009638Y012222D02*
X009856Y012222D01*
X009804Y012380D02*
X009559Y012380D01*
X009479Y012539D02*
X009734Y012539D01*
X009568Y012697D02*
X009400Y012697D01*
X009453Y012856D02*
X009321Y012856D01*
X009317Y013015D02*
X009429Y013015D01*
X009477Y013173D02*
X009302Y013173D01*
X009200Y013332D02*
X009689Y013332D01*
X009886Y013332D02*
X011432Y013332D01*
X011395Y013490D02*
X008563Y013490D01*
X008284Y013490D02*
X007992Y013490D01*
X007852Y013649D02*
X011424Y013649D01*
X011538Y013807D02*
X008080Y013807D01*
X007504Y013332D02*
X002373Y013332D01*
X002373Y013490D02*
X007404Y013490D01*
X007416Y013449D02*
X007416Y013449D01*
X007330Y013619D02*
X007330Y013619D01*
X007316Y013649D02*
X002374Y013649D01*
X002374Y013807D02*
X007238Y013807D01*
X007198Y013966D02*
X002374Y013966D01*
X002374Y014124D02*
X007178Y014124D01*
X007206Y014283D02*
X002374Y014283D01*
X002374Y014441D02*
X007257Y014441D01*
X007284Y014493D02*
X007284Y014493D01*
X007341Y014600D02*
X002374Y014600D01*
X002374Y014759D02*
X007425Y014759D01*
X007468Y014839D02*
X007468Y014839D01*
X007531Y014917D02*
X002374Y014917D01*
X002374Y015076D02*
X007660Y015076D01*
X007788Y015234D02*
X002374Y015234D01*
X002375Y015393D02*
X007917Y015393D01*
X007962Y015448D02*
X007962Y015448D01*
X007962Y015448D01*
X008086Y015551D02*
X002375Y015551D01*
X002375Y015710D02*
X008276Y015710D01*
X008466Y015868D02*
X002375Y015868D01*
X002375Y016027D02*
X008704Y016027D01*
X008992Y016185D02*
X008992Y016185D01*
X008993Y016185D02*
X002375Y016185D01*
X002375Y016344D02*
X009283Y016344D01*
X009640Y016503D02*
X002375Y016503D01*
X002375Y016661D02*
X010015Y016661D01*
X009721Y016820D02*
X009285Y016820D01*
X009509Y016978D02*
X009596Y016978D01*
X008887Y016820D02*
X008451Y016820D01*
X008576Y016978D02*
X008662Y016978D01*
X007721Y016820D02*
X007285Y016820D01*
X007509Y016978D02*
X007596Y016978D01*
X006887Y016820D02*
X006451Y016820D01*
X006576Y016978D02*
X006662Y016978D01*
X005721Y016820D02*
X005285Y016820D01*
X005509Y016978D02*
X005596Y016978D01*
X004887Y016820D02*
X004451Y016820D01*
X004576Y016978D02*
X004662Y016978D01*
X003721Y016820D02*
X003285Y016820D01*
X003509Y016978D02*
X003596Y016978D01*
X002887Y016820D02*
X002375Y016820D01*
X002375Y016978D02*
X002662Y016978D01*
X002572Y017137D02*
X002376Y017137D01*
X002376Y017295D02*
X002536Y017295D01*
X002541Y017454D02*
X002376Y017454D01*
X002376Y017612D02*
X002607Y017612D01*
X002746Y017771D02*
X002376Y017771D01*
X002376Y017929D02*
X002719Y017929D01*
X002597Y018088D02*
X002376Y018088D01*
X002376Y018246D02*
X002539Y018246D01*
X002539Y018405D02*
X002376Y018405D01*
X002376Y018564D02*
X002587Y018564D01*
X002696Y018722D02*
X002377Y018722D01*
X002377Y018881D02*
X002963Y018881D01*
X003214Y018881D02*
X004963Y018881D01*
X005214Y018881D02*
X006963Y018881D01*
X007214Y018881D02*
X008963Y018881D01*
X009214Y018881D02*
X014165Y018881D01*
X014414Y018881D02*
X016165Y018881D01*
X016414Y018881D02*
X018165Y018881D01*
X018414Y018881D02*
X020165Y018881D01*
X020414Y018881D02*
X021732Y018881D01*
X021733Y018722D02*
X021555Y018722D01*
X021698Y019039D02*
X002386Y019039D01*
X003482Y018722D02*
X003822Y018722D01*
X003637Y018564D02*
X003590Y018564D01*
X004355Y018722D02*
X004696Y018722D01*
X004587Y018564D02*
X004540Y018564D01*
X005482Y018722D02*
X005822Y018722D01*
X005637Y018564D02*
X005590Y018564D01*
X006355Y018722D02*
X006696Y018722D01*
X006587Y018564D02*
X006540Y018564D01*
X007482Y018722D02*
X007822Y018722D01*
X007637Y018564D02*
X007590Y018564D01*
X008355Y018722D02*
X008696Y018722D01*
X008587Y018564D02*
X008540Y018564D01*
X009482Y018722D02*
X009822Y018722D01*
X009637Y018564D02*
X009590Y018564D01*
X010355Y018722D02*
X013897Y018722D01*
X013788Y018564D02*
X010540Y018564D01*
X010614Y018405D02*
X013739Y018405D01*
X013739Y018246D02*
X010639Y018246D01*
X010622Y018088D02*
X013797Y018088D01*
X013805Y017612D02*
X010484Y017612D01*
X010400Y017771D02*
X010555Y017926D01*
X010590Y017454D02*
X013739Y017454D01*
X013735Y017295D02*
X010636Y017295D01*
X010636Y017137D02*
X012348Y017137D01*
X012189Y016978D02*
X011000Y016978D01*
X011119Y016820D02*
X012152Y016820D01*
X012187Y016661D02*
X011541Y016661D01*
X011616Y016503D02*
X012332Y016503D01*
X012429Y016344D02*
X011607Y016344D01*
X011512Y016185D02*
X012482Y016185D01*
X012849Y015878D02*
X012849Y015878D01*
X013437Y016503D02*
X021728Y016503D01*
X021728Y016661D02*
X013366Y016661D01*
X013354Y016691D02*
X013354Y016691D01*
X013237Y016820D02*
X014090Y016820D01*
X013863Y016978D02*
X012989Y016978D01*
X012938Y017003D02*
X012938Y017003D01*
X012672Y017137D02*
X013771Y017137D01*
X014479Y016820D02*
X014922Y016820D01*
X014796Y016978D02*
X014706Y016978D01*
X015648Y016820D02*
X016090Y016820D01*
X015863Y016978D02*
X015774Y016978D01*
X016479Y016820D02*
X016922Y016820D01*
X016796Y016978D02*
X016706Y016978D01*
X017648Y016820D02*
X018090Y016820D01*
X017863Y016978D02*
X017774Y016978D01*
X018479Y016820D02*
X018922Y016820D01*
X018796Y016978D02*
X018706Y016978D01*
X019648Y016820D02*
X020090Y016820D01*
X019863Y016978D02*
X019774Y016978D01*
X020479Y016820D02*
X020922Y016820D01*
X020796Y016978D02*
X020706Y016978D01*
X021648Y016820D02*
X021728Y016820D01*
X021727Y016344D02*
X013547Y016344D01*
X013694Y016185D02*
X021727Y016185D01*
X021726Y016027D02*
X013924Y016027D01*
X014652Y015868D02*
X021726Y015868D01*
X020862Y014917D02*
X019485Y014917D01*
X019622Y014759D02*
X020652Y014759D01*
X020567Y014600D02*
X019688Y014600D01*
X019691Y014441D02*
X020536Y014441D01*
X020545Y014283D02*
X019653Y014283D01*
X019560Y014124D02*
X020611Y014124D01*
X020757Y013966D02*
X019329Y013966D01*
X017039Y014759D02*
X012664Y014759D01*
X012356Y013500D02*
X012491Y013444D01*
X012603Y013332D01*
X011557Y013173D02*
X010097Y013173D01*
X010145Y013015D02*
X011493Y013015D01*
X011406Y012856D02*
X010121Y012856D01*
X010166Y012697D02*
X011395Y012697D01*
X011451Y012539D02*
X010237Y012539D01*
X010398Y012380D02*
X011650Y012380D01*
X012498Y011429D02*
X010046Y011429D01*
X010179Y011271D02*
X012511Y011271D01*
X012612Y011112D02*
X010309Y011112D01*
X010340Y010954D02*
X012806Y010954D01*
X012696Y010881D02*
X012696Y010881D01*
X012696Y010881D01*
X012646Y010795D02*
X010300Y010795D01*
X010126Y010636D02*
X012554Y010636D01*
X012552Y010632D02*
X012552Y010632D01*
X012523Y010478D02*
X012517Y010478D01*
X013873Y009527D02*
X014026Y009527D01*
X013870Y009462D02*
X013870Y009462D01*
X014263Y009527D02*
X014813Y009527D01*
X014668Y009685D02*
X014535Y009685D01*
X014447Y008892D02*
X014842Y008892D01*
X014875Y008926D02*
X014742Y008792D01*
X014669Y008617D01*
X014669Y008428D01*
X014742Y008253D01*
X014875Y008120D01*
X015050Y008047D01*
X015239Y008047D01*
X015414Y008120D01*
X015547Y008253D01*
X015620Y008428D01*
X015620Y008617D01*
X015547Y008792D01*
X015414Y008926D01*
X015239Y008998D01*
X015050Y008998D01*
X014875Y008926D01*
X014718Y008734D02*
X014571Y008734D01*
X014620Y008575D02*
X014669Y008575D01*
X014674Y008417D02*
X014615Y008417D01*
X014549Y008258D02*
X014740Y008258D01*
X014924Y008100D02*
X014365Y008100D01*
X013924Y008100D02*
X012817Y008100D01*
X012868Y008235D02*
X012868Y008235D01*
X012868Y008258D02*
X013740Y008258D01*
X013674Y008417D02*
X012870Y008417D01*
X012869Y008292D02*
X012869Y008292D01*
X012872Y008575D02*
X013669Y008575D01*
X015365Y008100D02*
X015924Y008100D01*
X015875Y008120D02*
X016050Y008047D01*
X016239Y008047D01*
X016414Y008120D01*
X016547Y008253D01*
X016620Y008428D01*
X016620Y008617D01*
X016547Y008792D01*
X016414Y008926D01*
X016239Y008998D01*
X016050Y008998D01*
X015875Y008926D01*
X015742Y008792D01*
X015669Y008617D01*
X015669Y008428D01*
X015742Y008253D01*
X015875Y008120D01*
X015740Y008258D02*
X015549Y008258D01*
X015615Y008417D02*
X015674Y008417D01*
X015669Y008575D02*
X015620Y008575D01*
X015571Y008734D02*
X015718Y008734D01*
X015842Y008892D02*
X015447Y008892D01*
X015476Y009527D02*
X016026Y009527D01*
X016263Y009527D02*
X016813Y009527D01*
X016668Y009685D02*
X016535Y009685D01*
X015754Y009685D02*
X015621Y009685D01*
X016447Y008892D02*
X016842Y008892D01*
X016875Y008926D02*
X016742Y008792D01*
X016669Y008617D01*
X016669Y008428D01*
X016742Y008253D01*
X016875Y008120D01*
X017050Y008047D01*
X017239Y008047D01*
X017414Y008120D01*
X017547Y008253D01*
X017620Y008428D01*
X017620Y008617D01*
X017547Y008792D01*
X017414Y008926D01*
X017239Y008998D01*
X017050Y008998D01*
X016875Y008926D01*
X016718Y008734D02*
X016571Y008734D01*
X016620Y008575D02*
X016669Y008575D01*
X016674Y008417D02*
X016615Y008417D01*
X016549Y008258D02*
X016740Y008258D01*
X016924Y008100D02*
X016365Y008100D01*
X017365Y008100D02*
X017924Y008100D01*
X017875Y008120D02*
X018050Y008047D01*
X018239Y008047D01*
X018414Y008120D01*
X018547Y008253D01*
X018620Y008428D01*
X018620Y008617D01*
X018547Y008792D01*
X018414Y008926D01*
X018239Y008998D01*
X018050Y008998D01*
X017875Y008926D01*
X017742Y008792D01*
X017669Y008617D01*
X017669Y008428D01*
X017742Y008253D01*
X017875Y008120D01*
X017740Y008258D02*
X017549Y008258D01*
X017615Y008417D02*
X017674Y008417D01*
X017669Y008575D02*
X017620Y008575D01*
X017571Y008734D02*
X017718Y008734D01*
X017842Y008892D02*
X017447Y008892D01*
X017476Y009527D02*
X018026Y009527D01*
X018263Y009527D02*
X018813Y009527D01*
X018668Y009685D02*
X018535Y009685D01*
X017778Y010625D02*
X017730Y010623D01*
X017682Y010618D01*
X017634Y010608D01*
X017588Y010596D01*
X017542Y010580D01*
X017498Y010560D01*
X017456Y010537D01*
X017415Y010511D01*
X017377Y010482D01*
X017341Y010450D01*
X017307Y010415D01*
X017276Y010378D01*
X017248Y010338D01*
X017223Y010297D01*
X017202Y010254D01*
X017183Y010209D01*
X017169Y010163D01*
X017157Y010116D01*
X017150Y010069D01*
X017146Y010021D01*
X017145Y009972D01*
X017621Y009685D02*
X017754Y009685D01*
X018447Y008892D02*
X018842Y008892D01*
X018718Y008734D02*
X018571Y008734D01*
X018620Y008575D02*
X018669Y008575D01*
X018674Y008417D02*
X018615Y008417D01*
X018549Y008258D02*
X018740Y008258D01*
X018924Y008100D02*
X018365Y008100D01*
X018998Y010626D02*
X019067Y010630D01*
X019136Y010631D01*
X019205Y010627D01*
X019273Y010620D01*
X019341Y010609D01*
X019408Y010594D01*
X019475Y010575D01*
X019540Y010553D01*
X019604Y010527D01*
X019666Y010498D01*
X019727Y010465D01*
X019786Y010429D01*
X019808Y010964D02*
X019808Y010964D01*
X018998Y010626D02*
X017778Y010626D01*
X021401Y010954D02*
X021713Y010954D01*
X021714Y011112D02*
X021556Y011112D01*
X021621Y011271D02*
X021714Y011271D01*
X021715Y011429D02*
X021637Y011429D01*
X021612Y011588D02*
X021715Y011588D01*
X021715Y011746D02*
X021536Y011746D01*
X020657Y007297D02*
X020657Y007297D01*
X021527Y006039D02*
X021701Y006039D01*
X021701Y005880D02*
X020459Y005880D01*
X020414Y005926D02*
X020547Y005792D01*
X020620Y005617D01*
X020620Y005428D01*
X020547Y005253D01*
X020414Y005120D01*
X020239Y005047D01*
X020050Y005047D01*
X019875Y005120D01*
X019742Y005253D01*
X019669Y005428D01*
X019669Y005617D01*
X019742Y005792D01*
X019875Y005926D01*
X020050Y005998D01*
X020239Y005998D01*
X020414Y005926D01*
X020577Y005722D02*
X021700Y005722D01*
X021700Y005563D02*
X020620Y005563D01*
X020610Y005404D02*
X021699Y005404D01*
X021699Y005246D02*
X020540Y005246D01*
X020336Y005087D02*
X021699Y005087D01*
X021698Y004929D02*
X002368Y004929D01*
X002368Y004770D02*
X021698Y004770D01*
X021697Y004612D02*
X018280Y004612D01*
X018254Y004623D02*
X018035Y004623D01*
X017833Y004539D01*
X017678Y004384D01*
X017624Y004253D01*
X017611Y004284D01*
X017456Y004439D01*
X017254Y004523D01*
X017035Y004523D01*
X016833Y004439D01*
X016678Y004284D01*
X016665Y004253D01*
X016611Y004384D01*
X016456Y004539D01*
X016254Y004623D01*
X016035Y004623D01*
X015833Y004539D01*
X015678Y004384D01*
X015624Y004253D01*
X015611Y004284D01*
X015456Y004439D01*
X015254Y004523D01*
X015035Y004523D01*
X014833Y004439D01*
X014678Y004284D01*
X014665Y004253D01*
X014611Y004384D01*
X014456Y004539D01*
X014254Y004623D01*
X014035Y004623D01*
X013833Y004539D01*
X013678Y004384D01*
X013624Y004253D01*
X013611Y004284D01*
X013456Y004439D01*
X013254Y004523D01*
X013035Y004523D01*
X012833Y004439D01*
X012678Y004284D01*
X012665Y004253D01*
X012611Y004384D01*
X012456Y004539D01*
X012254Y004623D01*
X012035Y004623D01*
X011833Y004539D01*
X011678Y004384D01*
X011624Y004253D01*
X011611Y004284D01*
X011456Y004439D01*
X011254Y004523D01*
X011035Y004523D01*
X010833Y004439D01*
X010678Y004284D01*
X010665Y004253D01*
X010611Y004384D01*
X010456Y004539D01*
X010254Y004623D01*
X010035Y004623D01*
X009833Y004539D01*
X009678Y004384D01*
X009624Y004253D01*
X009611Y004284D01*
X009456Y004439D01*
X009254Y004523D01*
X009035Y004523D01*
X008833Y004439D01*
X008678Y004284D01*
X008665Y004253D01*
X008611Y004384D01*
X008456Y004539D01*
X008254Y004623D01*
X008035Y004623D01*
X007833Y004539D01*
X007678Y004384D01*
X007595Y004182D01*
X007595Y003963D01*
X007678Y003761D01*
X007833Y003606D01*
X008035Y003523D01*
X008254Y003523D01*
X008456Y003606D01*
X008611Y003761D01*
X008624Y003793D01*
X008678Y003661D01*
X008833Y003506D01*
X009035Y003423D01*
X009254Y003423D01*
X009456Y003506D01*
X009611Y003661D01*
X009665Y003793D01*
X009678Y003761D01*
X009833Y003606D01*
X010035Y003523D01*
X010254Y003523D01*
X010456Y003606D01*
X010611Y003761D01*
X010624Y003793D01*
X010678Y003661D01*
X010833Y003506D01*
X011035Y003423D01*
X011254Y003423D01*
X011456Y003506D01*
X011611Y003661D01*
X011665Y003793D01*
X011678Y003761D01*
X011833Y003606D01*
X012035Y003523D01*
X012254Y003523D01*
X012456Y003606D01*
X012611Y003761D01*
X012624Y003793D01*
X012678Y003661D01*
X012833Y003506D01*
X013035Y003423D01*
X013254Y003423D01*
X013456Y003506D01*
X013611Y003661D01*
X013665Y003793D01*
X013678Y003761D01*
X013833Y003606D01*
X014035Y003523D01*
X014254Y003523D01*
X014456Y003606D01*
X014611Y003761D01*
X014624Y003793D01*
X014678Y003661D01*
X014833Y003506D01*
X015035Y003423D01*
X015254Y003423D01*
X015456Y003506D01*
X015611Y003661D01*
X015665Y003793D01*
X015678Y003761D01*
X015833Y003606D01*
X016035Y003523D01*
X016254Y003523D01*
X016456Y003606D01*
X016611Y003761D01*
X016624Y003793D01*
X016678Y003661D01*
X016833Y003506D01*
X017035Y003423D01*
X017254Y003423D01*
X017456Y003506D01*
X017611Y003661D01*
X017665Y003793D01*
X017678Y003761D01*
X017833Y003606D01*
X018035Y003523D01*
X018254Y003523D01*
X018456Y003606D01*
X018611Y003761D01*
X018624Y003793D01*
X018678Y003661D01*
X018833Y003506D01*
X019035Y003423D01*
X019254Y003423D01*
X019456Y003506D01*
X019611Y003661D01*
X019695Y003863D01*
X019695Y004082D01*
X019611Y004284D01*
X019456Y004439D01*
X019254Y004523D01*
X019035Y004523D01*
X018833Y004439D01*
X018678Y004284D01*
X018665Y004253D01*
X018611Y004384D01*
X018456Y004539D01*
X018254Y004623D01*
X018009Y004612D02*
X016280Y004612D01*
X016009Y004612D02*
X014280Y004612D01*
X014009Y004612D02*
X012280Y004612D01*
X012009Y004612D02*
X010280Y004612D01*
X010009Y004612D02*
X008280Y004612D01*
X008009Y004612D02*
X002368Y004612D01*
X002368Y004453D02*
X007747Y004453D01*
X007641Y004295D02*
X002368Y004295D01*
X002368Y004136D02*
X007595Y004136D01*
X007595Y003978D02*
X002368Y003978D01*
X002368Y003819D02*
X007654Y003819D01*
X007779Y003661D02*
X002367Y003661D01*
X002367Y003502D02*
X008844Y003502D01*
X008679Y003661D02*
X008510Y003661D01*
X008648Y004295D02*
X008689Y004295D01*
X008542Y004453D02*
X008868Y004453D01*
X009422Y004453D02*
X009747Y004453D01*
X009641Y004295D02*
X009600Y004295D01*
X009610Y003661D02*
X009779Y003661D01*
X009445Y003502D02*
X010844Y003502D01*
X010679Y003661D02*
X010510Y003661D01*
X010648Y004295D02*
X010689Y004295D01*
X010542Y004453D02*
X010868Y004453D01*
X011422Y004453D02*
X011747Y004453D01*
X011641Y004295D02*
X011600Y004295D01*
X011610Y003661D02*
X011779Y003661D01*
X011445Y003502D02*
X012844Y003502D01*
X012679Y003661D02*
X012510Y003661D01*
X012648Y004295D02*
X012689Y004295D01*
X012542Y004453D02*
X012868Y004453D01*
X013422Y004453D02*
X013747Y004453D01*
X013641Y004295D02*
X013600Y004295D01*
X013610Y003661D02*
X013779Y003661D01*
X013445Y003502D02*
X014844Y003502D01*
X014679Y003661D02*
X014510Y003661D01*
X014648Y004295D02*
X014689Y004295D01*
X014542Y004453D02*
X014868Y004453D01*
X015422Y004453D02*
X015747Y004453D01*
X015641Y004295D02*
X015600Y004295D01*
X015610Y003661D02*
X015779Y003661D01*
X015445Y003502D02*
X016844Y003502D01*
X016679Y003661D02*
X016510Y003661D01*
X016648Y004295D02*
X016689Y004295D01*
X016542Y004453D02*
X016868Y004453D01*
X017422Y004453D02*
X017747Y004453D01*
X017641Y004295D02*
X017600Y004295D01*
X017610Y003661D02*
X017779Y003661D01*
X017445Y003502D02*
X018844Y003502D01*
X018679Y003661D02*
X018510Y003661D01*
X018648Y004295D02*
X018689Y004295D01*
X018542Y004453D02*
X018868Y004453D01*
X019422Y004453D02*
X021697Y004453D01*
X021697Y004295D02*
X019600Y004295D01*
X019672Y004136D02*
X021696Y004136D01*
X021696Y003978D02*
X019695Y003978D01*
X019676Y003819D02*
X021695Y003819D01*
X021695Y003661D02*
X019610Y003661D01*
X019445Y003502D02*
X021695Y003502D01*
X019953Y005087D02*
X019336Y005087D01*
X019414Y005120D02*
X019239Y005047D01*
X019050Y005047D01*
X018875Y005120D01*
X018742Y005253D01*
X018669Y005428D01*
X018669Y005617D01*
X018742Y005792D01*
X018875Y005926D01*
X019050Y005998D01*
X019239Y005998D01*
X019414Y005926D01*
X019547Y005792D01*
X019620Y005617D01*
X019620Y005428D01*
X019547Y005253D01*
X019414Y005120D01*
X019540Y005246D02*
X019749Y005246D01*
X019679Y005404D02*
X019610Y005404D01*
X019620Y005563D02*
X019669Y005563D01*
X019713Y005722D02*
X019577Y005722D01*
X019459Y005880D02*
X019830Y005880D01*
X018953Y005087D02*
X018336Y005087D01*
X018414Y005120D02*
X018547Y005253D01*
X018620Y005428D01*
X018620Y005617D01*
X018547Y005792D01*
X018414Y005926D01*
X018239Y005998D01*
X018050Y005998D01*
X017875Y005926D01*
X017742Y005792D01*
X017669Y005617D01*
X017669Y005428D01*
X017742Y005253D01*
X017875Y005120D01*
X018050Y005047D01*
X018239Y005047D01*
X018414Y005120D01*
X018540Y005246D02*
X018749Y005246D01*
X018679Y005404D02*
X018610Y005404D01*
X018620Y005563D02*
X018669Y005563D01*
X018713Y005722D02*
X018577Y005722D01*
X018459Y005880D02*
X018830Y005880D01*
X017830Y005880D02*
X017459Y005880D01*
X017414Y005926D02*
X017239Y005998D01*
X017050Y005998D01*
X016875Y005926D01*
X016742Y005792D01*
X016669Y005617D01*
X016669Y005428D01*
X016742Y005253D01*
X016875Y005120D01*
X017050Y005047D01*
X017239Y005047D01*
X017414Y005120D01*
X017547Y005253D01*
X017620Y005428D01*
X017620Y005617D01*
X017547Y005792D01*
X017414Y005926D01*
X017577Y005722D02*
X017713Y005722D01*
X017669Y005563D02*
X017620Y005563D01*
X017610Y005404D02*
X017679Y005404D01*
X017749Y005246D02*
X017540Y005246D01*
X017336Y005087D02*
X017953Y005087D01*
X016953Y005087D02*
X016336Y005087D01*
X016414Y005120D02*
X016547Y005253D01*
X016620Y005428D01*
X016620Y005617D01*
X016547Y005792D01*
X016414Y005926D01*
X016239Y005998D01*
X016050Y005998D01*
X015875Y005926D01*
X015742Y005792D01*
X015669Y005617D01*
X015669Y005428D01*
X015742Y005253D01*
X015875Y005120D01*
X016050Y005047D01*
X016239Y005047D01*
X016414Y005120D01*
X016540Y005246D02*
X016749Y005246D01*
X016679Y005404D02*
X016610Y005404D01*
X016620Y005563D02*
X016669Y005563D01*
X016713Y005722D02*
X016577Y005722D01*
X016459Y005880D02*
X016830Y005880D01*
X015953Y005087D02*
X015336Y005087D01*
X015414Y005120D02*
X015239Y005047D01*
X015050Y005047D01*
X014875Y005120D01*
X014742Y005253D01*
X014669Y005428D01*
X014669Y005617D01*
X014742Y005792D01*
X014875Y005926D01*
X015050Y005998D01*
X015239Y005998D01*
X015414Y005926D01*
X015547Y005792D01*
X015620Y005617D01*
X015620Y005428D01*
X015547Y005253D01*
X015414Y005120D01*
X015540Y005246D02*
X015749Y005246D01*
X015679Y005404D02*
X015610Y005404D01*
X015620Y005563D02*
X015669Y005563D01*
X015713Y005722D02*
X015577Y005722D01*
X015459Y005880D02*
X015830Y005880D01*
X014830Y005880D02*
X013459Y005880D01*
X013414Y005926D02*
X013547Y005792D01*
X013620Y005617D01*
X013620Y005428D01*
X013547Y005253D01*
X013414Y005120D01*
X013239Y005047D01*
X013050Y005047D01*
X012875Y005120D01*
X012742Y005253D01*
X012669Y005428D01*
X012669Y005617D01*
X012742Y005792D01*
X012875Y005926D01*
X013050Y005998D01*
X013239Y005998D01*
X013414Y005926D01*
X013577Y005722D02*
X014713Y005722D01*
X014669Y005563D02*
X013620Y005563D01*
X013610Y005404D02*
X014679Y005404D01*
X014749Y005246D02*
X013540Y005246D01*
X013336Y005087D02*
X014953Y005087D01*
X012953Y005087D02*
X012336Y005087D01*
X012414Y005120D02*
X012239Y005047D01*
X012050Y005047D01*
X011875Y005120D01*
X011742Y005253D01*
X011669Y005428D01*
X011669Y005617D01*
X011742Y005792D01*
X011875Y005926D01*
X012050Y005998D01*
X012239Y005998D01*
X012414Y005926D01*
X012547Y005792D01*
X012620Y005617D01*
X012620Y005428D01*
X012547Y005253D01*
X012414Y005120D01*
X012540Y005246D02*
X012749Y005246D01*
X012679Y005404D02*
X012610Y005404D01*
X012620Y005563D02*
X012669Y005563D01*
X012713Y005722D02*
X012577Y005722D01*
X012459Y005880D02*
X012830Y005880D01*
X011953Y005087D02*
X011336Y005087D01*
X011414Y005120D02*
X011547Y005253D01*
X011620Y005428D01*
X011620Y005617D01*
X011547Y005792D01*
X011414Y005926D01*
X011239Y005998D01*
X011050Y005998D01*
X010875Y005926D01*
X010742Y005792D01*
X010669Y005617D01*
X010669Y005428D01*
X010742Y005253D01*
X010875Y005120D01*
X011050Y005047D01*
X011239Y005047D01*
X011414Y005120D01*
X011540Y005246D02*
X011749Y005246D01*
X011679Y005404D02*
X011610Y005404D01*
X011620Y005563D02*
X011669Y005563D01*
X011713Y005722D02*
X011577Y005722D01*
X011459Y005880D02*
X011830Y005880D01*
X010830Y005880D02*
X010459Y005880D01*
X010577Y005722D02*
X010713Y005722D01*
X010669Y005563D02*
X010620Y005563D01*
X010610Y005404D02*
X010679Y005404D01*
X010749Y005246D02*
X010540Y005246D01*
X010336Y005087D02*
X010953Y005087D01*
X011628Y007140D02*
X011628Y007140D01*
X009754Y009685D02*
X009621Y009685D01*
X008927Y010478D02*
X002372Y010478D01*
X002372Y010636D02*
X009474Y010636D01*
X009608Y010795D02*
X002372Y010795D01*
X002372Y010954D02*
X009624Y010954D01*
X009656Y011112D02*
X002372Y011112D01*
X002372Y011271D02*
X009493Y011271D01*
X009378Y011429D02*
X005859Y011429D01*
X005876Y011447D02*
X005931Y011578D01*
X005931Y011721D01*
X005876Y011852D01*
X005780Y011949D01*
X005748Y012219D01*
X005699Y012490D01*
X005719Y012510D01*
X005774Y012641D01*
X005774Y012784D01*
X005719Y012915D01*
X005618Y013016D01*
X005487Y013071D01*
X005344Y013071D01*
X005213Y013016D01*
X005112Y012915D01*
X005109Y012907D01*
X005089Y012955D01*
X004988Y013055D01*
X004857Y013110D01*
X004714Y013110D01*
X004583Y013055D01*
X004482Y012955D01*
X004456Y012893D01*
X004221Y012761D01*
X003961Y012488D01*
X003841Y012248D01*
X003795Y012229D01*
X003695Y012128D01*
X003640Y011996D01*
X003640Y011854D01*
X003695Y011722D01*
X003795Y011621D01*
X003927Y011567D01*
X004069Y011567D01*
X004201Y011621D01*
X004302Y011722D01*
X004356Y011854D01*
X004356Y011996D01*
X004313Y012099D01*
X004366Y012204D01*
X004525Y012371D01*
X004628Y012429D01*
X004714Y012394D01*
X004857Y012394D01*
X004988Y012448D01*
X005089Y012549D01*
X005092Y012557D01*
X005112Y012510D01*
X005213Y012409D01*
X005223Y012405D01*
X005265Y012147D01*
X005300Y011883D01*
X005269Y011852D01*
X005215Y011721D01*
X005215Y011578D01*
X005269Y011447D01*
X005370Y011346D01*
X005502Y011291D01*
X005644Y011291D01*
X005776Y011346D01*
X005876Y011447D01*
X005931Y011588D02*
X009354Y011588D01*
X009361Y011746D02*
X005920Y011746D01*
X005824Y011905D02*
X009282Y011905D01*
X009203Y012063D02*
X005766Y012063D01*
X005748Y012222D02*
X009124Y012222D01*
X009044Y012380D02*
X005719Y012380D01*
X005731Y012539D02*
X008965Y012539D01*
X008886Y012697D02*
X005774Y012697D01*
X005744Y012856D02*
X008223Y012856D01*
X007935Y012973D02*
X007935Y012973D01*
X007869Y013015D02*
X005620Y013015D01*
X005211Y013015D02*
X005029Y013015D01*
X005079Y012539D02*
X005100Y012539D01*
X005227Y012380D02*
X004541Y012380D01*
X004383Y012222D02*
X005253Y012222D01*
X005276Y012063D02*
X004328Y012063D01*
X004356Y011905D02*
X005297Y011905D01*
X005225Y011746D02*
X004312Y011746D01*
X004119Y011588D02*
X005215Y011588D01*
X005287Y011429D02*
X002372Y011429D01*
X002372Y011588D02*
X003877Y011588D01*
X003685Y011746D02*
X002372Y011746D01*
X002372Y011905D02*
X003640Y011905D01*
X003668Y012063D02*
X002373Y012063D01*
X002373Y012222D02*
X003789Y012222D01*
X003908Y012380D02*
X002373Y012380D01*
X002373Y012539D02*
X004010Y012539D01*
X003961Y012488D02*
X003961Y012488D01*
X004161Y012697D02*
X002373Y012697D01*
X002373Y012856D02*
X004390Y012856D01*
X004221Y012761D02*
X004221Y012761D01*
X004542Y013015D02*
X002373Y013015D01*
X002373Y013173D02*
X007624Y013173D01*
X008624Y012856D02*
X008663Y012856D01*
X008713Y010319D02*
X002371Y010319D01*
X002371Y010161D02*
X008627Y010161D01*
X014791Y018564D02*
X014838Y018564D01*
X014682Y018722D02*
X015024Y018722D01*
X015555Y018722D02*
X015897Y018722D01*
X015788Y018564D02*
X015740Y018564D01*
X016682Y018722D02*
X017024Y018722D01*
X016838Y018564D02*
X016791Y018564D01*
X017555Y018722D02*
X017897Y018722D01*
X017788Y018564D02*
X017740Y018564D01*
X018682Y018722D02*
X019024Y018722D01*
X018838Y018564D02*
X018791Y018564D01*
X019555Y018722D02*
X019897Y018722D01*
X019788Y018564D02*
X019740Y018564D01*
X020682Y018722D02*
X021024Y018722D01*
X020838Y018564D02*
X020791Y018564D01*
D18*
X016163Y012555D03*
X015730Y011846D03*
X015652Y011098D03*
X015183Y011134D03*
X014156Y011453D03*
X013486Y011768D03*
X013801Y012358D03*
X012939Y012264D03*
X012856Y011374D03*
X014793Y012138D03*
X013604Y009209D03*
X016120Y007119D03*
X019786Y010429D03*
X012787Y016385D03*
X012510Y016816D03*
X011258Y016438D03*
X010787Y016685D03*
X007817Y014051D03*
X008201Y013660D03*
X008423Y013160D03*
X008959Y013067D03*
X009787Y012985D03*
X010187Y012085D03*
X009712Y011559D03*
X009982Y010964D03*
X007420Y010810D03*
X006037Y012351D03*
X005415Y012712D03*
X004786Y012752D03*
X003998Y011925D03*
X002700Y012095D03*
X003525Y014415D03*
X005573Y011649D03*
X003640Y008264D03*
X006911Y006216D03*
X008604Y006216D03*
X010745Y006986D03*
X004270Y003894D03*
D19*
X009145Y005523D02*
X009587Y006485D01*
X009619Y006551D01*
X009655Y006615D01*
X009695Y006677D01*
X009737Y006737D01*
X009783Y006795D01*
X009832Y006850D01*
X009884Y006902D01*
X009938Y006952D01*
X009995Y006998D01*
X010054Y007042D01*
X010116Y007082D01*
X010179Y007119D01*
X010245Y007152D01*
X010312Y007182D01*
X010381Y007208D01*
X010451Y007231D01*
X010522Y007249D01*
X010594Y007264D01*
X010667Y007275D01*
X010740Y007283D01*
X010814Y007286D01*
X010887Y007285D01*
X012487Y007985D02*
X012518Y008023D01*
X012545Y008064D01*
X012569Y008106D01*
X012590Y008151D01*
X012607Y008197D01*
X012621Y008244D01*
X012631Y008292D01*
X012637Y008340D01*
X012640Y008389D01*
X009019Y015937D02*
X009360Y016115D01*
X009708Y016279D01*
X010062Y016429D01*
X010422Y016564D01*
X010787Y016685D01*
X012510Y016816D02*
X012787Y016785D01*
X012787Y016385D02*
X012987Y016085D01*
X013188Y016485D02*
X013171Y016522D01*
X013152Y016558D01*
X013130Y016592D01*
X013105Y016624D01*
X013077Y016653D01*
X013047Y016680D01*
X013014Y016705D01*
X012980Y016726D01*
X012944Y016744D01*
X012906Y016760D01*
X012867Y016772D01*
X012828Y016780D01*
X012787Y016785D01*
X013885Y015344D02*
X013916Y015327D01*
X013948Y015312D01*
X013982Y015300D01*
X014016Y015292D01*
X014051Y015287D01*
X014087Y015285D01*
X017087Y014985D01*
X018211Y015271D02*
X014187Y015685D01*
X016242Y012201D02*
X016323Y012245D01*
X016403Y012293D01*
X016481Y012344D01*
X016557Y012397D01*
X018040Y013484D01*
X019141Y014483D02*
X019120Y014544D01*
X019096Y014603D01*
X019068Y014661D01*
X019037Y014718D01*
X019003Y014772D01*
X018966Y014825D01*
X018926Y014875D01*
X018883Y014923D01*
X018838Y014968D01*
X018790Y015011D01*
X018740Y015052D01*
X018687Y015089D01*
X018633Y015123D01*
X018577Y015154D01*
X018519Y015182D01*
X018459Y015207D01*
X018399Y015228D01*
X018337Y015246D01*
X018274Y015261D01*
X018211Y015271D01*
X019041Y013483D02*
X019628Y012791D01*
X019667Y012673D02*
X019667Y011295D01*
X019665Y011258D01*
X019659Y011221D01*
X019650Y011186D01*
X019636Y011151D01*
X019620Y011118D01*
X019599Y011087D01*
X019576Y011058D01*
X019550Y011032D01*
X019521Y011009D01*
X019490Y010988D01*
X019457Y010972D01*
X019422Y010958D01*
X019387Y010949D01*
X019350Y010943D01*
X019313Y010941D01*
X017660Y010941D01*
X016715Y010586D02*
X015179Y010586D01*
X015652Y011098D01*
X015454Y011452D02*
X015432Y011469D01*
X015408Y011483D01*
X015383Y011495D01*
X015356Y011503D01*
X015329Y011509D01*
X015301Y011511D01*
X015301Y011512D02*
X014156Y011453D01*
X012856Y011374D01*
X013104Y010827D02*
X015183Y011134D01*
X015179Y010586D02*
X014077Y010586D01*
X014077Y010587D02*
X014033Y010581D01*
X013990Y010571D01*
X013947Y010558D01*
X013906Y010541D01*
X013867Y010521D01*
X013829Y010498D01*
X013793Y010471D01*
X013760Y010442D01*
X013729Y010410D01*
X013702Y010376D01*
X013677Y010339D01*
X013655Y010300D01*
X013636Y010260D01*
X013104Y010827D02*
X013068Y010820D01*
X013031Y010811D01*
X012997Y010797D01*
X012963Y010781D01*
X012931Y010761D01*
X012902Y010738D01*
X012875Y010712D01*
X012851Y010683D01*
X012829Y010653D01*
X012811Y010620D01*
X012796Y010585D01*
X012785Y010550D01*
X012778Y010513D01*
X012774Y010476D01*
X013644Y009366D02*
X013651Y009348D01*
X013656Y009328D01*
X013657Y009309D01*
X013655Y009289D01*
X013651Y009270D01*
X013643Y009252D01*
X013632Y009235D01*
X013619Y009221D01*
X013604Y009208D01*
X013644Y009366D02*
X013640Y009402D01*
X013639Y009437D01*
X013640Y009473D01*
X012640Y009826D02*
X012641Y009900D01*
X012645Y009975D01*
X012653Y010048D01*
X012665Y010122D01*
X012680Y010195D01*
X012698Y010266D01*
X012720Y010337D01*
X012745Y010407D01*
X012774Y010476D01*
X013486Y011768D02*
X015730Y011846D01*
X016045Y011689D02*
X016024Y011651D01*
X015999Y011616D01*
X015971Y011583D01*
X015940Y011552D01*
X015906Y011525D01*
X015871Y011500D01*
X015833Y011479D01*
X015794Y011461D01*
X015753Y011447D01*
X015711Y011436D01*
X015668Y011429D01*
X015625Y011426D01*
X015581Y011427D01*
X015538Y011432D01*
X015496Y011440D01*
X015454Y011452D01*
X016715Y010587D02*
X016767Y010589D01*
X016819Y010595D01*
X016870Y010604D01*
X016920Y010617D01*
X016970Y010634D01*
X017018Y010654D01*
X017064Y010678D01*
X017109Y010705D01*
X016045Y011689D02*
X016135Y011747D01*
X016227Y011801D01*
X016321Y011851D01*
X016418Y011896D01*
X016517Y011936D01*
X016617Y011972D01*
X016719Y012003D01*
X016823Y012030D01*
X016927Y012051D01*
X017033Y012067D01*
X017139Y012079D01*
X017245Y012085D01*
X017352Y012087D01*
X017459Y012083D01*
X017565Y012075D01*
X017671Y012061D01*
X017776Y012043D01*
X017880Y012020D01*
X018289Y011941D02*
X018321Y011935D01*
X018354Y011932D01*
X018386Y011933D01*
X018419Y011937D01*
X018450Y011944D01*
X018481Y011954D01*
X018511Y011968D01*
X018539Y011985D01*
X018565Y012004D01*
X019141Y012483D01*
X019668Y012673D02*
X019667Y012698D01*
X019663Y012724D01*
X019655Y012748D01*
X019643Y012770D01*
X019628Y012791D01*
X018140Y014484D02*
X018078Y014542D01*
X018014Y014597D01*
X017947Y014649D01*
X017877Y014698D01*
X017805Y014743D01*
X017731Y014785D01*
X017656Y014823D01*
X017578Y014858D01*
X017499Y014889D01*
X017419Y014916D01*
X017337Y014939D01*
X017254Y014958D01*
X017171Y014974D01*
X017087Y014985D01*
X013886Y015344D02*
X013796Y015385D01*
X013708Y015429D01*
X013623Y015478D01*
X013540Y015531D01*
X013459Y015588D01*
X013382Y015648D01*
X013308Y015713D01*
X013236Y015781D01*
X013169Y015852D01*
X013104Y015927D01*
X013044Y016005D01*
X012987Y016085D01*
X013188Y016485D02*
X013220Y016418D01*
X013255Y016353D01*
X013294Y016291D01*
X013336Y016230D01*
X013381Y016171D01*
X013429Y016115D01*
X013480Y016062D01*
X013534Y016011D01*
X013591Y015964D01*
X013649Y015919D01*
X013711Y015878D01*
X013774Y015840D01*
X013839Y015805D01*
X013906Y015774D01*
X013975Y015746D01*
X014044Y015722D01*
X014116Y015702D01*
X014188Y015685D01*
X013801Y012358D02*
X016163Y012555D01*
X016243Y012201D02*
X016206Y012184D01*
X016168Y012170D01*
X016129Y012159D01*
X016089Y012152D01*
X016048Y012149D01*
X016008Y012150D01*
X015968Y012154D01*
X015928Y012161D01*
X015927Y012162D02*
X015834Y012184D01*
X015740Y012201D01*
X015645Y012214D01*
X015550Y012223D01*
X015455Y012227D01*
X015359Y012228D01*
X015263Y012223D01*
X015168Y012215D01*
X015073Y012202D01*
X014979Y012185D01*
X014886Y012164D01*
X014793Y012138D01*
X014886Y012164D01*
X014979Y012185D01*
X015073Y012202D01*
X015168Y012215D01*
X015263Y012223D01*
X015359Y012228D01*
X015455Y012227D01*
X015550Y012223D01*
X015645Y012214D01*
X015740Y012201D01*
X015834Y012184D01*
X015927Y012162D01*
X017108Y010704D02*
X017172Y010744D01*
X017237Y010782D01*
X017305Y010816D01*
X017373Y010847D01*
X017443Y010875D01*
X017514Y010900D01*
X017586Y010922D01*
X017659Y010941D01*
X017880Y012019D02*
X018017Y011998D01*
X018154Y011972D01*
X018289Y011941D01*
X011258Y016437D02*
X011051Y016413D01*
X010846Y016378D01*
X010642Y016333D01*
X010441Y016278D01*
X010243Y016214D01*
X010048Y016140D01*
X009857Y016056D01*
X009671Y015964D01*
X009489Y015862D01*
X009312Y015752D01*
X009141Y015633D01*
X008976Y015506D01*
X008817Y015371D01*
X008665Y015229D01*
X008520Y015079D01*
X008382Y014923D01*
X008252Y014760D01*
X008131Y014591D01*
X008017Y014416D01*
X007913Y014236D01*
X007817Y014051D01*
X007587Y013686D02*
X007555Y013721D01*
X007527Y013758D01*
X007501Y013798D01*
X007479Y013839D01*
X007459Y013883D01*
X007444Y013927D01*
X007432Y013973D01*
X007423Y014019D01*
X007418Y014066D01*
X007417Y014113D01*
X007420Y014160D01*
X007426Y014207D01*
X007436Y014253D01*
X007449Y014299D01*
X007467Y014343D01*
X007487Y014385D01*
X007587Y013685D02*
X007604Y013634D01*
X007625Y013584D01*
X007649Y013536D01*
X007676Y013489D01*
X007707Y013445D01*
X007741Y013403D01*
X007778Y013364D01*
X007818Y013327D01*
X007861Y013294D01*
X007905Y013263D01*
X007952Y013236D01*
X008001Y013213D01*
X008051Y013193D01*
X008102Y013177D01*
X008155Y013164D01*
X008208Y013156D01*
X008262Y013151D01*
X008316Y013150D01*
X008370Y013153D01*
X008424Y013161D01*
X008959Y013067D02*
X009712Y011559D01*
X010187Y012085D02*
X009787Y012985D01*
X007488Y014385D02*
X007578Y014545D01*
X007676Y014702D01*
X007782Y014853D01*
X007894Y014999D01*
X008014Y015139D01*
X008140Y015273D01*
X008273Y015401D01*
X008411Y015523D01*
X008556Y015637D01*
X008706Y015745D01*
X008860Y015845D01*
X009020Y015937D01*
X009983Y010965D02*
X009911Y010838D01*
X009834Y010715D01*
X009752Y010596D01*
X009663Y010480D01*
X009569Y010369D01*
X009470Y010263D01*
X009367Y010161D01*
X009258Y010065D01*
X009145Y009973D01*
X010887Y007284D02*
X010982Y007283D01*
X011077Y007286D01*
X011172Y007294D01*
X011266Y007306D01*
X011360Y007323D01*
X011452Y007344D01*
X011544Y007370D01*
X011634Y007399D01*
X011723Y007433D01*
X011810Y007471D01*
X011895Y007514D01*
X011979Y007560D01*
X012059Y007610D01*
X012138Y007664D01*
X012214Y007721D01*
X012287Y007782D01*
X012357Y007846D01*
X012423Y007914D01*
X012487Y007984D01*
X013640Y009473D02*
X013647Y009735D01*
X013646Y009998D01*
X013636Y010260D01*
X012641Y009827D02*
X012641Y008389D01*
M02*
